<?xml version="1.0" standalone="no"?>
<!DOCTYPE svg PUBLIC "-//W3C//DTD SVG 1.1//EN" "http://www.w3.org/Graphics/SVG/1.1/DTD/svg11.dtd" >
<svg xmlns="http://www.w3.org/2000/svg" xmlns:xlink="http://www.w3.org/1999/xlink" version="1.1">
<metadata>
Created by FontForge 20200511 at Wed Aug  2 15:35:17 2023
 By convertio
Copyright 2020 OoM Type (Vojtech Kollert). All rights reserved.
</metadata>
<defs>
<font id="Rejouice-Headline" horiz-adv-x="0" >
  <font-face 
    font-family="Rejouice Headline"
    font-weight="400"
    font-stretch="normal"
    units-per-em="2048"
    panose-1="0 0 0 0 0 0 0 0 0 0"
    ascent="1638"
    descent="-410"
    x-height="1065"
    cap-height="1434"
    bbox="-401 -715 9243 2198"
    underline-thickness="102"
    underline-position="-358"
    unicode-range="U+0020-F0002"
  />
<missing-glyph horiz-adv-x="1536" 
d="M768 0q-145 0 -278 57t-229 153t-153 229t-57 278t57 278t153 229t229 153t278 57t278 -57t229 -153t153 -229t57 -278t-57 -278t-153 -229t-229 -153t-278 -57z" />
    <glyph glyph-name="f_i.liga" unicode="fi" horiz-adv-x="1093" 
d="M205 0v905h-185v160h185q0 74 20.5 135.5t56 104.5t84 72.5t103.5 43t115 13.5h143v-160h-139q-96 0 -149.5 -47.5t-53.5 -161.5h324v-160h-324v-905h-180zM778 1321q0 51 36.5 87t86.5 36q48 0 84.5 -36.5t36.5 -86.5q0 -52 -36.5 -88.5t-84.5 -36.5q-50 0 -86.5 36.5
t-36.5 88.5zM811 0v1065h180v-1065h-180z" />
    <glyph glyph-name="f_l.liga" unicode="fl" horiz-adv-x="1271" 
d="M205 0v905h-185v160h185q0 74 20.5 135.5t56 104.5t84 72.5t103.5 43t115 13.5h143v-160h-139q-96 0 -149.5 -47.5t-53.5 -161.5h324v-160h-324v-905h-180zM829 401v1033h181v-1024q0 -114 65.5 -182t171.5 -68h25v-160h-58q-159 0 -272 112.5t-113 288.5z" />
    <glyph glyph-name="r_f.liga" unicode="rf" horiz-adv-x="1196" 
d="M82 600q0 98 26.5 179t70.5 135.5t103.5 91.5t123 54t131.5 17h106v-176h-111q-126 0 -198 -81.5t-72 -233.5v-586h-180v600zM725 0v1065q0 74 20.5 135.5t56 104.5t84 72.5t103.5 43t115 13.5h143v-160h-139q-96 0 -149.5 -47.5t-53.5 -161.5h324v-160h-324v-905h-180z
" />
    <glyph glyph-name="r_t.liga" unicode="rt" horiz-adv-x="1183" 
d="M82 600q0 98 26.5 179t70.5 135.5t103.5 91.5t123 54t131.5 17h106v-176h-111q-126 0 -198 -81.5t-72 -233.5v-586h-180v600zM705 412v893l180 98v-338h274v-160h-274v-483q0 -117 70.5 -189.5t187.5 -72.5h31v-160h-52q-82 0 -157 28t-133 79t-92.5 130.5t-34.5 174.5z
" />
    <glyph glyph-name="R_E_J_O_I_C_E.liga" unicode="REJOICE" horiz-adv-x="9293" 
d="M92 807q0 131 35.5 239.5t94.5 181.5t138 123t165 72.5t177 22.5h142v-189h-148q-192 0 -300.5 -120t-108.5 -351v-786h-195v807zM840 719q0 172 53 313.5t146 236t221.5 145t279.5 48.5q135 -2 247 -41t189 -105t131 -154t78.5 -185.5t24.5 -202.5q0 -65 -8 -117h-1160
q7 -126 49 -224.5t111.5 -159.5t157.5 -92t190 -31q184 0 302.5 83t152.5 216h197q-36 -210 -212 -344t-446 -134q-117 0 -222 29.5t-193 90.5t-152.5 148.5t-100.5 210t-36 269.5zM1044 829h963q-10 116 -51 204.5t-106 142.5t-144.5 81t-171.5 27q-203 0 -334.5 -114
t-155.5 -341zM2210 -12v188h147q192 0 301 120t109 351v787h194v-807q0 -131 -35.5 -239.5t-94.5 -181.5t-138 -123t-165 -72.5t-177 -22.5h-141zM2724 1751q0 59 41 99t98 40t98 -40t41 -99t-41 -99t-98 -40t-98 40t-41 99zM3111 719q0 214 90.5 384t251 264.5t362.5 94.5
q151 0 282 -55.5t224 -153t146 -236t53 -298.5q0 -214 -90.5 -385t-252 -267t-362.5 -96t-362 96t-251.5 267t-90.5 385zM3312 717q0 -132 40 -240t109 -179t160 -109.5t194 -38.5t194.5 38.5t160.5 109.5t109 179.5t40 239.5t-40 239.5t-109 179.5t-160.5 109.5
t-194.5 38.5t-194 -38.5t-160 -109.5t-109 -179t-40 -240zM4663 541v893h195v-881q0 -105 36 -185.5t96 -126.5t129.5 -68.5t145.5 -22.5t146 22.5t130 68.5t96 126.5t36 185.5v881h195v-893q0 -120 -42.5 -224.5t-119.5 -181t-191 -120.5t-250 -44t-250 44t-190.5 120.5
t-119 181t-42.5 224.5zM6038 1751q0 59 41 99t98 40t98 -40t41 -99t-41 -99t-98 -40t-98 40t-41 99zM6081 0v1434h194v-1434h-194zM6423 719q0 214 89 384t249 264.5t362 94.5q188 0 336 -69.5t234.5 -195.5t99.5 -292h-197q-22 180 -146.5 279.5t-330.5 99.5
q-214 0 -355 -152.5t-141 -414.5q0 -132 38.5 -240t105.5 -179t157 -109.5t193 -38.5q209 0 333 113.5t146 309.5h197q-21 -268 -201.5 -435t-472.5 -167q-201 0 -360 96t-247.5 266.5t-88.5 385.5zM7873 723q0 172 53 313.5t146 236t221.5 145t279.5 48.5q135 -2 247 -41
t189 -105t131 -154t78.5 -185.5t24.5 -202.5q0 -58 -9 -116h-1159q7 -126 49 -224.5t111.5 -159.5t157.5 -92.5t190 -31.5q184 0 302.5 83t152.5 216h196q-37 -210 -212 -344t-445 -134q-117 0 -222 29.5t-193 90.5t-152.5 148.5t-100.5 210t-36 269.5zM8077 834h963
q-10 116 -51 204.5t-106 142t-144.5 80.5t-171.5 27q-203 0 -334.5 -113.5t-155.5 -340.5z" />
    <glyph glyph-name="R_e_j_o_u_i_c_e.liga" unicode="Rejouice" horiz-adv-x="7305" 
d="M3514 535q0 -130 -42.5 -238t-115.5 -178.5t-168 -109t-202 -38.5t-202 38.5t-168 108.5t-115.5 178t-42.5 239q0 130 42.5 237t115.5 176.5t168 107.5t202 38t202 -37.5t168 -107t115.5 -176.5t42.5 -238zM82 0v600q0 98 26.5 179t70.5 135.5t103.5 91.5t123 54
t131.5 17h106v-176h-111q-126 0 -198 -81.5t-72 -233.5v-586h-180zM684 535q0 258 146.5 410t373.5 149q124 -1 222 -47t157 -121.5t90 -167.5t31 -193q0 -43 -6 -90h-826q11 -168 106 -253t236 -85q122 0 197 52.5t102 148.5h185q-28 -165 -158.5 -266t-329.5 -101
q-108 0 -202.5 36t-167 104t-114.5 177.5t-42 246.5zM877 631h636q-16 151 -101.5 224t-211.5 73q-133 0 -218.5 -72.5t-104.5 -224.5zM1747 -12v176h111q126 0 198 81.5t72 233.5v586h180v-600q0 -98 -26.5 -179t-70.5 -135.5t-103.5 -91.5t-123 -54t-131.5 -17h-106z
M2095 1321q0 51 36.5 87t86.5 36q48 0 84.5 -36.5t36.5 -86.5q0 -52 -36.5 -88.5t-84.5 -36.5q-50 0 -86.5 36.5t-36.5 88.5zM2644 532q0 -189 98 -292t244 -103t244 103t98 292q0 195 -97 295.5t-245 100.5t-245 -100.5t-97 -295.5zM3664 424v641h180v-604
q0 -170 75.5 -248t207.5 -78q282 0 282 326v604h181v-641q0 -95 -28 -172.5t-73.5 -129t-106.5 -86.5t-125 -50t-130 -15t-130 15t-125 50t-106.5 86.5t-73.5 129t-28 172.5zM4753 1321q0 51 36.5 87t86.5 36q48 0 84.5 -36.5t36.5 -86.5q0 -52 -36.5 -88.5t-84.5 -36.5
q-50 0 -86.5 36.5t-36.5 88.5zM4786 0v1065h180v-1065h-180zM5116 535q0 130 42.5 237t114.5 176.5t167 107.5t202 38q101 0 187 -26.5t154 -78t110 -134.5t49 -189h-182q-33 262 -322 262q-146 0 -241 -100.5t-95 -295.5q0 -190 95.5 -292.5t242.5 -102.5q128 0 214 75
t106 218h182q-15 -215 -153.5 -337t-344.5 -122q-108 0 -203.5 38.5t-168 109t-114.5 178t-42 238.5zM6234 535q0 258 146.5 410t373.5 149q124 -1 222 -47t157 -121.5t90 -167.5t31 -193q0 -43 -6 -90h-825q11 -168 106 -253t236 -85q122 0 197 52.5t102 148.5h184
q-28 -165 -158.5 -266t-329.5 -101q-108 0 -202.5 36t-167 104t-114.5 177.5t-42 246.5zM6427 631h637q-16 151 -102 224t-212 73q-133 0 -218.5 -72.5t-104.5 -224.5z" />
    <glyph glyph-name="r_e_j_o_u_i_c_e.liga" unicode="rejouice" horiz-adv-x="7305" 
d="M3514 535q0 -130 -42.5 -238t-115.5 -178.5t-168 -109t-202 -38.5t-202 38.5t-168 108.5t-115.5 178t-42.5 239q0 130 42.5 237t115.5 176.5t168 107.5t202 38t202 -37.5t168 -107t115.5 -176.5t42.5 -238zM82 0v600q0 98 26.5 179t70.5 135.5t103.5 91.5t123 54
t131.5 17h106v-176h-111q-126 0 -198 -81.5t-72 -233.5v-586h-180zM684 535q0 258 146.5 410t373.5 149q124 -1 222 -47t157 -121.5t90 -167.5t31 -193q0 -43 -6 -90h-826q11 -168 106 -253t236 -85q122 0 197 52.5t102 148.5h185q-28 -165 -158.5 -266t-329.5 -101
q-108 0 -202.5 36t-167 104t-114.5 177.5t-42 246.5zM877 631h636q-16 151 -101.5 224t-211.5 73q-133 0 -218.5 -72.5t-104.5 -224.5zM1747 -12v176h111q126 0 198 81.5t72 233.5v586h180v-600q0 -98 -26.5 -179t-70.5 -135.5t-103.5 -91.5t-123 -54t-131.5 -17h-106z
M2095 1321q0 51 36.5 87t86.5 36q48 0 84.5 -36.5t36.5 -86.5q0 -52 -36.5 -88.5t-84.5 -36.5q-50 0 -86.5 36.5t-36.5 88.5zM2644 532q0 -189 98 -292t244 -103t244 103t98 292q0 195 -97 295.5t-245 100.5t-245 -100.5t-97 -295.5zM3664 424v641h180v-604
q0 -170 75.5 -248t207.5 -78q282 0 282 326v604h181v-641q0 -95 -28 -172.5t-73.5 -129t-106.5 -86.5t-125 -50t-130 -15t-130 15t-125 50t-106.5 86.5t-73.5 129t-28 172.5zM4753 1321q0 51 36.5 87t86.5 36q48 0 84.5 -36.5t36.5 -86.5q0 -52 -36.5 -88.5t-84.5 -36.5
q-50 0 -86.5 36.5t-36.5 88.5zM4786 0v1065h180v-1065h-180zM5116 535q0 130 42.5 237t114.5 176.5t167 107.5t202 38q101 0 187 -26.5t154 -78t110 -134.5t49 -189h-182q-33 262 -322 262q-146 0 -241 -100.5t-95 -295.5q0 -190 95.5 -292.5t242.5 -102.5q128 0 214 75
t106 218h182q-15 -215 -153.5 -337t-344.5 -122q-108 0 -203.5 38.5t-168 109t-114.5 178t-42 238.5zM6234 535q0 258 146.5 410t373.5 149q124 -1 222 -47t157 -121.5t90 -167.5t31 -193q0 -43 -6 -90h-825q11 -168 106 -253t236 -85q122 0 197 52.5t102 148.5h184
q-28 -165 -158.5 -266t-329.5 -101q-108 0 -202.5 36t-167 104t-114.5 177.5t-42 246.5zM6427 631h637q-16 151 -102 224t-212 73q-133 0 -218.5 -72.5t-104.5 -224.5z" />
    <glyph glyph-name="r_s_m_i_l_e.liga" unicode="rsmile" horiz-adv-x="2691" 
d="M893 1090q0 87 29 154.5t77.5 108t107 61t122.5 20.5h88v-148h-94q-86 0 -134.5 -52t-48.5 -159v-448h-147v463zM313 627q0 -175 52 -331t144 -274t214 -204t267.5 -130t299.5 -44t299.5 44t267.5 130t214 204t144 274t52 331h-147q0 -189 -64.5 -347.5t-176 -264.5
t-263.5 -165t-326 -59t-325.5 58.5t-263.5 165t-176 265t-64 347.5h-148zM1483 627v463q0 87 29 154.5t77.5 108t107 61t122.5 20.5h88v-148h-95q-86 0 -134 -52t-48 -159v-448h-147z" />
    <glyph glyph-name=".notdef" horiz-adv-x="1536" 
d="M768 0q-145 0 -278 57t-229 153t-153 229t-57 278t57 278t153 229t229 153t278 57t278 -57t229 -153t153 -229t57 -278t-57 -278t-153 -229t-229 -153t-278 -57z" />
    <glyph glyph-name=".null" horiz-adv-x="645" 
 />
    <glyph glyph-name="nonmarkingreturn" horiz-adv-x="682" 
 />
    <glyph glyph-name="space" unicode=" " horiz-adv-x="481" 
 />
    <glyph glyph-name="exclam" unicode="!" horiz-adv-x="499" 
d="M360 1434v-185l-59 -860h-102l-60 860v185h221zM113 106q0 54 37.5 95t99.5 41t99.5 -41t37.5 -95t-37.5 -94.5t-99.5 -40.5t-99.5 40.5t-37.5 94.5z" />
    <glyph glyph-name="quotedbl" unicode="&#x22;" horiz-adv-x="610" 
d="M55 1305q-4 24 -4 51q0 44 29.5 75t77.5 31q46 0 75 -31t29 -75q0 -27 -4 -51l-70 -365h-63zM348 1356q0 44 29.5 75t77.5 31q46 0 75 -31t29 -75q0 -27 -4 -51l-70 -365h-63l-70 365q-4 24 -4 51z" />
    <glyph glyph-name="numbersign" unicode="#" horiz-adv-x="1800" 
d="M725 1401h166l-100 -361h407l100 361h166l-100 -361h293v-151h-334l-104 -377h299v-152h-340l-101 -360h-166l101 360h-408l-100 -360h-166l100 360h-295v152h336l105 377h-301v151h342zM645 512h408l104 377h-407z" />
    <glyph glyph-name="dollar" unicode="$" horiz-adv-x="1243" 
d="M246 541q-3 -162 71.5 -262.5t229.5 -124.5v475q-18 3 -127 22q-146 30 -235 128.5t-89 250.5q0 159 122 272t329 130v186h151v-188q214 -24 337.5 -158t123.5 -367h-196q-3 157 -73.5 240.5t-191.5 105.5v-448q6 -1 125 -23q164 -35 264.5 -134.5t100.5 -262.5
q0 -178 -129.5 -287.5t-360.5 -122.5v-186h-151v188q-233 24 -367.5 167.5t-130.5 398.5h197zM291 1040q0 -158 164 -196l92 -19v430q-123 -13 -189.5 -74t-66.5 -141zM698 150q77 6 139.5 30t105 74.5t42.5 120.5q0 85 -56 138.5t-143 74.5q-18 5 -51.5 11t-36.5 7v-456z
" />
    <glyph glyph-name="percent" unicode="%" horiz-adv-x="1654" 
d="M756 1081q0 -141 -101 -245.5t-249 -104.5q-153 0 -254 104t-101 246v35q0 148 98.5 254.5t256.5 106.5q150 0 250 -107.5t100 -253.5v-35zM162 -29l1112 1491h188l-1112 -1491h-188zM186 1083q0 -29 12 -64t36 -71t69 -59.5t103 -22.5q46 0 83.5 16t61.5 40.5t40.5 55
t23 57t6.5 48.5v31q0 21 -5.5 47.5t-21 59t-38.5 58.5t-62 44t-88 18q-51 0 -91.5 -18t-64 -44t-38.5 -59t-20.5 -59t-5.5 -47v-31zM899 307v35q0 148 98 254t256 106q150 0 250.5 -107t100.5 -253v-35q0 -141 -101.5 -245.5t-249.5 -104.5q-153 0 -253.5 104t-100.5 246z
M1034 309q0 -29 12 -64t35.5 -71t68.5 -59.5t103 -22.5q46 0 83.5 16t61.5 40.5t40.5 55t23 57t6.5 48.5v31q0 21 -5.5 47.5t-21 59t-38.5 58.5t-62 44t-88 18q-51 0 -91.5 -18t-63.5 -44t-38.5 -59t-20.5 -59t-5 -47v-31z" />
    <glyph glyph-name="ampersand" unicode="&#x26;" horiz-adv-x="1400" 
d="M1323 760v-172h-76q-15 0 -29.5 -4t-28 -13t-24.5 -18t-24 -26.5t-21.5 -30t-22 -36t-21 -37.5t-22 -42.5t-22.5 -42.5l328 -338h-232l-186 188q-73 -101 -171 -159t-239 -58q-88 0 -167 27.5t-140 77.5t-97 128t-36 173q0 119 73.5 219.5t211.5 169.5q-74 90 -116 172.5
t-42 169.5q0 151 110.5 252.5t280.5 101.5q157 0 266 -101t109 -253q0 -245 -319 -395l239 -246q24 45 40.5 74.5t41.5 67.5t50 61.5t56 46t69 33t81 10.5h80zM289 381q0 -111 72.5 -173.5t177.5 -62.5q92 0 157 44.5t121 125.5l-313 320q-112 -52 -163.5 -109.5
t-51.5 -144.5zM408 1112q0 -49 25 -103t50.5 -87t69.5 -82l27 12q217 101 217 260q0 80 -57.5 132t-137.5 52q-84 0 -139 -53.5t-55 -130.5z" />
    <glyph glyph-name="quotesingle" unicode="'" horiz-adv-x="313" 
d="M55 1305q-4 24 -4 51q0 44 29.5 75t77.5 31q46 0 75 -31t29 -75q0 -27 -4 -51l-70 -365h-63z" />
    <glyph glyph-name="parenleft" unicode="(" horiz-adv-x="661" 
d="M256 356q0 -524 348 -524h27v-147h-41q-241 0 -369.5 177t-128.5 476v577q0 299 128.5 476.5t369.5 177.5h41v-148h-27q-348 0 -348 -524v-541z" />
    <glyph glyph-name="parenright" unicode=")" horiz-adv-x="661" 
d="M406 897q0 524 -349 524h-26v148h41q161 0 274.5 -83.5t168 -229t54.5 -341.5v-577q0 -299 -128 -476t-369 -177h-41v147h26q349 0 349 524v541z" />
    <glyph glyph-name="asterisk" unicode="*" horiz-adv-x="806" 
d="M528 1020l156 -197l-123 -94l-158 207l-157 -207l-123 94l156 197l-228 80l51 145l224 -86v275h155v-275l224 86l51 -145z" />
    <glyph glyph-name="plus" unicode="+" horiz-adv-x="1148" 
d="M72 516v154h426v426h153v-426h426v-154h-426v-426h-153v426h-426z" />
    <glyph glyph-name="comma" unicode="," horiz-adv-x="417" 
d="M23 -61q73 0 110 39.5t37 132.5v120h166v-127q0 -157 -86.5 -235t-220.5 -78h-19v148h13z" />
    <glyph glyph-name="hyphen" unicode="-" horiz-adv-x="690" 
d="M629 666v-174h-568v174h568z" />
    <glyph glyph-name="period" unicode="." horiz-adv-x="376" 
d="M188 -29q-62 0 -99.5 40.5t-37.5 94.5t37.5 95t99.5 41t100 -41t38 -95t-38 -94.5t-100 -40.5z" />
    <glyph glyph-name="slash" unicode="/" horiz-adv-x="765" 
d="M600 1462h166l-641 -1491h-166z" />
    <glyph glyph-name="zero" unicode="0" horiz-adv-x="1204" 
d="M1153 651q0 -199 -64.5 -352t-190 -240.5t-296.5 -87.5t-296.5 87.5t-190 240.5t-64.5 352v103q0 199 64.5 352t190 240.5t296.5 87.5t296.5 -87.5t190 -240.5t64.5 -352v-103zM244 666q0 -252 95 -387.5t263 -135.5t263.5 135.5t95.5 387.5v73q0 252 -95.5 387.5
t-263.5 135.5t-263 -135.5t-95 -387.5v-73z" />
    <glyph glyph-name="one" unicode="1" horiz-adv-x="675" 
d="M543 1405v-1405h-189v1118q-53 -63 -150 -99t-204 -42v170q137 13 238 80t155 178h150z" />
    <glyph glyph-name="two" unicode="2" horiz-adv-x="1052" 
d="M51 72q0 147 67.5 252t192.5 200q41 31 181 120.5t194 137.5q119 107 119 242q0 111 -72 174.5t-190 63.5q-56 0 -106 -16t-90.5 -48.5t-64.5 -88t-24 -128.5q0 -27 4 -59h-188q-4 28 -4 61q0 196 132.5 323.5t346.5 127.5q108 0 195.5 -34t142 -92.5t83.5 -132
t29 -155.5q0 -116 -43.5 -197.5t-128.5 -156.5q-55 -49 -214 -154t-181 -121q-162 -116 -170 -223h750v-168h-961v72z" />
    <glyph glyph-name="three" unicode="3" horiz-adv-x="1093" 
d="M78 954q-3 100 23.5 182.5t73 136.5t109.5 91t131 53.5t140 16.5q122 0 223.5 -47t163.5 -137t62 -206q0 -107 -53.5 -186.5t-137.5 -122.5q40 -16 78 -44t73.5 -70t56.5 -103.5t21 -132.5q0 -84 -32.5 -158t-93.5 -131.5t-157 -91t-214 -33.5q-235 0 -373 133t-131 361
h188q-1 -87 24 -151.5t71 -100.5t102 -53t123 -17q142 0 220.5 72t78.5 176q0 112 -75 181t-210 69h-125v168h125q122 0 184 62.5t62 168.5q0 96 -73 159t-185 63q-57 0 -106.5 -16.5t-91.5 -51t-65.5 -96.5t-21.5 -144h-188z" />
    <glyph glyph-name="four" unicode="4" horiz-adv-x="1165" 
d="M1155 342h-260v-342h-188v342h-666v195l657 868h197v-895h260v-168zM231 510h476v629z" />
    <glyph glyph-name="five" unicode="5" horiz-adv-x="1097" 
d="M553 -29q-134 0 -247.5 57.5t-182.5 172t-62 264.5h189q-4 -154 83.5 -238t219.5 -84q133 0 217 78.5t84 222.5q0 142 -81.5 221.5t-215.5 79.5q-93 0 -166.5 -41t-114.5 -104l-170 68l136 737h782v-168h-637l-74 -418q41 45 119.5 72t165.5 27q185 0 318.5 -127.5
t132.5 -341.5q-1 -150 -69.5 -260t-179.5 -164t-247 -54z" />
    <glyph glyph-name="six" unicode="6" horiz-adv-x="1114" 
d="M885 1014q0 63 -27.5 117.5t-91.5 92.5t-156 38q-74 0 -134 -26.5t-101 -73t-69 -110.5t-41.5 -137.5t-14.5 -156.5q55 79 148.5 120.5t195.5 41.5q128 0 234 -57t170.5 -166.5t64.5 -250.5q0 -144 -67.5 -253.5t-179.5 -165.5t-249 -56q-116 0 -208.5 38t-162 116.5
t-107.5 207.5t-38 302q0 175 29 311.5t79.5 227.5t123.5 150t156.5 84.5t183.5 25.5q194 0 323.5 -121t126.5 -299h-188zM268 446q0 -142 85 -222.5t214 -80.5t215 80t86 223t-86 222.5t-215 79.5t-214 -79t-85 -223z" />
    <glyph glyph-name="seven" unicode="7" horiz-adv-x="929" 
d="M162 0q110 391 238.5 677t320.5 560h-711v168h940v-154q-202 -256 -328.5 -540t-238.5 -711h-221z" />
    <glyph glyph-name="eight" unicode="8" horiz-adv-x="1120" 
d="M561 -29q-236 0 -373 118.5t-137 303.5q0 116 59 205t158 145q-82 48 -129 123.5t-47 173.5q0 169 129 281.5t340 112.5q210 0 338.5 -112.5t128.5 -281.5q0 -98 -46.5 -173.5t-127.5 -123.5q99 -55 157 -144.5t58 -205.5q0 -185 -137 -303.5t-371 -118.5zM246 397
q0 -111 84 -182.5t231 -71.5q145 0 229 71.5t84 182.5q0 110 -83.5 180t-229.5 70q-147 0 -231 -70t-84 -180zM287 1038q0 -98 71 -158.5t203 -60.5q131 0 202 61t71 158q0 98 -72 161t-201 63q-130 0 -202 -63t-72 -161z" />
    <glyph glyph-name="nine" unicode="9" horiz-adv-x="1114" 
d="M229 391q0 -63 27.5 -117.5t91.5 -92.5t156 -38q74 0 134 26.5t101 73t69 110.5t41.5 137.5t14.5 156.5q-55 -79 -148.5 -120.5t-195.5 -41.5q-128 0 -234 56.5t-170.5 166t-64.5 250.5q0 144 67.5 254t179.5 166t249 56q116 0 208.5 -38t162 -116.5t107.5 -207.5
t38 -302q0 -175 -29 -311.5t-79 -227.5t-123 -150t-156.5 -84.5t-183.5 -25.5q-194 0 -324 121t-127 299h188zM246 958q0 -143 85.5 -222t215.5 -79q129 0 214 79t85 222t-85 223.5t-214 80.5t-215 -80t-86 -224z" />
    <glyph glyph-name="colon" unicode=":" horiz-adv-x="378" 
d="M188 -29q-62 0 -99.5 40.5t-37.5 94.5t37.5 95t99.5 41t100 -41t38 -95t-38 -94.5t-100 -40.5zM53 907q0 54 37.5 94.5t99.5 40.5t100 -40.5t38 -94.5t-38 -94.5t-100 -40.5t-99.5 40.5t-37.5 94.5z" />
    <glyph glyph-name="semicolon" unicode=";" horiz-adv-x="428" 
d="M23 -106q73 0 110 39.5t37 132.5v165h166v-172q0 -157 -86.5 -235t-220.5 -78h-19v148h13zM102 907q0 54 38 94.5t100 40.5t99.5 -40.5t37.5 -94.5t-37.5 -94.5t-99.5 -40.5t-100 40.5t-38 94.5z" />
    <glyph glyph-name="less" unicode="&#x3c;" horiz-adv-x="1050" 
d="M72 643l907 430v-174l-690 -324l690 -321v-174l-907 430v133z" />
    <glyph glyph-name="equal" unicode="=" horiz-adv-x="1175" 
d="M72 330v153h1032v-153h-1032zM72 705v153h1032v-153h-1032z" />
    <glyph glyph-name="greater" unicode="&#x3e;" horiz-adv-x="1050" 
d="M979 643v-133l-907 -430v174l690 321l-690 324v174z" />
    <glyph glyph-name="question" unicode="?" horiz-adv-x="1067" 
d="M72 1063q1 125 66.5 217t172 137t238.5 45q199 0 317.5 -87.5t118.5 -225.5q0 -125 -72.5 -193t-205.5 -98q-49 -12 -133.5 -25t-133.5 -24q-61 -13 -92 -48.5t-31 -84.5q0 -64 50.5 -101.5t154.5 -37.5q120 0 181.5 48.5t64.5 149.5h180q0 -69 -25.5 -131t-75.5 -112.5
t-133.5 -80.5t-189.5 -30q-177 0 -282 82t-107 213q-1 115 73 187.5t193 99.5q51 11 138 25t139 26q72 16 99.5 50t27.5 89q0 62 -63.5 108t-186.5 46q-151 0 -224.5 -65.5t-78.5 -178.5h-180zM397 106q0 54 38 95t100 41t99.5 -41t37.5 -95t-37.5 -94.5t-99.5 -40.5
t-100 40.5t-38 94.5z" />
    <glyph glyph-name="at" unicode="@" horiz-adv-x="1951" 
d="M1534 129q-86 0 -161 41t-113 123q-57 -74 -156.5 -119t-220.5 -45q-155 0 -248.5 72t-93.5 213q0 117 76.5 192t220.5 92q57 6 135 13t116.5 11t76.5 12.5t55 21.5v28q0 91 -69 145t-169 54q-109 0 -177 -53t-71 -152h-180q4 166 124 268.5t306 102.5q112 0 204 -42
t150 -128t58 -203v-297q0 -92 38 -139t109 -47q73 0 112.5 49.5t39.5 165.5v330q0 248 -137 385t-385 137h-375q-249 0 -396 -138.5t-147 -383.5v-398q0 -247 138 -384.5t384 -137.5h817v-164h-809q-321 0 -507.5 186.5t-186.5 508.5v380q0 322 186.5 508.5t507.5 186.5h379
q323 0 509 -186t186 -509v-333q0 -181 -85.5 -274t-240.5 -93zM721 420q0 -60 48.5 -94.5t127.5 -34.5q126 0 225 72.5t99 171.5v59q-12 -9 -32 -15t-56 -10.5t-67 -7t-92 -6.5t-104 -8q-149 -14 -149 -127z" />
    <glyph glyph-name="A" unicode="A" horiz-adv-x="1361" 
d="M0 0l565 1434h199l598 -1434h-207l-147 367h-666l-139 -367h-203zM408 539h530l-272 678z" />
    <glyph glyph-name="B" unicode="B" horiz-adv-x="1259" 
d="M113 0v1434h620q88 0 166 -25.5t137.5 -73t94 -122t34.5 -166.5q0 -107 -54 -185.5t-138 -120.5q104 -40 169.5 -126t65.5 -214q0 -93 -39 -170t-104 -127t-148.5 -77t-175.5 -27h-628zM307 172h420q130 0 206.5 56.5t76.5 181.5q0 233 -283 233h-420v-471zM307 813h395
q265 0 265 223q0 226 -265 226h-395v-449z" />
    <glyph glyph-name="C" unicode="C" horiz-adv-x="1472" 
d="M1225 862q-22 190 -148 306t-329 116q-214 0 -355 -152.5t-141 -414.5q0 -132 38.5 -240t105.5 -179t156.5 -109.5t192.5 -38.5q209 0 333.5 116t146.5 316h196q-10 -133 -61 -245t-136 -193.5t-207.5 -127t-268.5 -45.5q-201 0 -360.5 96t-248 266.5t-88.5 385.5
q0 161 52 299t144 235.5t222.5 153t282.5 55.5q140 0 261 -46t206.5 -126t138.5 -190t63 -238h-196z" />
    <glyph glyph-name="D" unicode="D" horiz-adv-x="1349" 
d="M618 1434q310 0 495 -190t185 -523q0 -334 -185.5 -527.5t-494.5 -193.5h-505v1434h505zM307 172h297q223 0 358.5 140t135.5 405t-135.5 405t-358.5 140h-297v-1090z" />
    <glyph glyph-name="E" unicode="E" horiz-adv-x="1118" 
d="M1087 172v-172h-524q-222 0 -356.5 131t-134.5 361v450q0 230 134.5 361t356.5 131h510v-172h-479q-160 0 -244 -84t-84 -244v-115h729v-172h-729v-147q0 -160 84 -244t244 -84h493z" />
    <glyph glyph-name="F" unicode="F" horiz-adv-x="1077" 
d="M92 942q0 230 135 361t357 131h483v-172h-453q-160 0 -243.5 -84t-83.5 -244v-115h696v-172h-696v-647h-195v942z" />
    <glyph glyph-name="G" unicode="G" horiz-adv-x="1490" 
d="M1219 752q98 0 150 -52.5t52 -150.5v-549h-129l-32 193q-77 -99 -206.5 -160.5t-297.5 -61.5q-205 0 -366 96t-250 266.5t-89 385.5q0 161 54 299.5t149 236t228.5 152.5t287.5 55q140 0 259.5 -43t201.5 -117t133.5 -170t65.5 -204h-197q-17 73 -52.5 135t-91.5 113
t-140 79.5t-187 28.5q-105 0 -197.5 -38.5t-162 -109.5t-110 -179t-40.5 -240q0 -265 143.5 -416t378.5 -151q197 0 332 124.5t135 305.5h-547v172h525z" />
    <glyph glyph-name="H" unicode="H" horiz-adv-x="1435" 
d="M113 0v1434h194v-615h821v615h195v-1434h-195v647h-821v-647h-194z" />
    <glyph glyph-name="I" unicode="I" horiz-adv-x="419" 
d="M307 1434v-1434h-194v1434h194z" />
    <glyph glyph-name="J" unicode="J" horiz-adv-x="761" 
d="M0 0v172h55q224 0 327 106.5t103 333.5v822h195v-842q0 -276 -153 -434t-457 -158h-70z" />
    <glyph glyph-name="K" unicode="K" horiz-adv-x="1249" 
d="M307 0h-194v1434h194v-711l709 711h254l-574 -582q102 -73 195.5 -178.5t164.5 -221t123.5 -230.5t84.5 -222h-207q-55 200 -188.5 395t-307.5 320l-254 -256v-459z" />
    <glyph glyph-name="L" unicode="L" horiz-adv-x="1007" 
d="M1028 172v-172h-444q-222 0 -357 131t-135 361v942h195v-934q0 -160 83.5 -244t243.5 -84h414z" />
    <glyph glyph-name="M" unicode="M" horiz-adv-x="1730" 
d="M113 0v1434h264l493 -1184l490 1184h258v-1434h-195v1094l-458 -1094h-193l-465 1100v-1100h-194z" />
    <glyph glyph-name="N" unicode="N" horiz-adv-x="1390" 
d="M1278 1434v-1434h-191l-780 1188v-1188h-194v1434h258l712 -1084v1084h195z" />
    <glyph glyph-name="O" unicode="O" horiz-adv-x="1511" 
d="M756 -29q-201 0 -362.5 96t-252 267t-90.5 385q0 160 53 298.5t146 236t224 153t282 55.5q202 0 362.5 -94.5t251 -264.5t90.5 -384t-90.5 -385t-251.5 -267t-362 -96zM252 717q0 -131 40 -239.5t109 -179.5t160.5 -109.5t194.5 -38.5t194.5 38.5t160.5 109.5t109 179.5
t40 239.5t-40 239.5t-109 179.5t-160.5 109.5t-194.5 38.5t-194.5 -38.5t-160.5 -109.5t-109 -179.5t-40 -239.5z" />
    <glyph glyph-name="P" unicode="P" horiz-adv-x="1202" 
d="M113 0v1434h628q123 0 225.5 -54t164 -155t61.5 -230t-61.5 -230t-164 -154.5t-225.5 -53.5h-434v-557h-194zM307 729h410q122 0 199 68t77 196q0 129 -77.5 199t-198.5 70h-410v-533z" />
    <glyph glyph-name="Q" unicode="Q" horiz-adv-x="1574" 
d="M834 578q59 0 110.5 -15t94.5 -44.5t73 -57.5t68 -70q80 135 80 326q0 131 -40 239.5t-109 179.5t-160.5 109.5t-194.5 38.5t-194.5 -38.5t-160.5 -109.5t-109 -179.5t-40 -239.5t40 -239.5t109 -179.5t160.5 -109.5t194.5 -38.5q173 0 303 100q-67 78 -121.5 117
t-128.5 39h-82l2 172h105zM51 719q0 160 53 298.5t146 236t224 153t282 55.5q202 0 362.5 -94.5t251 -264.5t90.5 -384q0 -276 -147 -475q79 -72 170 -72h82v-172h-107q-148 0 -274 113q-185 -142 -428 -142q-201 0 -362.5 96t-252 267t-90.5 385z" />
    <glyph glyph-name="R" unicode="R" horiz-adv-x="1296" 
d="M1051 0q-29 199 -136 371t-249 252h-359v-623h-194v1434h641q198 0 328 -106t130 -288q0 -86 -28.5 -156t-75.5 -115t-97.5 -73t-105.5 -41q127 -90 219 -270t131 -385h-204zM307 795h420q287 0 287 233q0 121 -77 177.5t-210 56.5h-420v-467z" />
    <glyph glyph-name="S" unicode="S" horiz-adv-x="1308" 
d="M246 555q-3 -200 105.5 -304t330.5 -104q73 0 136.5 13t117 39.5t84.5 73.5t31 110q0 91 -56 145t-153 74q-68 14 -203 33t-195 31q-153 30 -242 129t-89 256q0 178 142.5 294.5t387.5 116.5q264 0 421 -142t157 -415h-197q-1 103 -31 178.5t-83.5 119.5t-120 64.5
t-148.5 20.5q-158 0 -246 -66t-88 -161q0 -167 172 -203q64 -14 199.5 -32t200.5 -31q173 -34 273.5 -134.5t100.5 -269.5q0 -195 -151.5 -307.5t-425.5 -112.5q-141 0 -254.5 34t-198.5 103.5t-130.5 183t-43.5 263.5h197z" />
    <glyph glyph-name="T" unicode="T" horiz-adv-x="1161" 
d="M1151 1262h-473v-1262h-195v1262h-473v172h1141v-172z" />
    <glyph glyph-name="U" unicode="U" horiz-adv-x="1306" 
d="M92 520v914h195v-902q0 -79 21 -144t56.5 -108.5t83 -73t99 -43t106.5 -13.5q70 0 133 22t116.5 66t85.5 120t32 174v902h194v-914q0 -152 -65 -275.5t-194 -198.5t-302 -75t-302 75t-194 198.5t-65 275.5z" />
    <glyph glyph-name="V" unicode="V" horiz-adv-x="1273" 
d="M1284 1434l-547 -1434h-215l-532 1434h207l436 -1192l452 1192h199z" />
    <glyph glyph-name="W" unicode="W" horiz-adv-x="1992" 
d="M453 0l-433 1434h209l351 -1174l315 1174h201l329 -1178l342 1178h205l-422 -1434h-243l-310 1092l-299 -1092h-245z" />
    <glyph glyph-name="X" unicode="X" horiz-adv-x="1286" 
d="M1296 0h-245l-414 575l-406 -575h-241l528 741l-498 693h234l395 -545l381 545h230l-492 -707z" />
    <glyph glyph-name="Y" unicode="Y" horiz-adv-x="1234" 
d="M528 0v512l-548 922h213l432 -738l428 738h202l-532 -916v-518h-195z" />
    <glyph glyph-name="Z" unicode="Z" horiz-adv-x="1167" 
d="M1137 172v-172h-1096v150l825 1112h-786v172h1022v-164l-813 -1098h848z" />
    <glyph glyph-name="bracketleft" unicode="[" horiz-adv-x="528" 
d="M266 -100q0 -32 18 -50t50 -18h153v-147h-168q-99 0 -158 52.5t-59 147.5v1483q0 95 59 148t158 53h168v-148h-153q-32 0 -50 -17.5t-18 -49.5v-1454z" />
    <glyph glyph-name="backslash" unicode="\" horiz-adv-x="765" 
d="M125 1462l641 -1491h-166l-641 1491h166z" />
    <glyph glyph-name="bracketright" unicode="]" horiz-adv-x="528" 
d="M262 1354q0 67 -67 67h-154v148h168q99 0 158 -53t59 -148v-1483q0 -95 -59 -147.5t-158 -52.5h-168v147h154q32 0 49.5 18t17.5 50v1454z" />
    <glyph glyph-name="asciicircum" unicode="^" horiz-adv-x="991" 
d="M432 1434h131l398 -754h-175l-290 551l-291 -551h-174z" />
    <glyph glyph-name="grave" unicode="`" horiz-adv-x="532" 
d="M336 1462l102 -284h-123l-219 284h240z" />
    <glyph glyph-name="a" unicode="a" horiz-adv-x="1165" 
d="M436 -29q-165 0 -270 80t-105 232q0 122 88 211t236 104q56 6 128 12.5t113 10t85 9.5t70.5 14t41.5 20v32q0 107 -77.5 169.5t-198.5 62.5q-126 0 -204 -62t-81 -178h-182q3 178 137 292t334 114q120 0 221 -46.5t165.5 -140.5t66.5 -219v-401q0 -127 126 -127h25v-160
h-55q-86 0 -152 38t-98 116q-56 -85 -165.5 -134t-248.5 -49zM248 289q0 -74 54.5 -115t148.5 -41q151 0 261.5 83t110.5 202v84q-13 -10 -35 -16.5t-64 -12t-74.5 -8.5t-106 -9t-119.5 -10q-176 -17 -176 -157z" />
    <glyph glyph-name="b" unicode="b" horiz-adv-x="1173" 
d="M82 512v922h180v-504q129 164 361 164q99 0 188.5 -38.5t159 -108.5t110.5 -178.5t41 -238.5q0 -131 -41.5 -238.5t-113 -176.5t-165.5 -106.5t-200 -37.5q-234 0 -377 150.5t-143 390.5zM262 532q0 -188 95.5 -291.5t244.5 -103.5q141 0 235.5 105t94.5 286
q0 194 -88 297t-242 103q-68 0 -128.5 -24t-108 -71.5t-75.5 -124.5t-28 -176z" />
    <glyph glyph-name="c" unicode="c" horiz-adv-x="1128" 
d="M580 -29q-108 0 -204 38.5t-168.5 109t-114.5 178t-42 238.5q0 130 42.5 237t115 176.5t167.5 107.5t202 38q135 0 241 -44.5t176 -140.5t82 -233h-182q-39 252 -322 252q-146 0 -240.5 -100.5t-94.5 -295.5q0 -190 95 -292.5t242 -102.5q127 0 213.5 73t106.5 210h182
q-15 -210 -153.5 -329.5t-343.5 -119.5z" />
    <glyph glyph-name="d" unicode="d" horiz-adv-x="1173" 
d="M1092 512q0 -240 -143.5 -390.5t-377.5 -150.5q-106 0 -200 37.5t-165.5 106.5t-113 176.5t-41.5 238.5q0 130 41 238.5t110.5 178.5t159.5 108.5t189 38.5q231 0 360 -164v504h181v-922zM242 528q0 -181 94 -286t235 -105q149 0 244.5 103.5t95.5 291.5q0 99 -28 176
t-75.5 124.5t-108 71.5t-128.5 24q-154 0 -241.5 -103t-87.5 -297z" />
    <glyph glyph-name="e" unicode="e" horiz-adv-x="1122" 
d="M578 -29q-108 0 -202.5 36t-167.5 104t-115 177.5t-42 246.5q0 258 146.5 410t373.5 149q124 -1 222 -47t157 -121.5t90 -167.5t31 -193q0 -43 -6 -90h-825q11 -168 106 -253t236 -85q121 0 196.5 50.5t102.5 140.5h184q-28 -159 -158.5 -258t-328.5 -99zM244 631h637
q-16 151 -102 224t-212 73q-133 0 -218.5 -72.5t-104.5 -224.5z" />
    <glyph glyph-name="f" unicode="f" horiz-adv-x="675" 
d="M205 0v905h-185v160h185q0 74 20.5 135.5t56 104.5t84 72.5t103.5 43t115 13.5h143v-160h-139q-96 0 -149.5 -47.5t-53.5 -161.5h324v-160h-324v-905h-180z" />
    <glyph glyph-name="g" unicode="g" horiz-adv-x="1150" 
d="M573 -356q-218 0 -349 91.5t-138 264.5h182q11 -190 305 -190q64 0 118 14t100 45t72 86.5t26 130.5v119q-60 -75 -152 -119.5t-194 -44.5q-92 0 -177.5 35t-154 99t-109.5 165.5t-41 224.5q0 126 42.5 228t114.5 167t163.5 99.5t191.5 34.5q222 0 359 -143.5t137 -370.5
v-504q0 -108 -41 -192.5t-111 -135.5t-157.5 -77.5t-186.5 -26.5zM254 563q0 -167 92.5 -261.5t218.5 -94.5q63 0 120 21.5t104.5 64t75.5 113.5t28 161q0 177 -90.5 269t-229.5 92q-140 0 -229.5 -93t-89.5 -272z" />
    <glyph glyph-name="h" unicode="h" horiz-adv-x="1107" 
d="M92 0v1434h180v-531q60 95 154 143t192 48q111 0 203.5 -50t148.5 -146.5t56 -219.5v-678h-180v618q0 162 -73 237t-185 75q-144 0 -230 -102.5t-86 -288.5v-539h-180z" />
    <glyph glyph-name="i" unicode="i" horiz-adv-x="387" 
d="M285 1065v-1065h-181v1065h181zM72 1321q0 51 36.5 87t86.5 36q48 0 84 -36.5t36 -86.5q0 -52 -36 -88.5t-84 -36.5q-50 0 -86.5 36.5t-36.5 88.5z" />
    <glyph glyph-name="j" unicode="j" horiz-adv-x="419" 
d="M-106 -328h-58v160h31q137 0 203.5 62.5t66.5 211.5v959h180v-961q0 -210 -108.5 -321t-314.5 -111zM104 1321q0 51 36.5 87t86.5 36q48 0 84.5 -36.5t36.5 -86.5q0 -52 -36.5 -88.5t-84.5 -36.5q-50 0 -86.5 36.5t-36.5 88.5z" />
    <glyph glyph-name="k" unicode="k" horiz-adv-x="1007" 
d="M272 0h-180v1434h180v-887l521 518h235l-430 -430q150 -116 261.5 -283.5t162.5 -351.5h-186q-45 152 -139.5 286.5t-219.5 229.5l-205 -205v-311z" />
    <glyph glyph-name="l" unicode="l" horiz-adv-x="524" 
d="M467 0q-159 0 -272 112.5t-113 288.5v1033h180v-1024q0 -114 66 -182t172 -68h24v-160h-57z" />
    <glyph glyph-name="m" unicode="m" horiz-adv-x="1738" 
d="M82 625q0 115 35.5 206t96.5 147.5t139.5 86t168.5 29.5q114 0 207.5 -54t142.5 -151q48 94 148 149.5t203 55.5q90 0 167.5 -29.5t137.5 -86.5t94.5 -147.5t34.5 -205.5v-625h-180v586q0 177 -67 260.5t-187 83.5t-190 -85.5t-70 -258.5v-586h-181v586q0 173 -70 258.5
t-190 85.5q-121 0 -190.5 -83.5t-69.5 -260.5v-586h-180v625z" />
    <glyph glyph-name="n" unicode="n" horiz-adv-x="1110" 
d="M555 1094q87 0 169 -30t151 -88t111 -154.5t42 -217.5v-604h-180v571q0 180 -78.5 269.5t-214.5 89.5t-214.5 -90.5t-78.5 -270.5v-569h-180v604q0 121 42 217.5t111 154.5t151 88t169 30z" />
    <glyph glyph-name="o" unicode="o" horiz-adv-x="1159" 
d="M1108 535q0 -130 -42.5 -238t-115.5 -178.5t-168 -109t-202 -38.5t-202.5 38.5t-168 108.5t-115.5 178t-43 239q0 130 43 237t115.5 176.5t168 107.5t202.5 38t202 -37.5t168 -107t115.5 -176.5t42.5 -238zM238 532q0 -189 98 -292t244 -103t244 103t98 292
q0 195 -97 295.5t-245 100.5t-245 -100.5t-97 -295.5z" />
    <glyph glyph-name="p" unicode="p" horiz-adv-x="1173" 
d="M82 553q0 111 35 209t100 172t164.5 117t220.5 43q107 0 201 -38.5t165 -109t112.5 -178t41.5 -238.5t-40.5 -238.5t-109.5 -176.5t-158.5 -106.5t-188.5 -37.5q-112 0 -209.5 45t-157.5 123v-467h-176v881zM262 532q0 -193 95 -294t245 -101q141 0 235.5 105t94.5 286
q0 194 -88 297t-242 103q-143 0 -241.5 -104t-98.5 -292z" />
    <glyph glyph-name="q" unicode="q" horiz-adv-x="1173" 
d="M1092 553v-881h-177v467q-60 -78 -157 -123t-209 -45q-99 0 -188.5 37.5t-158.5 106.5t-110 176.5t-41 238.5t41.5 238.5t112.5 178t165 109t201 38.5q161 0 281 -74.5t180 -196t60 -270.5zM242 528q0 -181 94 -286t235 -105q150 0 245 101t95 294q0 188 -98.5 292
t-241.5 104q-154 0 -241.5 -103t-87.5 -297z" />
    <glyph glyph-name="r" unicode="r" horiz-adv-x="653" 
d="M82 600q0 98 26.5 179t70.5 135.5t103.5 91.5t123 54t131.5 17h106v-176h-111q-126 0 -198 -81.5t-72 -233.5v-586h-180v600z" />
    <glyph glyph-name="s" unicode="s" horiz-adv-x="1050" 
d="M233 393q-3 -130 74 -195t236 -65q258 0 258 158q0 58 -32.5 92t-100.5 49q-49 11 -151 22.5t-130 16.5q-129 23 -207 100.5t-78 202.5q0 137 109.5 228.5t302.5 91.5q207 0 330.5 -111.5t126.5 -294.5h-183q-8 246 -276 246q-110 0 -170.5 -41t-60.5 -113
q0 -113 127 -135q48 -9 140 -20t130 -17q143 -26 227 -105.5t84 -207.5q0 -144 -117.5 -234t-332.5 -90q-78 0 -146.5 12.5t-133 43.5t-110 78t-72.5 121t-26 167h182z" />
    <glyph glyph-name="t" unicode="t" horiz-adv-x="653" 
d="M592 0q-82 0 -157 28t-133.5 79t-93 130.5t-34.5 174.5v493h-194v160h194v240l180 98v-338h275v-160h-275v-483q0 -117 70.5 -189.5t187.5 -72.5h31v-160h-51z" />
    <glyph glyph-name="u" unicode="u" horiz-adv-x="1089" 
d="M545 -29q-66 0 -130 15t-125 50t-106.5 86.5t-73.5 129t-28 172.5v641h180v-604q0 -170 75.5 -248t207.5 -78q282 0 282 326v604h181v-641q0 -95 -28 -172.5t-73.5 -129t-106.5 -86.5t-125 -50t-130 -15z" />
    <glyph glyph-name="v" unicode="v" horiz-adv-x="1028" 
d="M838 1065h190l-422 -1065h-192l-414 1065h197l319 -836z" />
    <glyph glyph-name="w" unicode="w" horiz-adv-x="1630" 
d="M383 0l-352 1065h196l252 -793l260 793h160l264 -799l246 799h190l-344 -1065h-178l-256 786l-256 -786h-182z" />
    <glyph glyph-name="x" unicode="x" horiz-adv-x="1007" 
d="M0 0l393 547l-375 518h220l270 -375l268 375h213l-373 -522l392 -543h-222l-286 399l-285 -399h-215z" />
    <glyph glyph-name="y" unicode="y" horiz-adv-x="1054" 
d="M115 -328h-60v160h31q147 0 231 50.5t123 156.5l-440 1026h199l338 -801l333 801h195l-449 -1065q-69 -163 -187.5 -245.5t-313.5 -82.5z" />
    <glyph glyph-name="z" unicode="z" horiz-adv-x="976" 
d="M936 160v-160h-885v129l635 776h-600v160h823v-147l-622 -758h649z" />
    <glyph glyph-name="braceleft" unicode="{" horiz-adv-x="675" 
d="M236 1206q0 164 100 263.5t237 99.5h62v-148h-25q-95 0 -149.5 -55t-54.5 -160v-297q0 -122 -60 -190t-153 -76v-33q92 -8 152.5 -75t60.5 -185v-303q0 -105 54.5 -160t149.5 -55h25v-147h-62q-137 0 -237 99.5t-100 262.5v307q0 73 -22.5 98t-80.5 31l-82 11v266l82 10
q31 3 47.5 8t30.5 18.5t19.5 38t5.5 64.5v307z" />
    <glyph glyph-name="bar" unicode="|" horiz-adv-x="368" 
d="M102 1659h164v-1905h-164v1905z" />
    <glyph glyph-name="braceright" unicode="}" horiz-adv-x="675" 
d="M440 899q0 -40 5.5 -64.5t19.5 -38t30.5 -18.5t47.5 -8l82 -10v-266l-82 -11q-58 -6 -80.5 -31t-22.5 -98v-307q0 -163 -100.5 -262.5t-237.5 -99.5h-61v147h25q95 0 149.5 55t54.5 160v303q0 118 60.5 185t152.5 75v33q-93 8 -153 76t-60 190v297q0 105 -54.5 160
t-149.5 55h-25v148h61q137 0 237.5 -100t100.5 -263v-307z" />
    <glyph glyph-name="asciitilde" unicode="~" horiz-adv-x="1173" 
d="M72 516q30 92 109 156.5t186 64.5q58 0 123 -22.5t112 -49t103.5 -49t99.5 -22.5q63 0 101.5 37.5t54.5 83.5l141 -45q-30 -93 -108.5 -157t-186.5 -64q-58 0 -123 22.5t-112 49t-103.5 49t-99.5 22.5q-63 0 -101.5 -37.5t-54.5 -83.5z" />
    <glyph glyph-name="uni00A0" unicode="&#xa0;" horiz-adv-x="481" 
 />
    <glyph glyph-name="exclamdown" unicode="&#xa1;" horiz-adv-x="501" 
d="M252 1106q-62 0 -100.5 -40t-38.5 -95q0 -54 38.5 -93.5t100.5 -39.5q61 0 99 40t38 93q0 55 -38 95t-99 40zM160 -356h184v168l-31 841h-123l-30 -841v-168z" />
    <glyph glyph-name="cent" unicode="&#xa2;" horiz-adv-x="1099" 
d="M487 1434h152v-183q171 -18 280.5 -116.5t129.5 -272.5h-183q-39 192 -227 221v-747q90 18 149.5 81t77.5 169h183q-17 -181 -128 -290t-282 -130v-166h-152v168q-191 26 -313.5 169t-122.5 374q0 229 123 371.5t313 168.5v183zM238 709q0 -159 68 -254.5t181 -118.5v747
q-113 -23 -181 -116t-68 -258z" />
    <glyph glyph-name="sterling" unicode="&#xa3;" horiz-adv-x="1224" 
d="M979 913q8 147 -72.5 247t-232.5 100q-77 0 -138.5 -23.5t-99.5 -63t-58 -90t-20 -106.5q0 -99 64 -250h452l-36 -156h-357q21 -75 21 -139q0 -165 -107 -258h391q103 0 153.5 56.5t47.5 140.5h187q6 -97 -22 -170.5t-82 -116t-122 -63.5t-149 -21h-707v154
q34 10 58.5 20t58 30.5t54.5 46t36.5 66.5t15.5 91q0 75 -30 163h-179v156h117q-61 152 -61 252q0 67 20 132t62.5 123.5t102.5 103t145 70.5t184 26q234 0 368.5 -144t120.5 -377h-186z" />
    <glyph glyph-name="currency" unicode="&#xa4;" horiz-adv-x="1286" 
d="M997 827q68 -104 68 -243q0 -135 -68 -248l207 -207l-108 -109l-207 207q-110 -75 -246 -75t-246 75l-207 -207l-108 109l207 207q-68 113 -68 248q0 139 68 243l-207 207l108 109l205 -205q110 78 248 78t248 -78l205 205l108 -109zM377 584q0 -126 76 -201.5t190 -75.5
t190 75.5t76 201.5t-76 201t-190 75t-190 -75t-76 -201z" />
    <glyph glyph-name="yen" unicode="&#xa5;" horiz-adv-x="1206" 
d="M514 0v350h-389v152h387l-68 114h-319v152h229l-374 637h213l417 -723l414 723h203l-367 -637h254v-152h-340l-65 -112v-2h405v-152h-405v-350h-195z" />
    <glyph glyph-name="brokenbar" unicode="&#xa6;" horiz-adv-x="368" 
d="M102 1659h164v-766h-164v766zM102 -246v766h164v-766h-164z" />
    <glyph glyph-name="section" unicode="&#xa7;" horiz-adv-x="1251" 
d="M82 156h197q3 -168 101 -253t245 -85t229 56.5t82 148.5q0 76 -45.5 115.5t-134.5 70.5q-63 22 -193 48.5t-176 41.5q-63 20 -114.5 48.5t-95.5 69t-68.5 96.5t-24.5 122q0 136 119 215q-82 92 -82 223q0 173 139 281t369 108q156 0 277 -58t192 -175.5t71 -278.5h-196
q-3 168 -101 253t-245 85t-229.5 -56.5t-82.5 -148.5q0 -40 13.5 -70.5t40.5 -52t55.5 -35t71.5 -28.5q63 -22 192.5 -48.5t175.5 -41.5q63 -20 114.5 -48.5t95.5 -69t68.5 -96.5t24.5 -122q0 -137 -118 -215q81 -91 81 -223q0 -173 -138.5 -281t-368.5 -108q-156 0 -277 58
t-192.5 175.5t-71.5 278.5zM287 645q0 -55 35 -89.5t104 -59.5q55 -20 183 -45.5t184 -44.5q35 -11 112 -46q60 35 60 101q0 55 -35 89.5t-105 59.5q-55 20 -182.5 45.5t-183.5 44.5q-45 14 -113 45q-59 -35 -59 -100z" />
    <glyph glyph-name="dieresis" unicode="&#xa8;" horiz-adv-x="813" 
d="M223 1198q-50 0 -85.5 35.5t-35.5 87.5q0 51 35.5 86t85.5 35q48 0 83.5 -35.5t35.5 -85.5q0 -52 -35.5 -87.5t-83.5 -35.5zM471 1321q0 51 35.5 86t85.5 35q48 0 83.5 -35.5t35.5 -85.5q0 -52 -35.5 -87.5t-83.5 -35.5q-50 0 -85.5 35.5t-35.5 87.5z" />
    <glyph glyph-name="copyright" unicode="&#xa9;" horiz-adv-x="1622" 
d="M1530 520q0 -226 -147 -373t-373 -147h-398q-226 0 -373 147t-147 373v393q0 226 147 373.5t373 147.5h398q226 0 373 -147.5t147 -373.5v-393zM231 528q0 -177 106.5 -283t283.5 -106h380q177 0 283.5 106t106.5 283v377q0 177 -106.5 283t-283.5 106h-380
q-177 0 -283.5 -106t-106.5 -283v-377zM420 717q0 183 109.5 301.5t285.5 118.5q161 0 264.5 -96t114.5 -242h-141q-12 96 -75 151.5t-165 55.5q-108 0 -179 -77.5t-71 -211.5q0 -135 71 -212t179 -77q104 0 166 57.5t74 157.5h141q-11 -152 -113 -249t-268 -97
q-173 0 -283 119t-110 301z" />
    <glyph glyph-name="ordfeminine" unicode="&#xaa;" horiz-adv-x="661" 
d="M252 801q-95 0 -153 44t-58 130q0 66 46 115t132 59q29 3 67.5 7t58.5 6t42.5 5t36 7.5t22.5 11.5v16q0 47 -39 79t-96 32q-58 0 -98 -34.5t-41 -90.5h-121q1 103 75 169t187 66q105 0 179 -61.5t75 -165.5v-199q0 -69 68 -69h14v-111h-31q-111 0 -151 76
q-31 -42 -88 -67t-127 -25zM164 977q0 -32 25.5 -49t70.5 -17q76 0 131 41.5t55 98.5v26q-10 -6 -27.5 -9.5t-36.5 -5t-58 -5.5t-74 -8q-86 -10 -86 -72z" />
    <glyph glyph-name="guillemotleft" unicode="&#xab;" horiz-adv-x="956" 
d="M217 561l309 -444h-184l-311 444l311 445h184zM430 561l311 445h185l-310 -445l310 -444h-185z" />
    <glyph glyph-name="logicalnot" unicode="&#xac;" horiz-adv-x="1175" 
d="M1104 829v-524h-154v371h-878v153h1032z" />
    <glyph glyph-name="uni00AD" unicode="&#xad;" horiz-adv-x="552" 
d="M492 672v-187h-431v187h431z" />
    <glyph glyph-name="registered" unicode="&#xae;" horiz-adv-x="1622" 
d="M1016 311q-15 112 -69.5 200.5t-133.5 131.5h-160v-332h-139v811h356q113 0 191 -61.5t78 -165.5q0 -93 -50 -145t-120 -68q69 -50 119.5 -153t72.5 -218h-145zM92 520v393q0 226 147 373.5t373 147.5h398q226 0 373 -147.5t147 -373.5v-393q0 -226 -147 -373t-373 -147
h-398q-226 0 -373 147t-147 373zM231 528q0 -177 106.5 -283t283.5 -106h380q177 0 283.5 106t106.5 283v377q0 177 -106.5 283t-283.5 106h-380q-177 0 -283.5 -106t-106.5 -283v-377zM653 772h203q139 0 139 111q0 55 -39 82.5t-100 27.5h-203v-221z" />
    <glyph glyph-name="macron" unicode="&#xaf;" horiz-adv-x="790" 
d="M688 1386v-133h-586v133h586z" />
    <glyph glyph-name="degree" unicode="&#xb0;" horiz-adv-x="733" 
d="M367 786q-128 0 -222 89t-94 235t94 235t222 89t221.5 -89t93.5 -235t-93.5 -235t-221.5 -89zM199 1110q0 -81 48.5 -130.5t119.5 -49.5t119.5 49.5t48.5 130.5t-48.5 130.5t-119.5 49.5t-119.5 -49.5t-48.5 -130.5z" />
    <glyph glyph-name="plusminus" unicode="&#xb1;" horiz-adv-x="1079" 
d="M72 0v154h936v-154h-936zM72 612v154h391v330h153v-330h392v-154h-392v-329h-153v329h-391z" />
    <glyph glyph-name="uni00B2" unicode="&#xb2;" horiz-adv-x="704" 
d="M57 631q0 87 42.5 149.5t119.5 120.5q30 23 115.5 77.5t116.5 80.5q34 31 47.5 62t13.5 73q0 56 -41 93.5t-106 37.5q-67 0 -114.5 -40.5t-47.5 -117.5q0 -7 1 -19t1 -18h-135q-4 20 -4 39q0 121 85.5 202t217.5 81q131 0 207.5 -77t76.5 -183q0 -132 -106 -221
q-33 -28 -125 -87t-119 -81q-85 -72 -94 -115h450v-123h-602v66z" />
    <glyph glyph-name="uni00B3" unicode="&#xb3;" horiz-adv-x="731" 
d="M68 1151q-2 76 24 136t70 95t96.5 52.5t108.5 17.5q116 0 200 -70t84 -178q0 -63 -32.5 -110.5t-86.5 -73.5q57 -20 99.5 -74.5t42.5 -136.5q0 -109 -85 -185.5t-227 -76.5q-146 0 -233.5 83.5t-83.5 223.5h137q-1 -93 50.5 -135.5t132.5 -42.5q78 0 122.5 40.5
t44.5 94.5q0 61 -42.5 101t-116.5 40h-84v123h84q67 0 102 35.5t35 91.5q0 50 -41.5 86.5t-103.5 36.5q-67 0 -115 -42.5t-47 -131.5h-135z" />
    <glyph glyph-name="acute" unicode="&#xb4;" horiz-adv-x="532" 
d="M197 1462h239l-219 -284h-123z" />
    <glyph glyph-name="uni00B5" unicode="&#xb5;" horiz-adv-x="1110" 
d="M1018 1065v-1065h-176v174q-55 -103 -149 -153t-197 -50q-129 0 -232 70v-395h-170v696q-2 14 -2 45v678h180v-619q0 -161 72 -236t182 -75q147 0 229.5 108t82.5 304v518h180z" />
    <glyph glyph-name="paragraph" unicode="&#xb6;" horiz-adv-x="1155" 
d="M1145 1286h-197v-1614h-149v1614h-191v-1614h-149v885q-123 0 -225 53.5t-163 154.5t-61 230t61 230t163 155t225 54h686v-148z" />
    <glyph glyph-name="periodcentered" unicode="&#xb7;" horiz-adv-x="376" 
d="M188 471q-62 0 -99.5 40.5t-37.5 94.5t37.5 94.5t99.5 40.5t100 -40.5t38 -94.5t-38 -94.5t-100 -40.5z" />
    <glyph glyph-name="cedilla" unicode="&#xb8;" horiz-adv-x="636" 
d="M324 -90q95 0 148.5 -37.5t53.5 -105.5q0 -69 -55.5 -111.5t-148.5 -42.5h-172v104h178q65 0 65 50q0 49 -65 49h-119v84l102 168l88 -58z" />
    <glyph glyph-name="uni00B9" unicode="&#xb9;" horiz-adv-x="495" 
d="M393 1432v-869h-135v674q-64 -77 -227 -88v127q176 15 248 156h114z" />
    <glyph glyph-name="ordmasculine" unicode="&#xba;" horiz-adv-x="659" 
d="M623 1114q0 -143 -84.5 -228t-208.5 -85q-126 0 -209.5 84t-83.5 229q0 143 83.5 226t209.5 83q125 0 209 -83t84 -226zM160 1112q0 -95 48.5 -147t121.5 -52t121.5 52t48.5 147q0 100 -48 150.5t-122 50.5t-122 -50.5t-48 -150.5z" />
    <glyph glyph-name="guillemotright" unicode="&#xbb;" horiz-adv-x="956" 
d="M739 559l-309 445h184l312 -445l-312 -444h-184zM31 115l309 444l-309 445h184l311 -445l-311 -444h-184z" />
    <glyph glyph-name="onequarter" unicode="&#xbc;" horiz-adv-x="1386" 
d="M354 1405v-782h-125v604q-56 -67 -200 -78v117q158 15 223 139h102zM86 0l1047 1434h170l-1047 -1434h-170zM760 168v129l352 469h133v-483h141v-115h-141v-184h-125v184h-360zM893 283h227v301z" />
    <glyph glyph-name="onehalf" unicode="&#xbd;" horiz-adv-x="1472" 
d="M354 1405v-782h-125v604q-56 -67 -200 -78v117q158 15 223 139h102zM86 0l1047 1434h170l-1047 -1434h-170zM889 0v59q0 79 38 135.5t107 108.5q24 19 100.5 67.5t104.5 73.5q31 28 43 55.5t12 65.5q0 52 -35 83.5t-94 31.5q-60 0 -100.5 -34.5t-40.5 -102.5q0 -6 1 -17
t1 -16h-125q-4 16 -4 35q0 108 76.5 181t195.5 73t187.5 -69.5t68.5 -166.5q0 -115 -96 -198q-29 -25 -109 -78t-106 -74q-39 -30 -58.5 -52.5t-25.5 -45.5h402v-115h-543z" />
    <glyph glyph-name="threequarters" unicode="&#xbe;" horiz-adv-x="1556" 
d="M61 1151q-2 68 21 121.5t63 85t87.5 47.5t97.5 16q104 0 180 -63t76 -160q0 -57 -29.5 -100t-77.5 -66q51 -17 89 -67t38 -123q0 -98 -76 -167t-204 -69q-131 0 -210 75.5t-75 201.5h127q-1 -84 43.5 -121t116.5 -37q70 0 108.5 35.5t38.5 83.5q0 55 -36 90t-103 35h-76
v114h76q60 0 89.5 31.5t29.5 81.5q0 45 -35.5 76t-91.5 31q-60 0 -101.5 -36.5t-40.5 -115.5h-125zM256 0l1047 1434h170l-1047 -1434h-170zM930 168v129l352 469h133v-483h141v-115h-141v-184h-125v184h-360zM1063 283h227v301z" />
    <glyph glyph-name="questiondown" unicode="&#xbf;" horiz-adv-x="1067" 
d="M995 2q-1 -125 -66.5 -217t-172 -137t-238.5 -45q-199 0 -317.5 87.5t-118.5 225.5q0 125 72.5 193t205.5 98q49 12 133.5 25t133.5 24q61 13 92 48.5t31 84.5q0 64 -50.5 101.5t-154.5 37.5q-120 0 -181.5 -48.5t-64.5 -149.5h-180q0 69 25.5 131t75.5 112.5t133.5 80.5
t189.5 30q177 0 282 -82t107 -213q1 -115 -73 -187.5t-193 -99.5q-51 -11 -138 -25t-139 -26q-72 -16 -99.5 -50t-27.5 -89q0 -62 63.5 -108t186.5 -46q151 0 224.5 65.5t78.5 178.5h180zM395 958q0 54 37.5 95t99.5 41t100 -41t38 -95t-38 -94.5t-100 -40.5t-99.5 40.5
t-37.5 94.5z" />
    <glyph glyph-name="Agrave" unicode="&#xc0;" horiz-adv-x="1361" 
d="M0 0l565 1434h199l598 -1434h-207l-147 367h-666l-139 -367h-203zM356 1800h262l115 -244h-135zM408 539h530l-272 678z" />
    <glyph glyph-name="Aacute" unicode="&#xc1;" horiz-adv-x="1361" 
d="M0 0l565 1434h199l598 -1434h-207l-147 367h-666l-139 -367h-203zM408 539h530l-272 678zM592 1556l115 244h262l-242 -244h-135z" />
    <glyph glyph-name="Acircumflex" unicode="&#xc2;" horiz-adv-x="1361" 
d="M0 0l565 1434h199l598 -1434h-207l-147 367h-666l-139 -367h-203zM322 1556l219 244h245l220 -244h-123l-219 103l-220 -103h-122zM408 539h530l-272 678z" />
    <glyph glyph-name="Atilde" unicode="&#xc3;" horiz-adv-x="1361" 
d="M0 0l565 1434h199l598 -1434h-207l-147 367h-666l-139 -367h-203zM301 1563q0 119 56 179t149 60q48 0 112 -25.5t119.5 -51t83.5 -25.5q77 0 84 94h123q0 -124 -55 -182t-150 -58q-48 0 -112 26t-119.5 51.5t-83.5 25.5q-77 0 -84 -94h-123zM408 539h530l-272 678z" />
    <glyph glyph-name="Adieresis" unicode="&#xc4;" horiz-adv-x="1361" 
d="M0 0l565 1434h199l598 -1434h-207l-147 367h-666l-139 -367h-203zM360 1679q0 51 35.5 86t85.5 35q48 0 83.5 -35.5t35.5 -85.5q0 -52 -35.5 -87.5t-83.5 -35.5q-50 0 -85.5 35.5t-35.5 87.5zM408 539h530l-272 678zM729 1679q0 51 35.5 86t85.5 35q48 0 83.5 -35.5
t35.5 -85.5q0 -52 -35.5 -87.5t-83.5 -35.5q-50 0 -85.5 35.5t-35.5 87.5z" />
    <glyph glyph-name="Aring" unicode="&#xc5;" horiz-adv-x="1361" 
d="M0 0l565 1434h199l598 -1434h-207l-147 367h-666l-139 -367h-203zM408 539h530l-272 678zM424 1677q0 99 70.5 165.5t171.5 66.5q100 0 170.5 -66.5t70.5 -165.5q0 -100 -70.5 -167.5t-170.5 -67.5q-101 0 -171.5 67.5t-70.5 167.5zM545 1679q0 -54 35 -88.5t86 -34.5
t86.5 34.5t35.5 88.5t-35 85.5t-87 31.5q-51 0 -86 -31.5t-35 -85.5z" />
    <glyph glyph-name="AE" unicode="&#xc6;" horiz-adv-x="2013" 
d="M819 1096l-323 -555h522v399q0 196 98 320h-2q-120 0 -179.5 -33.5t-115.5 -130.5zM-41 0l715 1206q80 133 175.5 180.5t240.5 47.5h718v-2h160v-172h-428q-160 0 -244 -84t-84 -244v-115h678v-172h-678v-147q0 -160 84 -244t244 -84h442v-172h-473q-190 0 -318 97
t-161 272h-637l-213 -367h-221z" />
    <glyph glyph-name="Ccedilla" unicode="&#xc7;" horiz-adv-x="1472" 
d="M1225 862q-22 190 -148 306t-329 116q-214 0 -355 -152.5t-141 -414.5q0 -132 38.5 -240t105.5 -179t156.5 -109.5t192.5 -38.5q209 0 333.5 116t146.5 316h196q-19 -255 -181 -422t-427 -187l-51 -63q231 0 231 -143q0 -70 -55.5 -112t-155.5 -42h-235v108h241
q66 0 66 46q0 45 -66 45h-147v88l49 73q-283 22 -461 229t-178 517q0 161 52 299t144 235.5t222.5 153t282.5 55.5q140 0 261 -46t206.5 -126t138.5 -190t63 -238h-196z" />
    <glyph glyph-name="Egrave" unicode="&#xc8;" horiz-adv-x="1118" 
d="M1087 172v-172h-524q-222 0 -356.5 131t-134.5 361v450q0 230 134.5 361t356.5 131h510v-172h-479q-160 0 -244 -84t-84 -244v-115h729v-172h-729v-147q0 -160 84 -244t244 -84h493zM356 1800h262l115 -244h-135z" />
    <glyph glyph-name="Eacute" unicode="&#xc9;" horiz-adv-x="1118" 
d="M1087 172v-172h-524q-222 0 -356.5 131t-134.5 361v450q0 230 134.5 361t356.5 131h510v-172h-479q-160 0 -244 -84t-84 -244v-115h729v-172h-729v-147q0 -160 84 -244t244 -84h493zM592 1556l115 244h262l-242 -244h-135z" />
    <glyph glyph-name="Ecircumflex" unicode="&#xca;" horiz-adv-x="1118" 
d="M1087 172v-172h-524q-222 0 -356.5 131t-134.5 361v450q0 230 134.5 361t356.5 131h510v-172h-479q-160 0 -244 -84t-84 -244v-115h729v-172h-729v-147q0 -160 84 -244t244 -84h493zM322 1556l219 244h245l220 -244h-123l-219 103l-220 -103h-122z" />
    <glyph glyph-name="Edieresis" unicode="&#xcb;" horiz-adv-x="1118" 
d="M1087 172v-172h-524q-222 0 -356.5 131t-134.5 361v450q0 230 134.5 361t356.5 131h510v-172h-479q-160 0 -244 -84t-84 -244v-115h729v-172h-729v-147q0 -160 84 -244t244 -84h493zM360 1679q0 51 35.5 86t85.5 35q48 0 83.5 -35.5t35.5 -85.5q0 -52 -35.5 -87.5
t-83.5 -35.5q-50 0 -85.5 35.5t-35.5 87.5zM729 1679q0 51 35.5 86t85.5 35q48 0 83.5 -35.5t35.5 -85.5q0 -52 -35.5 -87.5t-83.5 -35.5q-50 0 -85.5 35.5t-35.5 87.5z" />
    <glyph glyph-name="Igrave" unicode="&#xcc;" horiz-adv-x="419" 
d="M307 1434v-1434h-194v1434h194zM-98 1800h262l115 -244h-136z" />
    <glyph glyph-name="Iacute" unicode="&#xcd;" horiz-adv-x="419" 
d="M307 1434v-1434h-194v1434h194zM137 1556l115 244h262l-242 -244h-135z" />
    <glyph glyph-name="Icircumflex" unicode="&#xce;" horiz-adv-x="419" 
d="M307 1434v-1434h-194v1434h194zM-133 1556l219 244h246l219 -244h-123l-219 103l-219 -103h-123z" />
    <glyph glyph-name="Idieresis" unicode="&#xcf;" horiz-adv-x="419" 
d="M307 1434v-1434h-194v1434h194zM-94 1679q0 51 35.5 86t85.5 35q48 0 83 -35.5t35 -85.5q0 -52 -35 -87.5t-83 -35.5q-50 0 -85.5 35.5t-35.5 87.5zM274 1679q0 51 35.5 86t85.5 35q48 0 83.5 -35.5t35.5 -85.5q0 -52 -35.5 -87.5t-83.5 -35.5q-50 0 -85.5 35.5
t-35.5 87.5z" />
    <glyph glyph-name="Eth" unicode="&#xd0;" horiz-adv-x="1390" 
d="M10 809h144v625h505q310 0 495 -190t185 -523q0 -334 -185.5 -527.5t-494.5 -193.5h-505v645h-144v164zM348 172h297q223 0 358.5 140t135.5 405t-135.5 405t-358.5 140h-297v-453h277v-164h-277v-473z" />
    <glyph glyph-name="Ntilde" unicode="&#xd1;" horiz-adv-x="1390" 
d="M1278 1434v-1434h-191l-780 1188v-1188h-194v1434h258l712 -1084v1084h195zM332 1563q0 119 56 179t149 60q48 0 112 -25.5t119.5 -51t83.5 -25.5q77 0 84 94h123q0 -124 -55 -182t-150 -58q-48 0 -112 26t-119.5 51.5t-83.5 25.5q-77 0 -84 -94h-123z" />
    <glyph glyph-name="Ograve" unicode="&#xd2;" horiz-adv-x="1511" 
d="M756 -29q-201 0 -362.5 96t-252 267t-90.5 385q0 160 53 298.5t146 236t224 153t282 55.5q202 0 362.5 -94.5t251 -264.5t90.5 -384t-90.5 -385t-251.5 -267t-362 -96zM252 717q0 -131 40 -239.5t109 -179.5t160.5 -109.5t194.5 -38.5t194.5 38.5t160.5 109.5t109 179.5
t40 239.5t-40 239.5t-109 179.5t-160.5 109.5t-194.5 38.5t-194.5 -38.5t-160.5 -109.5t-109 -179.5t-40 -239.5zM446 1800h263l114 -244h-135z" />
    <glyph glyph-name="Oacute" unicode="&#xd3;" horiz-adv-x="1511" 
d="M756 -29q-201 0 -362.5 96t-252 267t-90.5 385q0 160 53 298.5t146 236t224 153t282 55.5q202 0 362.5 -94.5t251 -264.5t90.5 -384t-90.5 -385t-251.5 -267t-362 -96zM252 717q0 -131 40 -239.5t109 -179.5t160.5 -109.5t194.5 -38.5t194.5 38.5t160.5 109.5t109 179.5
t40 239.5t-40 239.5t-109 179.5t-160.5 109.5t-194.5 38.5t-194.5 -38.5t-160.5 -109.5t-109 -179.5t-40 -239.5zM682 1556l115 244h262l-242 -244h-135z" />
    <glyph glyph-name="Ocircumflex" unicode="&#xd4;" horiz-adv-x="1511" 
d="M756 -29q-201 0 -362.5 96t-252 267t-90.5 385q0 160 53 298.5t146 236t224 153t282 55.5q202 0 362.5 -94.5t251 -264.5t90.5 -384t-90.5 -385t-251.5 -267t-362 -96zM252 717q0 -131 40 -239.5t109 -179.5t160.5 -109.5t194.5 -38.5t194.5 38.5t160.5 109.5t109 179.5
t40 239.5t-40 239.5t-109 179.5t-160.5 109.5t-194.5 38.5t-194.5 -38.5t-160.5 -109.5t-109 -179.5t-40 -239.5zM412 1556l219 244h246l219 -244h-123l-219 103l-219 -103h-123z" />
    <glyph glyph-name="Otilde" unicode="&#xd5;" horiz-adv-x="1511" 
d="M756 -29q-201 0 -362.5 96t-252 267t-90.5 385q0 160 53 298.5t146 236t224 153t282 55.5q202 0 362.5 -94.5t251 -264.5t90.5 -384t-90.5 -385t-251.5 -267t-362 -96zM252 717q0 -131 40 -239.5t109 -179.5t160.5 -109.5t194.5 -38.5t194.5 38.5t160.5 109.5t109 179.5
t40 239.5t-40 239.5t-109 179.5t-160.5 109.5t-194.5 38.5t-194.5 -38.5t-160.5 -109.5t-109 -179.5t-40 -239.5zM391 1563q0 119 56 179t149 60q48 0 112 -25.5t119.5 -51t83.5 -25.5q77 0 84 94h123q0 -124 -55 -182t-150 -58q-48 0 -112 26t-119.5 51.5t-83.5 25.5
q-77 0 -84 -94h-123z" />
    <glyph glyph-name="Odieresis" unicode="&#xd6;" horiz-adv-x="1511" 
d="M756 -29q-201 0 -362.5 96t-252 267t-90.5 385q0 160 53 298.5t146 236t224 153t282 55.5q202 0 362.5 -94.5t251 -264.5t90.5 -384t-90.5 -385t-251.5 -267t-362 -96zM252 717q0 -131 40 -239.5t109 -179.5t160.5 -109.5t194.5 -38.5t194.5 38.5t160.5 109.5t109 179.5
t40 239.5t-40 239.5t-109 179.5t-160.5 109.5t-194.5 38.5t-194.5 -38.5t-160.5 -109.5t-109 -179.5t-40 -239.5zM451 1679q0 51 35 86t85 35q48 0 83.5 -35.5t35.5 -85.5q0 -52 -35.5 -87.5t-83.5 -35.5q-50 0 -85 35.5t-35 87.5zM819 1679q0 51 35.5 86t85.5 35
q48 0 83.5 -35.5t35.5 -85.5q0 -52 -35.5 -87.5t-83.5 -35.5q-50 0 -85.5 35.5t-35.5 87.5z" />
    <glyph glyph-name="multiply" unicode="&#xd7;" horiz-adv-x="964" 
d="M180 182l-108 109l303 303l-303 301l108 109l303 -302l301 302l109 -109l-301 -301l301 -303l-109 -109l-301 303z" />
    <glyph glyph-name="Oslash" unicode="&#xd8;" horiz-adv-x="1511" 
d="M1438 1376l-140 -166q162 -202 162 -491q0 -214 -90.5 -385t-251.5 -267t-362 -96q-229 0 -406 125l-129 -153l-123 108l131 154q-178 206 -178 514q0 160 53 298.5t146 236t224 153t282 55.5q245 0 424 -137l135 160zM252 717q0 -214 102 -363l705 830
q-130 100 -303 100q-103 0 -194.5 -38.5t-160.5 -109.5t-109 -179.5t-40 -239.5zM471 238q127 -88 285 -88q103 0 194.5 38.5t160.5 109.5t109 179.5t40 239.5q0 200 -91 344z" />
    <glyph glyph-name="Ugrave" unicode="&#xd9;" horiz-adv-x="1306" 
d="M92 520v914h195v-902q0 -79 21 -144t56.5 -108.5t83 -73t99 -43t106.5 -13.5q70 0 133 22t116.5 66t85.5 120t32 174v902h194v-914q0 -152 -65 -275.5t-194 -198.5t-302 -75t-302 75t-194 198.5t-65 275.5zM344 1800h262l115 -244h-135z" />
    <glyph glyph-name="Uacute" unicode="&#xda;" horiz-adv-x="1306" 
d="M92 520v914h195v-902q0 -79 21 -144t56.5 -108.5t83 -73t99 -43t106.5 -13.5q70 0 133 22t116.5 66t85.5 120t32 174v902h194v-914q0 -152 -65 -275.5t-194 -198.5t-302 -75t-302 75t-194 198.5t-65 275.5zM580 1556l114 244h262l-241 -244h-135z" />
    <glyph glyph-name="Ucircumflex" unicode="&#xdb;" horiz-adv-x="1306" 
d="M92 520v914h195v-902q0 -79 21 -144t56.5 -108.5t83 -73t99 -43t106.5 -13.5q70 0 133 22t116.5 66t85.5 120t32 174v902h194v-914q0 -152 -65 -275.5t-194 -198.5t-302 -75t-302 75t-194 198.5t-65 275.5zM309 1556l219 244h246l219 -244h-123l-219 103l-219 -103h-123z
" />
    <glyph glyph-name="Udieresis" unicode="&#xdc;" horiz-adv-x="1306" 
d="M92 520v914h195v-902q0 -79 21 -144t56.5 -108.5t83 -73t99 -43t106.5 -13.5q70 0 133 22t116.5 66t85.5 120t32 174v902h194v-914q0 -152 -65 -275.5t-194 -198.5t-302 -75t-302 75t-194 198.5t-65 275.5zM348 1679q0 51 35.5 86t85.5 35q48 0 83.5 -35.5t35.5 -85.5
q0 -52 -35.5 -87.5t-83.5 -35.5q-50 0 -85.5 35.5t-35.5 87.5zM717 1679q0 51 35.5 86t85.5 35q48 0 83 -35.5t35 -85.5q0 -52 -35 -87.5t-83 -35.5q-50 0 -85.5 35.5t-35.5 87.5z" />
    <glyph glyph-name="Yacute" unicode="&#xdd;" horiz-adv-x="1234" 
d="M528 0v512l-548 922h213l432 -738l428 738h202l-532 -916v-518h-195zM559 1556l115 244h262l-242 -244h-135z" />
    <glyph glyph-name="Thorn" unicode="&#xde;" horiz-adv-x="1181" 
d="M113 0v1434h194v-258h393q123 0 225.5 -54t164 -155t61.5 -230t-61.5 -230t-164 -154.5t-225.5 -53.5h-393v-299h-194zM307 471h369q122 0 199 68t77 196q0 129 -77.5 199t-198.5 70h-369v-533z" />
    <glyph glyph-name="germandbls" unicode="&#xdf;" horiz-adv-x="1202" 
d="M1049 1094q0 -116 -58 -180.5t-164 -106.5l-86 -35q-94 -39 -94 -98q0 -31 18.5 -50.5t57.5 -33.5q31 -12 96.5 -31.5t95.5 -30.5q110 -38 168 -110.5t58 -169.5q0 -88 -51 -152t-135.5 -94.5t-190.5 -30.5q-82 0 -152.5 20.5t-125 60.5t-84.5 105t-29 148h178
q0 -178 215 -178q89 0 142 30t53 91q0 52 -28 77.5t-97 51.5q-30 11 -91 29t-90 30q-188 72 -188 232q0 85 50.5 144t125.5 89l111 43q112 43 112 150q0 69 -67.5 121.5t-200.5 52.5q-159 0 -242.5 -98.5t-83.5 -295.5v-874h-180v887q0 132 38 236.5t106 172t161 103
t205 35.5q204 0 325.5 -100.5t121.5 -239.5z" />
    <glyph glyph-name="agrave" unicode="&#xe0;" horiz-adv-x="1165" 
d="M436 -29q-165 0 -270 80t-105 232q0 122 88 211t236 104q56 6 128 12.5t113 10t85 9.5t70.5 14t41.5 20v32q0 107 -77.5 169.5t-198.5 62.5q-126 0 -204 -62t-81 -178h-182q3 178 137 292t334 114q120 0 221 -46.5t165.5 -140.5t66.5 -219v-401q0 -127 126 -127h25v-160
h-55q-86 0 -152 38t-98 116q-56 -85 -165.5 -134t-248.5 -49zM248 289q0 -74 54.5 -115t148.5 -41q151 0 261.5 83t110.5 202v84q-13 -10 -35 -16.5t-64 -12t-74.5 -8.5t-106 -9t-119.5 -10q-176 -17 -176 -157zM276 1462h240l102 -284h-122z" />
    <glyph glyph-name="aacute" unicode="&#xe1;" horiz-adv-x="1165" 
d="M436 -29q-165 0 -270 80t-105 232q0 122 88 211t236 104q56 6 128 12.5t113 10t85 9.5t70.5 14t41.5 20v32q0 107 -77.5 169.5t-198.5 62.5q-126 0 -204 -62t-81 -178h-182q3 178 137 292t334 114q120 0 221 -46.5t165.5 -140.5t66.5 -219v-401q0 -127 126 -127h25v-160
h-55q-86 0 -152 38t-98 116q-56 -85 -165.5 -134t-248.5 -49zM248 289q0 -74 54.5 -115t148.5 -41q151 0 261.5 83t110.5 202v84q-13 -10 -35 -16.5t-64 -12t-74.5 -8.5t-106 -9t-119.5 -10q-176 -17 -176 -157zM485 1178l103 284h239l-219 -284h-123z" />
    <glyph glyph-name="acircumflex" unicode="&#xe2;" horiz-adv-x="1165" 
d="M436 -29q-165 0 -270 80t-105 232q0 122 88 211t236 104q56 6 128 12.5t113 10t85 9.5t70.5 14t41.5 20v32q0 107 -77.5 169.5t-198.5 62.5q-126 0 -204 -62t-81 -178h-182q3 178 137 292t334 114q120 0 221 -46.5t165.5 -140.5t66.5 -219v-401q0 -127 126 -127h25v-160
h-55q-86 0 -152 38t-98 116q-56 -85 -165.5 -134t-248.5 -49zM240 1178l206 284h218l206 -284h-110l-205 135l-205 -135h-110zM248 289q0 -74 54.5 -115t148.5 -41q151 0 261.5 83t110.5 202v84q-13 -10 -35 -16.5t-64 -12t-74.5 -8.5t-106 -9t-119.5 -10
q-176 -17 -176 -157z" />
    <glyph glyph-name="atilde" unicode="&#xe3;" horiz-adv-x="1165" 
d="M436 -29q-165 0 -270 80t-105 232q0 122 88 211t236 104q56 6 128 12.5t113 10t85 9.5t70.5 14t41.5 20v32q0 107 -77.5 169.5t-198.5 62.5q-126 0 -204 -62t-81 -178h-182q3 178 137 292t334 114q120 0 221 -46.5t165.5 -140.5t66.5 -219v-401q0 -127 126 -127h25v-160
h-55q-86 0 -152 38t-98 116q-56 -85 -165.5 -134t-248.5 -49zM227 1206q0 115 53 175.5t142 60.5q43 0 95.5 -28t97.5 -55.5t69 -27.5q68 0 74 103h123q0 -115 -53 -175.5t-142 -60.5q-43 0 -95.5 28t-97.5 55.5t-69 27.5q-68 0 -74 -103h-123zM248 289q0 -74 54.5 -115
t148.5 -41q151 0 261.5 83t110.5 202v84q-13 -10 -35 -16.5t-64 -12t-74.5 -8.5t-106 -9t-119.5 -10q-176 -17 -176 -157z" />
    <glyph glyph-name="adieresis" unicode="&#xe4;" horiz-adv-x="1165" 
d="M436 -29q-165 0 -270 80t-105 232q0 122 88 211t236 104q56 6 128 12.5t113 10t85 9.5t70.5 14t41.5 20v32q0 107 -77.5 169.5t-198.5 62.5q-126 0 -204 -62t-81 -178h-182q3 178 137 292t334 114q120 0 221 -46.5t165.5 -140.5t66.5 -219v-401q0 -127 126 -127h25v-160
h-55q-86 0 -152 38t-98 116q-56 -85 -165.5 -134t-248.5 -49zM248 289q0 -74 54.5 -115t148.5 -41q151 0 261.5 83t110.5 202v84q-13 -10 -35 -16.5t-64 -12t-74.5 -8.5t-106 -9t-119.5 -10q-176 -17 -176 -157zM250 1321q0 51 35.5 86t85.5 35q48 0 83 -35.5t35 -85.5
q0 -52 -35 -87.5t-83 -35.5q-50 0 -85.5 35.5t-35.5 87.5zM618 1321q0 51 35.5 86t85.5 35q48 0 83.5 -35.5t35.5 -85.5q0 -52 -35.5 -87.5t-83.5 -35.5q-50 0 -85.5 35.5t-35.5 87.5z" />
    <glyph glyph-name="aring" unicode="&#xe5;" horiz-adv-x="1165" 
d="M436 -29q-165 0 -270 80t-105 232q0 122 88 211t236 104q56 6 128 12.5t113 10t85 9.5t70.5 14t41.5 20v32q0 107 -77.5 169.5t-198.5 62.5q-126 0 -204 -62t-81 -178h-182q3 178 137 292t334 114q120 0 221 -46.5t165.5 -140.5t66.5 -219v-401q0 -127 126 -127h25v-160
h-55q-86 0 -152 38t-98 116q-56 -85 -165.5 -134t-248.5 -49zM248 289q0 -74 54.5 -115t148.5 -41q151 0 261.5 83t110.5 202v84q-13 -10 -35 -16.5t-64 -12t-74.5 -8.5t-106 -9t-119.5 -10q-176 -17 -176 -157zM338 1384q0 90 62 149.5t155 59.5q92 0 154.5 -59.5
t62.5 -149.5q0 -92 -62.5 -152.5t-154.5 -60.5q-93 0 -155 60.5t-62 152.5zM446 1386q0 -48 32 -79t77 -31q46 0 78.5 31t32.5 79t-32.5 76.5t-78.5 28.5t-77.5 -28.5t-31.5 -76.5z" />
    <glyph glyph-name="ae" unicode="&#xe6;" horiz-adv-x="1845" 
d="M1313 -29q-137 0 -247.5 55.5t-176.5 166.5q-66 -101 -182.5 -161.5t-270.5 -60.5q-165 0 -270 80t-105 232q0 122 87 211t233 104q54 6 124.5 12.5t108 10t79.5 9.5t66.5 14t39.5 20v32q0 106 -74.5 169t-189.5 63q-118 0 -194 -62t-79 -178h-182q2 117 64 210.5
t166 144.5t229 51q116 0 214 -50.5t156 -142.5q66 95 169 145t229 48q121 -1 216.5 -47t153 -121.5t87.5 -167.5t30 -193q0 -43 -6 -90h-821q7 -86 39 -152t81 -106t107 -60t123 -20q115 0 187.5 50.5t99.5 140.5h184q-28 -159 -155.5 -258t-319.5 -99zM248 289
q0 -74 51 -115t139 -41q157 0 259 82t102 203v84q-13 -10 -34 -16.5t-58 -11t-71 -8t-99 -9.5t-117 -11q-172 -17 -172 -157zM971 631h633q-16 151 -99 224t-202 73q-130 0 -220.5 -73.5t-111.5 -223.5z" />
    <glyph glyph-name="ccedilla" unicode="&#xe7;" horiz-adv-x="1128" 
d="M584 -90q95 0 148.5 -37.5t53.5 -105.5q0 -69 -55.5 -111.5t-148.5 -42.5h-172v104h178q65 0 65 50q0 49 -65 49h-119v84l45 75q-97 11 -180.5 53.5t-147 112t-99.5 171.5t-36 223q0 130 42.5 237t115 176.5t167.5 107.5t202 38q135 0 241 -44.5t176 -140.5t82 -233h-182
q-39 252 -322 252q-146 0 -240.5 -100.5t-94.5 -295.5q0 -190 95 -292.5t242 -102.5q127 0 213.5 73t106.5 210h182q-13 -196 -136 -314t-310 -133z" />
    <glyph glyph-name="egrave" unicode="&#xe8;" horiz-adv-x="1122" 
d="M578 -29q-108 0 -202.5 36t-167.5 104t-115 177.5t-42 246.5q0 258 146.5 410t373.5 149q124 -1 222 -47t157 -121.5t90 -167.5t31 -193q0 -43 -6 -90h-825q11 -168 106 -253t236 -85q121 0 196.5 50.5t102.5 140.5h184q-28 -159 -158.5 -258t-328.5 -99zM244 631h637
q-16 151 -102 224t-212 73q-133 0 -218.5 -72.5t-104.5 -224.5zM289 1462h239l103 -284h-123z" />
    <glyph glyph-name="eacute" unicode="&#xe9;" horiz-adv-x="1122" 
d="M578 -29q-108 0 -202.5 36t-167.5 104t-115 177.5t-42 246.5q0 258 146.5 410t373.5 149q124 -1 222 -47t157 -121.5t90 -167.5t31 -193q0 -43 -6 -90h-825q11 -168 106 -253t236 -85q121 0 196.5 50.5t102.5 140.5h184q-28 -159 -158.5 -258t-328.5 -99zM244 631h637
q-16 151 -102 224t-212 73q-133 0 -218.5 -72.5t-104.5 -224.5zM498 1178l102 284h240l-219 -284h-123z" />
    <glyph glyph-name="ecircumflex" unicode="&#xea;" horiz-adv-x="1122" 
d="M578 -29q-108 0 -202.5 36t-167.5 104t-115 177.5t-42 246.5q0 258 146.5 410t373.5 149q124 -1 222 -47t157 -121.5t90 -167.5t31 -193q0 -43 -6 -90h-825q11 -168 106 -253t236 -85q121 0 196.5 50.5t102.5 140.5h184q-28 -159 -158.5 -258t-328.5 -99zM244 631h637
q-16 151 -102 224t-212 73q-133 0 -218.5 -72.5t-104.5 -224.5zM252 1178l207 284h217l207 -284h-111l-205 135l-205 -135h-110z" />
    <glyph glyph-name="edieresis" unicode="&#xeb;" horiz-adv-x="1122" 
d="M578 -29q-108 0 -202.5 36t-167.5 104t-115 177.5t-42 246.5q0 258 146.5 410t373.5 149q124 -1 222 -47t157 -121.5t90 -167.5t31 -193q0 -43 -6 -90h-825q11 -168 106 -253t236 -85q121 0 196.5 50.5t102.5 140.5h184q-28 -159 -158.5 -258t-328.5 -99zM244 631h637
q-16 151 -102 224t-212 73q-133 0 -218.5 -72.5t-104.5 -224.5zM262 1321q0 51 35.5 86t85.5 35q48 0 83.5 -35.5t35.5 -85.5q0 -52 -35.5 -87.5t-83.5 -35.5q-50 0 -85.5 35.5t-35.5 87.5zM631 1321q0 51 35.5 86t85.5 35q48 0 83 -35.5t35 -85.5q0 -52 -35 -87.5
t-83 -35.5q-50 0 -85.5 35.5t-35.5 87.5z" />
    <glyph glyph-name="igrave" unicode="&#xec;" horiz-adv-x="364" 
d="M92 0v1065h180v-1065h-180zM-96 1462h239l103 -284h-123z" />
    <glyph glyph-name="iacute" unicode="&#xed;" horiz-adv-x="364" 
d="M92 0v1065h180v-1065h-180zM113 1178l102 284h240l-219 -284h-123z" />
    <glyph glyph-name="icircumflex" unicode="&#xee;" horiz-adv-x="364" 
d="M92 0v1065h180v-1065h-180zM-133 1178l207 284h217l207 -284h-111l-205 135l-205 -135h-110z" />
    <glyph glyph-name="idieresis" unicode="&#xef;" horiz-adv-x="364" 
d="M92 0v1065h180v-1065h-180zM-123 1321q0 51 35.5 86t85.5 35q48 0 83.5 -35.5t35.5 -85.5q0 -52 -35.5 -87.5t-83.5 -35.5q-50 0 -85.5 35.5t-35.5 87.5zM246 1321q0 51 35.5 86t85.5 35q48 0 83 -35.5t35 -85.5q0 -52 -35 -87.5t-83 -35.5q-50 0 -85.5 35.5t-35.5 87.5z
" />
    <glyph glyph-name="eth" unicode="&#xf0;" horiz-adv-x="1132" 
d="M565 -29q-105 0 -199 37.5t-163.5 104t-110.5 165.5t-41 216q0 154 68 273.5t181.5 182t250.5 62.5q84 0 172 -36t133 -91q-69 196 -203 295l-256 -133l-59 112l180 94q-96 34 -192 47l30 162q203 -24 349 -114l219 114l59 -112l-166 -86q131 -122 197.5 -305.5
t66.5 -405.5q0 -144 -39.5 -256.5t-110 -182.5t-163.5 -106.5t-203 -36.5zM238 492q0 -164 93 -259.5t234 -95.5t234.5 95.5t93.5 259.5q0 170 -92.5 262t-235.5 92t-235 -92t-92 -262z" />
    <glyph glyph-name="ntilde" unicode="&#xf1;" horiz-adv-x="1110" 
d="M555 1094q87 0 169 -30t151 -88t111 -154.5t42 -217.5v-604h-180v571q0 180 -78.5 269.5t-214.5 89.5t-214.5 -90.5t-78.5 -270.5v-569h-180v604q0 121 42 217.5t111 154.5t151 88t169 30zM227 1206q0 115 53 175.5t142 60.5q43 0 95.5 -28t97.5 -55.5t69 -27.5
q68 0 74 103h123q0 -115 -53 -175.5t-142 -60.5q-43 0 -95.5 28t-97.5 55.5t-69 27.5q-68 0 -74 -103h-123z" />
    <glyph glyph-name="ograve" unicode="&#xf2;" horiz-adv-x="1159" 
d="M1108 535q0 -130 -42.5 -238t-115.5 -178.5t-168 -109t-202 -38.5t-202.5 38.5t-168 108.5t-115.5 178t-43 239q0 130 43 237t115.5 176.5t168 107.5t202.5 38t202 -37.5t168 -107t115.5 -176.5t42.5 -238zM238 532q0 -189 98 -292t244 -103t244 103t98 292
q0 195 -97 295.5t-245 100.5t-245 -100.5t-97 -295.5zM301 1462h240l102 -284h-123z" />
    <glyph glyph-name="oacute" unicode="&#xf3;" horiz-adv-x="1159" 
d="M1108 535q0 -130 -42.5 -238t-115.5 -178.5t-168 -109t-202 -38.5t-202.5 38.5t-168 108.5t-115.5 178t-43 239q0 130 43 237t115.5 176.5t168 107.5t202.5 38t202 -37.5t168 -107t115.5 -176.5t42.5 -238zM238 532q0 -189 98 -292t244 -103t244 103t98 292
q0 195 -97 295.5t-245 100.5t-245 -100.5t-97 -295.5zM510 1178l102 284h240l-219 -284h-123z" />
    <glyph glyph-name="ocircumflex" unicode="&#xf4;" horiz-adv-x="1159" 
d="M1108 535q0 -130 -42.5 -238t-115.5 -178.5t-168 -109t-202 -38.5t-202.5 38.5t-168 108.5t-115.5 178t-43 239q0 130 43 237t115.5 176.5t168 107.5t202.5 38t202 -37.5t168 -107t115.5 -176.5t42.5 -238zM238 532q0 -189 98 -292t244 -103t244 103t98 292
q0 195 -97 295.5t-245 100.5t-245 -100.5t-97 -295.5zM264 1178l207 284h217l207 -284h-111l-204 135l-205 -135h-111z" />
    <glyph glyph-name="otilde" unicode="&#xf5;" horiz-adv-x="1159" 
d="M1108 535q0 -130 -42.5 -238t-115.5 -178.5t-168 -109t-202 -38.5t-202.5 38.5t-168 108.5t-115.5 178t-43 239q0 130 43 237t115.5 176.5t168 107.5t202.5 38t202 -37.5t168 -107t115.5 -176.5t42.5 -238zM238 532q0 -189 98 -292t244 -103t244 103t98 292
q0 195 -97 295.5t-245 100.5t-245 -100.5t-97 -295.5zM252 1206q0 115 52.5 175.5t141.5 60.5q43 0 95.5 -28t98 -55.5t69.5 -27.5q67 0 73 103h123q0 -115 -52.5 -175.5t-141.5 -60.5q-43 0 -95.5 28t-97.5 55.5t-69 27.5q-68 0 -74 -103h-123z" />
    <glyph glyph-name="odieresis" unicode="&#xf6;" horiz-adv-x="1159" 
d="M1108 535q0 -130 -42.5 -238t-115.5 -178.5t-168 -109t-202 -38.5t-202.5 38.5t-168 108.5t-115.5 178t-43 239q0 130 43 237t115.5 176.5t168 107.5t202.5 38t202 -37.5t168 -107t115.5 -176.5t42.5 -238zM238 532q0 -189 98 -292t244 -103t244 103t98 292
q0 195 -97 295.5t-245 100.5t-245 -100.5t-97 -295.5zM274 1321q0 51 35.5 86t85.5 35q48 0 83.5 -35.5t35.5 -85.5q0 -52 -35.5 -87.5t-83.5 -35.5q-50 0 -85.5 35.5t-35.5 87.5zM643 1321q0 51 35.5 86t85.5 35q48 0 83.5 -35.5t35.5 -85.5q0 -52 -35.5 -87.5t-83.5 -35.5
q-50 0 -85.5 35.5t-35.5 87.5z" />
    <glyph glyph-name="divide" unicode="&#xf7;" horiz-adv-x="1148" 
d="M72 516v154h1005v-154h-1005zM438 266q0 54 37.5 94.5t99.5 40.5t100 -40.5t38 -94.5t-38 -94.5t-100 -40.5t-99.5 40.5t-37.5 94.5zM438 920q0 54 37.5 94.5t99.5 40.5t100 -40.5t38 -94.5t-38 -95t-100 -41t-99.5 41t-37.5 95z" />
    <glyph glyph-name="oslash" unicode="&#xf8;" horiz-adv-x="1159" 
d="M1079 1022l-90 -117q119 -148 119 -370q0 -130 -42.5 -238t-115.5 -178.5t-168 -109t-202 -38.5q-147 0 -271 70l-76 -96l-122 98l77 98q-137 153 -137 394q0 130 43 237t115.5 176.5t168 107.5t202.5 38q160 0 290 -82l86 108zM238 532q0 -145 63 -247l465 592
q-80 51 -186 51q-148 0 -245 -100.5t-97 -295.5zM416 176q71 -39 164 -39q146 0 244 103t98 292q0 133 -50 228z" />
    <glyph glyph-name="ugrave" unicode="&#xf9;" horiz-adv-x="1089" 
d="M545 -29q-66 0 -130 15t-125 50t-106.5 86.5t-73.5 129t-28 172.5v641h180v-604q0 -170 75.5 -248t207.5 -78q282 0 282 326v604h181v-641q0 -95 -28 -172.5t-73.5 -129t-106.5 -86.5t-125 -50t-130 -15zM266 1462h240l102 -284h-123z" />
    <glyph glyph-name="uacute" unicode="&#xfa;" horiz-adv-x="1089" 
d="M545 -29q-66 0 -130 15t-125 50t-106.5 86.5t-73.5 129t-28 172.5v641h180v-604q0 -170 75.5 -248t207.5 -78q282 0 282 326v604h181v-641q0 -95 -28 -172.5t-73.5 -129t-106.5 -86.5t-125 -50t-130 -15zM475 1178l103 284h239l-219 -284h-123z" />
    <glyph glyph-name="ucircumflex" unicode="&#xfb;" horiz-adv-x="1089" 
d="M545 -29q-66 0 -130 15t-125 50t-106.5 86.5t-73.5 129t-28 172.5v641h180v-604q0 -170 75.5 -248t207.5 -78q282 0 282 326v604h181v-641q0 -95 -28 -172.5t-73.5 -129t-106.5 -86.5t-125 -50t-130 -15zM229 1178l207 284h217l207 -284h-110l-205 135l-205 -135h-111z
" />
    <glyph glyph-name="udieresis" unicode="&#xfc;" horiz-adv-x="1089" 
d="M545 -29q-66 0 -130 15t-125 50t-106.5 86.5t-73.5 129t-28 172.5v641h180v-604q0 -170 75.5 -248t207.5 -78q282 0 282 326v604h181v-641q0 -95 -28 -172.5t-73.5 -129t-106.5 -86.5t-125 -50t-130 -15zM240 1321q0 51 35 86t85 35q48 0 83.5 -35.5t35.5 -85.5
q0 -52 -35.5 -87.5t-83.5 -35.5q-50 0 -85 35.5t-35 87.5zM608 1321q0 51 35.5 86t85.5 35q48 0 83.5 -35.5t35.5 -85.5q0 -52 -35.5 -87.5t-83.5 -35.5q-50 0 -85.5 35.5t-35.5 87.5z" />
    <glyph glyph-name="yacute" unicode="&#xfd;" horiz-adv-x="1054" 
d="M115 -328h-60v160h31q147 0 231 50.5t123 156.5l-440 1026h199l338 -801l333 801h195l-449 -1065q-69 -163 -187.5 -245.5t-313.5 -82.5zM467 1178l102 284h240l-219 -284h-123z" />
    <glyph glyph-name="thorn" unicode="&#xfe;" horiz-adv-x="1183" 
d="M92 1434h180v-508q136 168 361 168q99 0 189 -38.5t159.5 -108.5t110.5 -178.5t41 -238.5q0 -131 -41 -238.5t-110 -176.5t-158.5 -106.5t-188.5 -37.5q-112 0 -209.5 45t-157.5 123v-467h-176v1762zM268 532q0 -192 96.5 -293.5t247.5 -101.5q141 0 235.5 105t94.5 286
q0 194 -88 297t-242 103q-68 0 -129 -24t-109.5 -71t-77 -124.5t-28.5 -176.5z" />
    <glyph glyph-name="ydieresis" unicode="&#xff;" horiz-adv-x="1054" 
d="M115 -328h-60v160h31q147 0 231 50.5t123 156.5l-440 1026h199l338 -801l333 801h195l-449 -1065q-69 -163 -187.5 -245.5t-313.5 -82.5zM231 1321q0 51 35.5 86t85.5 35q48 0 83.5 -35.5t35.5 -85.5q0 -52 -35.5 -87.5t-83.5 -35.5q-50 0 -85.5 35.5t-35.5 87.5z
M600 1321q0 51 35.5 86t85.5 35q48 0 83.5 -35.5t35.5 -85.5q0 -52 -35.5 -87.5t-83.5 -35.5q-50 0 -85.5 35.5t-35.5 87.5z" />
    <glyph glyph-name="Amacron" unicode="&#x100;" horiz-adv-x="1361" 
d="M0 0l565 1434h199l598 -1434h-207l-147 367h-666l-139 -367h-203zM367 1612v133h598v-133h-598zM408 539h530l-272 678z" />
    <glyph glyph-name="amacron" unicode="&#x101;" horiz-adv-x="1165" 
d="M436 -29q-165 0 -270 80t-105 232q0 122 88 211t236 104q56 6 128 12.5t113 10t85 9.5t70.5 14t41.5 20v32q0 107 -77.5 169.5t-198.5 62.5q-126 0 -204 -62t-81 -178h-182q3 178 137 292t334 114q120 0 221 -46.5t165.5 -140.5t66.5 -219v-401q0 -127 126 -127h25v-160
h-55q-86 0 -152 38t-98 116q-56 -85 -165.5 -134t-248.5 -49zM248 289q0 -74 54.5 -115t148.5 -41q151 0 261.5 83t110.5 202v84q-13 -10 -35 -16.5t-64 -12t-74.5 -8.5t-106 -9t-119.5 -10q-176 -17 -176 -157zM262 1253v133h586v-133h-586z" />
    <glyph glyph-name="Abreve" unicode="&#x102;" horiz-adv-x="1361" 
d="M0 0l565 1434h199l598 -1434h-207l-147 367h-666l-139 -367h-203zM365 1808h122q7 -67 60 -96t117 -29q41 0 76.5 9.5t66 39t35.5 76.5h123q-5 -68 -34 -119t-73.5 -79t-93 -41t-100.5 -13q-53 0 -101.5 13t-92 41t-72 79t-33.5 119zM408 539h530l-272 678z" />
    <glyph glyph-name="abreve" unicode="&#x103;" horiz-adv-x="1165" 
d="M436 -29q-165 0 -270 80t-105 232q0 122 88 211t236 104q56 6 128 12.5t113 10t85 9.5t70.5 14t41.5 20v32q0 107 -77.5 169.5t-198.5 62.5q-126 0 -204 -62t-81 -178h-182q3 178 137 292t334 114q120 0 221 -46.5t165.5 -140.5t66.5 -219v-401q0 -127 126 -127h25v-160
h-55q-86 0 -152 38t-98 116q-56 -85 -165.5 -134t-248.5 -49zM248 289q0 -74 54.5 -115t148.5 -41q151 0 261.5 83t110.5 202v84q-13 -10 -35 -16.5t-64 -12t-74.5 -8.5t-106 -9t-119.5 -10q-176 -17 -176 -157zM254 1454h123q7 -72 60.5 -105.5t115.5 -33.5q65 0 118 33.5
t60 105.5h123q-5 -71 -34 -124.5t-73 -83t-93 -44t-101 -14.5q-53 0 -101.5 14.5t-92 44t-72 83t-33.5 124.5z" />
    <glyph glyph-name="Aogonek" unicode="&#x104;" horiz-adv-x="1361" 
d="M0 0l565 1434h199l598 -1434q-48 -27 -71 -41.5t-54 -38t-44 -46t-13 -46.5q0 -39 24.5 -58.5t63.5 -19.5h82v-117h-125q-85 0 -135 45t-50 117q0 75 53.5 130.5t125.5 74.5h-64l-147 367h-666l-139 -367h-203zM408 539h530l-272 678z" />
    <glyph glyph-name="aogonek" unicode="&#x105;" horiz-adv-x="1165" 
d="M436 -29q-165 0 -270 80t-105 232q0 122 88 211t236 104q56 6 128 12.5t113 10t85 9.5t70.5 14t41.5 20v32q0 107 -77.5 169.5t-198.5 62.5q-126 0 -204 -62t-81 -178h-182q3 178 137 292t334 114q120 0 221 -46.5t165.5 -140.5t66.5 -219v-401q0 -127 126 -127h25v-160
q-164 -94 -164 -172q0 -39 24.5 -58.5t63.5 -19.5h60v-117h-97q-85 0 -135.5 45t-50.5 117q0 80 48 134t126 77q-130 26 -180 148q-56 -85 -165.5 -134t-248.5 -49zM248 289q0 -74 54.5 -115t148.5 -41q151 0 261.5 83t110.5 202v84q-13 -10 -35 -16.5t-64 -12t-74.5 -8.5
t-106 -9t-119.5 -10q-176 -17 -176 -157z" />
    <glyph glyph-name="Cacute" unicode="&#x106;" horiz-adv-x="1472" 
d="M1225 862q-22 190 -148 306t-329 116q-214 0 -355 -152.5t-141 -414.5q0 -132 38.5 -240t105.5 -179t156.5 -109.5t192.5 -38.5q209 0 333.5 116t146.5 316h196q-10 -133 -61 -245t-136 -193.5t-207.5 -127t-268.5 -45.5q-201 0 -360.5 96t-248 266.5t-88.5 385.5
q0 161 52 299t144 235.5t222.5 153t282.5 55.5q140 0 261 -46t206.5 -126t138.5 -190t63 -238h-196zM678 1556l115 244h262l-242 -244h-135z" />
    <glyph glyph-name="cacute" unicode="&#x107;" horiz-adv-x="1128" 
d="M580 -29q-108 0 -204 38.5t-168.5 109t-114.5 178t-42 238.5q0 130 42.5 237t115 176.5t167.5 107.5t202 38q135 0 241 -44.5t176 -140.5t82 -233h-182q-39 252 -322 252q-146 0 -240.5 -100.5t-94.5 -295.5q0 -190 95 -292.5t242 -102.5q127 0 213.5 73t106.5 210h182
q-15 -210 -153.5 -329.5t-343.5 -119.5zM504 1178l102 284h240l-219 -284h-123z" />
    <glyph glyph-name="Ccircumflex" unicode="&#x108;" horiz-adv-x="1472" 
d="M1225 862q-22 190 -148 306t-329 116q-214 0 -355 -152.5t-141 -414.5q0 -132 38.5 -240t105.5 -179t156.5 -109.5t192.5 -38.5q209 0 333.5 116t146.5 316h196q-10 -133 -61 -245t-136 -193.5t-207.5 -127t-268.5 -45.5q-201 0 -360.5 96t-248 266.5t-88.5 385.5
q0 161 52 299t144 235.5t222.5 153t282.5 55.5q140 0 261 -46t206.5 -126t138.5 -190t63 -238h-196zM408 1556l219 244h245l220 -244h-123l-219 103l-220 -103h-122z" />
    <glyph glyph-name="ccircumflex" unicode="&#x109;" horiz-adv-x="1128" 
d="M580 -29q-108 0 -204 38.5t-168.5 109t-114.5 178t-42 238.5q0 130 42.5 237t115 176.5t167.5 107.5t202 38q135 0 241 -44.5t176 -140.5t82 -233h-182q-39 252 -322 252q-146 0 -240.5 -100.5t-94.5 -295.5q0 -190 95 -292.5t242 -102.5q127 0 213.5 73t106.5 210h182
q-15 -210 -153.5 -329.5t-343.5 -119.5zM258 1178l207 284h217l207 -284h-111l-205 135l-204 -135h-111z" />
    <glyph glyph-name="Cdotaccent" unicode="&#x10a;" horiz-adv-x="1472" 
d="M1225 862q-22 190 -148 306t-329 116q-214 0 -355 -152.5t-141 -414.5q0 -132 38.5 -240t105.5 -179t156.5 -109.5t192.5 -38.5q209 0 333.5 116t146.5 316h196q-10 -133 -61 -245t-136 -193.5t-207.5 -127t-268.5 -45.5q-201 0 -360.5 96t-248 266.5t-88.5 385.5
q0 161 52 299t144 235.5t222.5 153t282.5 55.5q140 0 261 -46t206.5 -126t138.5 -190t63 -238h-196zM631 1679q0 51 35.5 86t85.5 35q48 0 83 -35.5t35 -85.5q0 -52 -35 -87.5t-83 -35.5q-50 0 -85.5 35.5t-35.5 87.5z" />
    <glyph glyph-name="cdotaccent" unicode="&#x10b;" horiz-adv-x="1128" 
d="M580 -29q-108 0 -204 38.5t-168.5 109t-114.5 178t-42 238.5q0 130 42.5 237t115 176.5t167.5 107.5t202 38q135 0 241 -44.5t176 -140.5t82 -233h-182q-39 252 -322 252q-146 0 -240.5 -100.5t-94.5 -295.5q0 -190 95 -292.5t242 -102.5q127 0 213.5 73t106.5 210h182
q-15 -210 -153.5 -329.5t-343.5 -119.5zM453 1321q0 51 35 86t85 35q48 0 83.5 -35.5t35.5 -85.5q0 -52 -35.5 -87.5t-83.5 -35.5q-50 0 -85 35.5t-35 87.5z" />
    <glyph glyph-name="Ccaron" unicode="&#x10c;" horiz-adv-x="1472" 
d="M1225 862q-22 190 -148 306t-329 116q-214 0 -355 -152.5t-141 -414.5q0 -132 38.5 -240t105.5 -179t156.5 -109.5t192.5 -38.5q209 0 333.5 116t146.5 316h196q-10 -133 -61 -245t-136 -193.5t-207.5 -127t-268.5 -45.5q-201 0 -360.5 96t-248 266.5t-88.5 385.5
q0 161 52 299t144 235.5t222.5 153t282.5 55.5q140 0 261 -46t206.5 -126t138.5 -190t63 -238h-196zM410 1800h122l220 -102l219 102h123l-220 -244h-245z" />
    <glyph glyph-name="ccaron" unicode="&#x10d;" horiz-adv-x="1128" 
d="M580 -29q-108 0 -204 38.5t-168.5 109t-114.5 178t-42 238.5q0 130 42.5 237t115 176.5t167.5 107.5t202 38q135 0 241 -44.5t176 -140.5t82 -233h-182q-39 252 -322 252q-146 0 -240.5 -100.5t-94.5 -295.5q0 -190 95 -292.5t242 -102.5q127 0 213.5 73t106.5 210h182
q-15 -210 -153.5 -329.5t-343.5 -119.5zM258 1462h111l204 -135l205 135h111l-207 -284h-217z" />
    <glyph glyph-name="Dcaron" unicode="&#x10e;" horiz-adv-x="1349" 
d="M618 1434q310 0 495 -190t185 -523q0 -334 -185.5 -527.5t-494.5 -193.5h-505v1434h505zM281 1800h122l220 -102l219 102h123l-220 -244h-245zM307 172h297q223 0 358.5 140t135.5 405t-135.5 405t-358.5 140h-297v-1090z" />
    <glyph glyph-name="dcaron" unicode="&#x10f;" horiz-adv-x="1173" 
d="M1092 512q0 -240 -143.5 -390.5t-377.5 -150.5q-106 0 -200 37.5t-165.5 106.5t-113 176.5t-41.5 238.5q0 130 41 238.5t110.5 178.5t159.5 108.5t189 38.5q231 0 360 -164v504h181v-922zM242 528q0 -181 94 -286t235 -105q149 0 244.5 103.5t95.5 291.5q0 99 -28 176
t-75.5 124.5t-108 71.5t-128.5 24q-154 0 -241.5 -103t-87.5 -297zM1165 1149l45 346h185l-99 -346h-131z" />
    <glyph glyph-name="Dcroat" unicode="&#x110;" horiz-adv-x="1390" 
d="M10 809h144v625h505q310 0 495 -190t185 -523q0 -334 -185.5 -527.5t-494.5 -193.5h-505v645h-144v164zM348 172h297q223 0 358.5 140t135.5 405t-135.5 405t-358.5 140h-297v-453h277v-164h-277v-473z" />
    <glyph glyph-name="dcroat" unicode="&#x111;" horiz-adv-x="1275" 
d="M1092 512q0 -240 -143.5 -390.5t-377.5 -150.5q-106 0 -200 37.5t-165.5 106.5t-113 176.5t-41.5 238.5q0 130 41 238.5t110.5 178.5t159.5 108.5t189 38.5q231 0 360 -164v262h-301v151h301v91h181v-91h174v-151h-174v-680zM242 528q0 -181 94 -286t235 -105
q149 0 244.5 103.5t95.5 291.5q0 99 -28 176t-75.5 124.5t-108 71.5t-128.5 24q-154 0 -241.5 -103t-87.5 -297z" />
    <glyph glyph-name="Emacron" unicode="&#x112;" horiz-adv-x="1118" 
d="M1087 172v-172h-524q-222 0 -356.5 131t-134.5 361v450q0 230 134.5 361t356.5 131h510v-172h-479q-160 0 -244 -84t-84 -244v-115h729v-172h-729v-147q0 -160 84 -244t244 -84h493zM367 1612v133h598v-133h-598z" />
    <glyph glyph-name="emacron" unicode="&#x113;" horiz-adv-x="1122" 
d="M578 -29q-108 0 -202.5 36t-167.5 104t-115 177.5t-42 246.5q0 258 146.5 410t373.5 149q124 -1 222 -47t157 -121.5t90 -167.5t31 -193q0 -43 -6 -90h-825q11 -168 106 -253t236 -85q121 0 196.5 50.5t102.5 140.5h184q-28 -159 -158.5 -258t-328.5 -99zM244 631h637
q-16 151 -102 224t-212 73q-133 0 -218.5 -72.5t-104.5 -224.5zM274 1253v133h586v-133h-586z" />
    <glyph glyph-name="Edotaccent" unicode="&#x116;" horiz-adv-x="1118" 
d="M1087 172v-172h-524q-222 0 -356.5 131t-134.5 361v450q0 230 134.5 361t356.5 131h510v-172h-479q-160 0 -244 -84t-84 -244v-115h729v-172h-729v-147q0 -160 84 -244t244 -84h493zM545 1679q0 51 35.5 86t85.5 35q48 0 83 -35.5t35 -85.5q0 -52 -35 -87.5t-83 -35.5
q-50 0 -85.5 35.5t-35.5 87.5z" />
    <glyph glyph-name="edotaccent" unicode="&#x117;" horiz-adv-x="1122" 
d="M578 -29q-108 0 -202.5 36t-167.5 104t-115 177.5t-42 246.5q0 258 146.5 410t373.5 149q124 -1 222 -47t157 -121.5t90 -167.5t31 -193q0 -43 -6 -90h-825q11 -168 106 -253t236 -85q121 0 196.5 50.5t102.5 140.5h184q-28 -159 -158.5 -258t-328.5 -99zM244 631h637
q-16 151 -102 224t-212 73q-133 0 -218.5 -72.5t-104.5 -224.5zM446 1321q0 51 35.5 86t85.5 35q48 0 83.5 -35.5t35.5 -85.5q0 -52 -35.5 -87.5t-83.5 -35.5q-50 0 -85.5 35.5t-35.5 87.5z" />
    <glyph glyph-name="Eogonek" unicode="&#x118;" horiz-adv-x="1118" 
d="M1087 172v-172q-48 -27 -71 -41.5t-54 -38t-44 -46t-13 -46.5q0 -39 24.5 -58.5t63.5 -19.5h82v-117h-125q-85 0 -134.5 45t-49.5 117q0 75 53 130.5t125 74.5h-381q-222 0 -356.5 131t-134.5 361v450q0 230 134.5 361t356.5 131h510v-172h-479q-160 0 -244 -84t-84 -244
v-115h729v-172h-729v-147q0 -160 84 -244t244 -84h493z" />
    <glyph glyph-name="eogonek" unicode="&#x119;" horiz-adv-x="1122" 
d="M51 535q0 258 146.5 410t373.5 149q124 -1 222 -47t157 -121.5t90 -167.5t31 -193q0 -43 -6 -90h-825q11 -168 106 -253t236 -85q121 0 196.5 50.5t102.5 140.5h184q-24 -127 -112.5 -217.5t-227.5 -122.5q-143 -84 -143 -160q0 -39 24.5 -58.5t63.5 -19.5h59v-117h-96
q-85 0 -136 45t-51 117q0 114 99 176q-103 5 -191.5 43.5t-156.5 107t-107 175t-39 238.5zM244 631h637q-16 151 -102 224t-212 73q-133 0 -218.5 -72.5t-104.5 -224.5z" />
    <glyph glyph-name="Ecaron" unicode="&#x11a;" horiz-adv-x="1118" 
d="M1087 172v-172h-524q-222 0 -356.5 131t-134.5 361v450q0 230 134.5 361t356.5 131h510v-172h-479q-160 0 -244 -84t-84 -244v-115h729v-172h-729v-147q0 -160 84 -244t244 -84h493zM324 1800h122l220 -102l219 102h123l-220 -244h-245z" />
    <glyph glyph-name="ecaron" unicode="&#x11b;" horiz-adv-x="1122" 
d="M578 -29q-108 0 -202.5 36t-167.5 104t-115 177.5t-42 246.5q0 258 146.5 410t373.5 149q124 -1 222 -47t157 -121.5t90 -167.5t31 -193q0 -43 -6 -90h-825q11 -168 106 -253t236 -85q121 0 196.5 50.5t102.5 140.5h184q-28 -159 -158.5 -258t-328.5 -99zM244 631h637
q-16 151 -102 224t-212 73q-133 0 -218.5 -72.5t-104.5 -224.5zM252 1462h110l205 -135l205 135h111l-207 -284h-217z" />
    <glyph glyph-name="Gcircumflex" unicode="&#x11c;" horiz-adv-x="1490" 
d="M1219 752q98 0 150 -52.5t52 -150.5v-549h-129l-32 193q-77 -99 -206.5 -160.5t-297.5 -61.5q-205 0 -366 96t-250 266.5t-89 385.5q0 161 54 299.5t149 236t228.5 152.5t287.5 55q140 0 259.5 -43t201.5 -117t133.5 -170t65.5 -204h-197q-17 73 -52.5 135t-91.5 113
t-140 79.5t-187 28.5q-105 0 -197.5 -38.5t-162 -109.5t-110 -179t-40.5 -240q0 -265 143.5 -416t378.5 -151q197 0 332 124.5t135 305.5h-547v172h525zM426 1556l219 244h246l219 -244h-123l-219 103l-219 -103h-123z" />
    <glyph glyph-name="gcircumflex" unicode="&#x11d;" horiz-adv-x="1150" 
d="M573 -356q-218 0 -349 91.5t-138 264.5h182q11 -190 305 -190q64 0 118 14t100 45t72 86.5t26 130.5v119q-60 -75 -152 -119.5t-194 -44.5q-92 0 -177.5 35t-154 99t-109.5 165.5t-41 224.5q0 126 42.5 228t114.5 167t163.5 99.5t191.5 34.5q222 0 359 -143.5t137 -370.5
v-504q0 -108 -41 -192.5t-111 -135.5t-157.5 -77.5t-186.5 -26.5zM254 563q0 -167 92.5 -261.5t218.5 -94.5q63 0 120 21.5t104.5 64t75.5 113.5t28 161q0 177 -90.5 269t-229.5 92q-140 0 -229.5 -93t-89.5 -272zM258 1178l207 284h217l207 -284h-111l-205 135l-204 -135
h-111z" />
    <glyph glyph-name="Gbreve" unicode="&#x11e;" horiz-adv-x="1490" 
d="M1219 752q98 0 150 -52.5t52 -150.5v-549h-129l-32 193q-77 -99 -206.5 -160.5t-297.5 -61.5q-205 0 -366 96t-250 266.5t-89 385.5q0 161 54 299.5t149 236t228.5 152.5t287.5 55q140 0 259.5 -43t201.5 -117t133.5 -170t65.5 -204h-197q-17 73 -52.5 135t-91.5 113
t-140 79.5t-187 28.5q-105 0 -197.5 -38.5t-162 -109.5t-110 -179t-40.5 -240q0 -265 143.5 -416t378.5 -151q197 0 332 124.5t135 305.5h-547v172h525zM469 1808h123q7 -67 59.5 -96t116.5 -29q41 0 76.5 9.5t66 39t35.5 76.5h123q-5 -68 -34 -119t-73.5 -79t-93 -41
t-100.5 -13q-53 0 -101.5 13t-92 41t-72 79t-33.5 119z" />
    <glyph glyph-name="gbreve" unicode="&#x11f;" horiz-adv-x="1150" 
d="M573 -356q-218 0 -349 91.5t-138 264.5h182q11 -190 305 -190q64 0 118 14t100 45t72 86.5t26 130.5v119q-60 -75 -152 -119.5t-194 -44.5q-92 0 -177.5 35t-154 99t-109.5 165.5t-41 224.5q0 126 42.5 228t114.5 167t163.5 99.5t191.5 34.5q222 0 359 -143.5t137 -370.5
v-504q0 -108 -41 -192.5t-111 -135.5t-157.5 -77.5t-186.5 -26.5zM254 563q0 -167 92.5 -261.5t218.5 -94.5q63 0 120 21.5t104.5 64t75.5 113.5t28 161q0 177 -90.5 269t-229.5 92q-140 0 -229.5 -93t-89.5 -272zM272 1454h123q7 -72 60.5 -105.5t115.5 -33.5
q65 0 118.5 33.5t60.5 105.5h122q-5 -71 -34 -124.5t-73 -83t-93 -44t-101 -14.5q-53 0 -101.5 14.5t-92 44t-72 83t-33.5 124.5z" />
    <glyph glyph-name="Gdotaccent" unicode="&#x120;" horiz-adv-x="1490" 
d="M1219 752q98 0 150 -52.5t52 -150.5v-549h-129l-32 193q-77 -99 -206.5 -160.5t-297.5 -61.5q-205 0 -366 96t-250 266.5t-89 385.5q0 161 54 299.5t149 236t228.5 152.5t287.5 55q140 0 259.5 -43t201.5 -117t133.5 -170t65.5 -204h-197q-17 73 -52.5 135t-91.5 113
t-140 79.5t-187 28.5q-105 0 -197.5 -38.5t-162 -109.5t-110 -179t-40.5 -240q0 -265 143.5 -416t378.5 -151q197 0 332 124.5t135 305.5h-547v172h525zM649 1679q0 51 35.5 86t85.5 35q48 0 83.5 -35.5t35.5 -85.5q0 -52 -35.5 -87.5t-83.5 -35.5q-50 0 -85.5 35.5
t-35.5 87.5z" />
    <glyph glyph-name="gdotaccent" unicode="&#x121;" horiz-adv-x="1150" 
d="M573 -356q-218 0 -349 91.5t-138 264.5h182q11 -190 305 -190q64 0 118 14t100 45t72 86.5t26 130.5v119q-60 -75 -152 -119.5t-194 -44.5q-92 0 -177.5 35t-154 99t-109.5 165.5t-41 224.5q0 126 42.5 228t114.5 167t163.5 99.5t191.5 34.5q222 0 359 -143.5t137 -370.5
v-504q0 -108 -41 -192.5t-111 -135.5t-157.5 -77.5t-186.5 -26.5zM254 563q0 -167 92.5 -261.5t218.5 -94.5q63 0 120 21.5t104.5 64t75.5 113.5t28 161q0 177 -90.5 269t-229.5 92q-140 0 -229.5 -93t-89.5 -272zM453 1321q0 51 35 86t85 35q48 0 83.5 -35.5t35.5 -85.5
q0 -52 -35.5 -87.5t-83.5 -35.5q-50 0 -85 35.5t-35 87.5z" />
    <glyph glyph-name="uni0122" unicode="&#x122;" horiz-adv-x="1490" 
d="M1219 752q98 0 150 -52.5t52 -150.5v-549h-129l-32 193q-77 -99 -206.5 -160.5t-297.5 -61.5q-205 0 -366 96t-250 266.5t-89 385.5q0 161 54 299.5t149 236t228.5 152.5t287.5 55q140 0 259.5 -43t201.5 -117t133.5 -170t65.5 -204h-197q-17 73 -52.5 135t-91.5 113
t-140 79.5t-187 28.5q-105 0 -197.5 -38.5t-162 -109.5t-110 -179t-40.5 -240q0 -265 143.5 -416t378.5 -151q197 0 332 124.5t135 305.5h-547v172h525zM526 -569v147h13q73 0 110 39.5t37 132.5v121h166v-127q0 -157 -86.5 -235t-220.5 -78h-19z" />
    <glyph glyph-name="uni0123" unicode="&#x123;" horiz-adv-x="1150" 
d="M573 -356q-218 0 -349 91.5t-138 264.5h182q11 -190 305 -190q64 0 118 14t100 45t72 86.5t26 130.5v119q-60 -75 -152 -119.5t-194 -44.5q-92 0 -177.5 35t-154 99t-109.5 165.5t-41 224.5q0 126 42.5 228t114.5 167t163.5 99.5t191.5 34.5q222 0 359 -143.5t137 -370.5
v-504q0 -108 -41 -192.5t-111 -135.5t-157.5 -77.5t-186.5 -26.5zM254 563q0 -167 92.5 -261.5t218.5 -94.5q63 0 120 21.5t104.5 64t75.5 113.5t28 161q0 177 -90.5 269t-229.5 92q-140 0 -229.5 -93t-89.5 -272zM502 1178v127q0 157 86.5 235t220.5 78h18v-148h-12
q-73 0 -110 -39.5t-37 -132.5v-120h-166z" />
    <glyph glyph-name="Hcircumflex" unicode="&#x124;" horiz-adv-x="1435" 
d="M113 0v1434h194v-615h821v615h195v-1434h-195v647h-821v-647h-194zM375 1556l219 244h246l219 -244h-123l-219 103l-219 -103h-123z" />
    <glyph glyph-name="hcircumflex" unicode="&#x125;" horiz-adv-x="1107" 
d="M516 1556h-123l-219 103l-219 -103h-123l219 244h246zM92 0v1434h180v-531q60 95 154 143t192 48q111 0 203.5 -50t148.5 -146.5t56 -219.5v-678h-180v618q0 162 -73 237t-185 75q-144 0 -230 -102.5t-86 -288.5v-539h-180z" />
    <glyph glyph-name="Hbar" unicode="&#x126;" horiz-adv-x="1497" 
d="M143 0v1075h-133v164h133v195h195v-195h821v195h195v-195h133v-164h-133v-1075h-195v647h-821v-647h-195zM338 819h821v256h-821v-256z" />
    <glyph glyph-name="hbar" unicode="&#x127;" horiz-adv-x="1126" 
d="M10 1192v151h101v91h180v-91h375v-151h-375v-289q60 95 154 143t192 48q111 0 203 -50t148 -146.5t56 -219.5v-678h-180v618q0 162 -73 237t-185 75q-144 0 -229.5 -102.5t-85.5 -288.5v-539h-180v1192h-101z" />
    <glyph glyph-name="Itilde" unicode="&#x128;" horiz-adv-x="419" 
d="M307 1434v-1434h-194v1434h194zM-154 1563q0 119 56 179t149 60q48 0 112.5 -25.5t120 -51t83.5 -25.5q77 0 84 94h122q0 -124 -54.5 -182t-149.5 -58q-48 0 -112.5 26t-120 51.5t-83.5 25.5q-77 0 -84 -94h-123z" />
    <glyph glyph-name="itilde" unicode="&#x129;" horiz-adv-x="364" 
d="M92 0v1065h180v-1065h-180zM-145 1206q0 115 52.5 175.5t141.5 60.5q43 0 95.5 -28t97.5 -55.5t69 -27.5q68 0 74 103h123q0 -115 -53 -175.5t-142 -60.5q-43 0 -95.5 28t-97.5 55.5t-69 27.5q-68 0 -74 -103h-122z" />
    <glyph glyph-name="Imacron" unicode="&#x12a;" horiz-adv-x="419" 
d="M307 1434v-1434h-194v1434h194zM-88 1612v133h598v-133h-598z" />
    <glyph glyph-name="imacron" unicode="&#x12b;" horiz-adv-x="364" 
d="M92 0v1065h180v-1065h-180zM-111 1253v133h586v-133h-586z" />
    <glyph glyph-name="Iogonek" unicode="&#x12e;" horiz-adv-x="419" 
d="M307 1434v-1434q-48 -27 -71 -41.5t-54 -38t-44 -46t-13 -46.5q0 -39 24.5 -58.5t63.5 -19.5h82v-117h-125q-85 0 -134.5 45t-49.5 117q0 75 53 130.5t125 74.5h-51v1434h194z" />
    <glyph glyph-name="iogonek" unicode="&#x12f;" horiz-adv-x="364" 
d="M92 0v1065h180v-1065q-163 -93 -163 -172q0 -39 24.5 -58.5t63.5 -19.5h59v-117h-96q-85 0 -136 45t-51 117q0 73 42 126t112 79h-35zM61 1321q0 51 35.5 86t85.5 35q48 0 83.5 -35.5t35.5 -85.5q0 -52 -35.5 -87.5t-83.5 -35.5q-50 0 -85.5 35.5t-35.5 87.5z" />
    <glyph glyph-name="Idotaccent" unicode="&#x130;" horiz-adv-x="419" 
d="M307 1434v-1434h-194v1434h194zM90 1679q0 51 35.5 86t85.5 35q48 0 83.5 -35.5t35.5 -85.5q0 -52 -35.5 -87.5t-83.5 -35.5q-50 0 -85.5 35.5t-35.5 87.5z" />
    <glyph glyph-name="dotlessi" unicode="&#x131;" horiz-adv-x="364" 
d="M92 0v1065h180v-1065h-180z" />
    <glyph glyph-name="IJ" unicode="&#x132;" horiz-adv-x="1181" 
d="M307 1434v-1434h-194v1434h194zM420 0v172h55q224 0 327 106.5t103 333.5v822h195v-842q0 -276 -153.5 -434t-457.5 -158h-69z" />
    <glyph glyph-name="ij" unicode="&#x133;" horiz-adv-x="806" 
d="M285 1065v-1065h-181v1065h181zM72 1321q0 51 36.5 87t86.5 36q48 0 84 -36.5t36 -86.5q0 -52 -36 -88.5t-84 -36.5q-50 0 -86.5 36.5t-36.5 88.5zM223 -328v160h31q137 0 203.5 62.5t66.5 211.5v959h181v-961q0 -210 -108.5 -321t-315.5 -111h-58zM492 1321q0 51 36 87
t86 36q48 0 84.5 -36.5t36.5 -86.5q0 -52 -36.5 -88.5t-84.5 -36.5q-50 0 -86 36.5t-36 88.5z" />
    <glyph glyph-name="Jcircumflex" unicode="&#x134;" horiz-adv-x="761" 
d="M0 0v172h55q224 0 327 106.5t103 333.5v822h195v-842q0 -276 -153 -434t-457 -158h-70zM238 1556l219 244h245l220 -244h-123l-219 103l-220 -103h-122z" />
    <glyph glyph-name="jcircumflex" unicode="&#x135;" horiz-adv-x="382" 
d="M-123 -328h-41v160h14q137 0 204 62.5t67 211.5v959h180v-961q0 -210 -108.5 -321t-315.5 -111zM-98 1178l207 284h217l206 -284h-110l-205 135l-205 -135h-110z" />
    <glyph glyph-name="uni0136" unicode="&#x136;" horiz-adv-x="1249" 
d="M307 0h-194v1434h194v-711l709 711h254l-574 -582q102 -73 195.5 -178.5t164.5 -221t123.5 -230.5t84.5 -222h-207q-55 200 -188.5 395t-307.5 320l-254 -256v-459zM434 -569v147h12q73 0 110.5 39.5t37.5 132.5v121h166v-127q0 -157 -86.5 -235t-220.5 -78h-19z" />
    <glyph glyph-name="uni0137" unicode="&#x137;" horiz-adv-x="1007" 
d="M272 0h-180v1434h180v-887l521 518h235l-430 -430q150 -116 261.5 -283.5t162.5 -351.5h-186q-45 152 -139.5 286.5t-219.5 229.5l-205 -205v-311zM324 -569v147h12q73 0 110 39.5t37 132.5v121h166v-127q0 -157 -86.5 -235t-220.5 -78h-18z" />
    <glyph glyph-name="kgreenlandic" unicode="&#x138;" horiz-adv-x="1007" 
d="M272 0h-180v1065h180v-518l521 518h235l-430 -430q150 -116 261.5 -283.5t162.5 -351.5h-186q-45 152 -139.5 286.5t-219.5 229.5l-205 -205v-311z" />
    <glyph glyph-name="Lacute" unicode="&#x139;" horiz-adv-x="1007" 
d="M1028 172v-172h-444q-222 0 -357 131t-135 361v942h195v-934q0 -160 83.5 -244t243.5 -84h414zM117 1556l114 244h263l-242 -244h-135z" />
    <glyph glyph-name="lacute" unicode="&#x13a;" horiz-adv-x="524" 
d="M467 0q-159 0 -272 112.5t-113 288.5v1033h180v-1024q0 -114 66 -182t172 -68h24v-160h-57zM92 1556l115 244h262l-242 -244h-135z" />
    <glyph glyph-name="uni013B" unicode="&#x13b;" horiz-adv-x="1007" 
d="M1028 172v-172h-444q-222 0 -357 131t-135 361v942h195v-934q0 -160 83.5 -244t243.5 -84h414zM354 -569v147h13q73 0 110 39.5t37 132.5v121h166v-127q0 -157 -86.5 -235t-220.5 -78h-19z" />
    <glyph glyph-name="uni013C" unicode="&#x13c;" horiz-adv-x="524" 
d="M467 0q-159 0 -272 112.5t-113 288.5v1033h180v-1024q0 -114 66 -182t172 -68h24v-160h-57zM84 -569v147h12q73 0 110.5 39.5t37.5 132.5v121h166v-127q0 -157 -87 -235t-221 -78h-18z" />
    <glyph glyph-name="Lcaron" unicode="&#x13d;" horiz-adv-x="1007" 
d="M1028 172v-172h-444q-222 0 -357 131t-135 361v942h195v-934q0 -160 83.5 -244t243.5 -84h414zM512 1149l45 346h184l-98 -346h-131z" />
    <glyph glyph-name="lcaron" unicode="&#x13e;" horiz-adv-x="524" 
d="M467 0q-159 0 -272 112.5t-113 288.5v1033h180v-1024q0 -114 66 -182t172 -68h24v-160h-57zM340 1149l45 346h184l-98 -346h-131z" />
    <glyph glyph-name="Lslash" unicode="&#x141;" horiz-adv-x="1097" 
d="M842 911l-465 -206v-205q0 -160 84 -244t244 -84h413v-172h-444q-222 0 -357 131t-135 361v124l-114 -51l-58 142l172 77v650h195v-564l407 183z" />
    <glyph glyph-name="lslash" unicode="&#x142;" horiz-adv-x="630" 
d="M532 0q-159 0 -272 112.5t-113 288.5v279l-86 -35l-51 143l137 56v590h181v-519l241 97l52 -144l-293 -116v-342q0 -114 65.5 -182t171.5 -68h25v-160h-58z" />
    <glyph glyph-name="Nacute" unicode="&#x143;" horiz-adv-x="1390" 
d="M1278 1434v-1434h-191l-780 1188v-1188h-194v1434h258l712 -1084v1084h195zM623 1556l114 244h262l-241 -244h-135z" />
    <glyph glyph-name="nacute" unicode="&#x144;" horiz-adv-x="1110" 
d="M555 1094q87 0 169 -30t151 -88t111 -154.5t42 -217.5v-604h-180v571q0 180 -78.5 269.5t-214.5 89.5t-214.5 -90.5t-78.5 -270.5v-569h-180v604q0 121 42 217.5t111 154.5t151 88t169 30zM485 1178l103 284h239l-219 -284h-123z" />
    <glyph glyph-name="uni0145" unicode="&#x145;" horiz-adv-x="1390" 
d="M1278 1434v-1434h-191l-780 1188v-1188h-194v1434h258l712 -1084v1084h195zM459 -569v147h12q73 0 110 39.5t37 132.5v121h166v-127q0 -157 -86.5 -235t-220.5 -78h-18z" />
    <glyph glyph-name="uni0146" unicode="&#x146;" horiz-adv-x="1110" 
d="M555 1094q87 0 169 -30t151 -88t111 -154.5t42 -217.5v-604h-180v571q0 180 -78.5 269.5t-214.5 89.5t-214.5 -90.5t-78.5 -270.5v-569h-180v604q0 121 42 217.5t111 154.5t151 88t169 30zM326 -569v147h12q73 0 110 39.5t37 132.5v121h166v-127q0 -157 -86.5 -235
t-220.5 -78h-18z" />
    <glyph glyph-name="Ncaron" unicode="&#x147;" horiz-adv-x="1390" 
d="M1278 1434v-1434h-191l-780 1188v-1188h-194v1434h258l712 -1084v1084h195zM354 1800h123l219 -102l219 102h123l-219 -244h-246z" />
    <glyph glyph-name="ncaron" unicode="&#x148;" horiz-adv-x="1110" 
d="M555 1094q87 0 169 -30t151 -88t111 -154.5t42 -217.5v-604h-180v571q0 180 -78.5 269.5t-214.5 89.5t-214.5 -90.5t-78.5 -270.5v-569h-180v604q0 121 42 217.5t111 154.5t151 88t169 30zM240 1462h110l205 -135l205 135h110l-206 -284h-218z" />
    <glyph glyph-name="Eng" unicode="&#x14a;" horiz-adv-x="1390" 
d="M1278 1434v-1393q0 -225 -127 -348t-344 -123h-55v172h24q155 0 231 76t76 231l-776 1143v-1192h-194v1434h258l712 -1049v1049h195z" />
    <glyph glyph-name="eng" unicode="&#x14b;" horiz-adv-x="1097" 
d="M553 1094q84 0 163.5 -29.5t146.5 -85.5t109 -150t44 -211v-544q0 -176 -113 -289t-272 -113h-58v160h25q106 0 172 68t66 182v485q0 181 -75.5 272t-207.5 91q-133 0 -212 -92.5t-79 -272.5v-565h-180v604q0 97 28 179.5t74.5 138.5t107.5 95.5t127 58t134 18.5z" />
    <glyph glyph-name="Omacron" unicode="&#x14c;" horiz-adv-x="1511" 
d="M756 -29q-201 0 -362.5 96t-252 267t-90.5 385q0 160 53 298.5t146 236t224 153t282 55.5q202 0 362.5 -94.5t251 -264.5t90.5 -384t-90.5 -385t-251.5 -267t-362 -96zM252 717q0 -131 40 -239.5t109 -179.5t160.5 -109.5t194.5 -38.5t194.5 38.5t160.5 109.5t109 179.5
t40 239.5t-40 239.5t-109 179.5t-160.5 109.5t-194.5 38.5t-194.5 -38.5t-160.5 -109.5t-109 -179.5t-40 -239.5zM457 1612v133h598v-133h-598z" />
    <glyph glyph-name="omacron" unicode="&#x14d;" horiz-adv-x="1159" 
d="M1108 535q0 -130 -42.5 -238t-115.5 -178.5t-168 -109t-202 -38.5t-202.5 38.5t-168 108.5t-115.5 178t-43 239q0 130 43 237t115.5 176.5t168 107.5t202.5 38t202 -37.5t168 -107t115.5 -176.5t42.5 -238zM238 532q0 -189 98 -292t244 -103t244 103t98 292
q0 195 -97 295.5t-245 100.5t-245 -100.5t-97 -295.5zM287 1253v133h585v-133h-585z" />
    <glyph glyph-name="Ohungarumlaut" unicode="&#x150;" horiz-adv-x="1511" 
d="M756 -29q-201 0 -362.5 96t-252 267t-90.5 385q0 160 53 298.5t146 236t224 153t282 55.5q202 0 362.5 -94.5t251 -264.5t90.5 -384t-90.5 -385t-251.5 -267t-362 -96zM252 717q0 -131 40 -239.5t109 -179.5t160.5 -109.5t194.5 -38.5t194.5 38.5t160.5 109.5t109 179.5
t40 239.5t-40 239.5t-109 179.5t-160.5 109.5t-194.5 38.5t-194.5 -38.5t-160.5 -109.5t-109 -179.5t-40 -239.5zM496 1556l114 244h248l-237 -244h-125zM846 1556l115 244h247l-237 -244h-125z" />
    <glyph glyph-name="ohungarumlaut" unicode="&#x151;" horiz-adv-x="1159" 
d="M1108 535q0 -130 -42.5 -238t-115.5 -178.5t-168 -109t-202 -38.5t-202.5 38.5t-168 108.5t-115.5 178t-43 239q0 130 43 237t115.5 176.5t168 107.5t202.5 38t202 -37.5t168 -107t115.5 -176.5t42.5 -238zM238 532q0 -189 98 -292t244 -103t244 103t98 292
q0 195 -97 295.5t-245 100.5t-245 -100.5t-97 -295.5zM340 1178l102 284h226l-215 -284h-113zM668 1178l102 284h225l-215 -284h-112z" />
    <glyph glyph-name="OE" unicode="&#x152;" horiz-adv-x="2236" 
d="M739 -29q-196 0 -353.5 96t-246 267t-88.5 385q0 160 52 298.5t143 236t218.5 153t274.5 55.5q178 0 315 -73t222 -205q58 120 172.5 184t267.5 64h475v-172h-444q-160 0 -244 -84t-84 -244v-115h695v-172h-695v-147q0 -160 84 -244t244 -84h459v-172h-490
q-154 0 -268.5 65t-173.5 185q-85 -132 -221 -204.5t-314 -72.5zM252 717q0 -131 39 -239.5t105.5 -179.5t155 -109.5t187.5 -38.5t187.5 38.5t155.5 109.5t106 179.5t39 239.5t-39 239.5t-106 179.5t-155.5 109.5t-187.5 38.5t-187.5 -38.5t-155 -109.5t-105.5 -179.5
t-39 -239.5z" />
    <glyph glyph-name="oe" unicode="&#x153;" horiz-adv-x="1935" 
d="M1403 -29q-137 0 -247 60t-175 176q-67 -112 -176 -174t-238 -62q-103 0 -196 38.5t-164.5 108.5t-113.5 178.5t-42 238.5t42 237t113.5 176.5t164.5 107.5t196 38q131 0 239.5 -61t174.5 -173q63 114 171 175t245 59q121 -1 216.5 -47t153 -121.5t87.5 -167.5t30 -193
q0 -43 -6 -90h-801q11 -168 103 -253t227 -85q116 0 188 52.5t99 148.5h184q-28 -165 -155 -266t-320 -101zM238 532q0 -189 94.5 -292t234.5 -103t235 103t95 292q0 100 -26.5 177t-72.5 124t-104.5 71t-126.5 24t-126 -24t-104 -71t-72.5 -124t-26.5 -177zM1081 631h613
q-16 151 -99 224t-202 73q-128 0 -211 -72.5t-101 -224.5z" />
    <glyph glyph-name="Racute" unicode="&#x154;" horiz-adv-x="1296" 
d="M1051 0q-29 199 -136 371t-249 252h-359v-623h-194v1434h641q198 0 328 -106t130 -288q0 -86 -28.5 -156t-75.5 -115t-97.5 -73t-105.5 -41q127 -90 219 -270t131 -385h-204zM307 795h420q287 0 287 233q0 121 -77 177.5t-210 56.5h-420v-467zM563 1556l115 244h262
l-242 -244h-135z" />
    <glyph glyph-name="racute" unicode="&#x155;" horiz-adv-x="653" 
d="M82 600q0 98 26.5 179t70.5 135.5t103.5 91.5t123 54t131.5 17h106v-176h-111q-126 0 -198 -81.5t-72 -233.5v-586h-180v600zM326 1178l102 284h240l-219 -284h-123z" />
    <glyph glyph-name="uni0156" unicode="&#x156;" horiz-adv-x="1296" 
d="M1051 0q-29 199 -136 371t-249 252h-359v-623h-194v1434h641q198 0 328 -106t130 -288q0 -86 -28.5 -156t-75.5 -115t-97.5 -73t-105.5 -41q127 -90 219 -270t131 -385h-204zM307 795h420q287 0 287 233q0 121 -77 177.5t-210 56.5h-420v-467zM451 -569v147h12
q73 0 110 39.5t37 132.5v121h166v-127q0 -157 -86.5 -235t-220.5 -78h-18z" />
    <glyph glyph-name="uni0157" unicode="&#x157;" horiz-adv-x="653" 
d="M82 600q0 98 26.5 179t70.5 135.5t103.5 91.5t123 54t131.5 17h106v-176h-111q-126 0 -198 -81.5t-72 -233.5v-586h-180v600zM-61 -569v147h12q73 0 110 39.5t37 132.5v121h166v-127q0 -157 -86.5 -235t-220.5 -78h-18z" />
    <glyph glyph-name="Rcaron" unicode="&#x158;" horiz-adv-x="1296" 
d="M1051 0q-29 199 -136 371t-249 252h-359v-623h-194v1434h641q198 0 328 -106t130 -288q0 -86 -28.5 -156t-75.5 -115t-97.5 -73t-105.5 -41q127 -90 219 -270t131 -385h-204zM295 1800h123l219 -102l219 102h123l-219 -244h-246zM307 795h420q287 0 287 233
q0 121 -77 177.5t-210 56.5h-420v-467z" />
    <glyph glyph-name="rcaron" unicode="&#x159;" horiz-adv-x="653" 
d="M82 600q0 98 26.5 179t70.5 135.5t103.5 91.5t123 54t131.5 17h106v-176h-111q-126 0 -198 -81.5t-72 -233.5v-586h-180v600zM80 1462h110l205 -135l205 135h111l-207 -284h-217z" />
    <glyph glyph-name="Sacute" unicode="&#x15a;" horiz-adv-x="1308" 
d="M246 555q-3 -200 105.5 -304t330.5 -104q73 0 136.5 13t117 39.5t84.5 73.5t31 110q0 91 -56 145t-153 74q-68 14 -203 33t-195 31q-153 30 -242 129t-89 256q0 178 142.5 294.5t387.5 116.5q264 0 421 -142t157 -415h-197q-1 103 -31 178.5t-83.5 119.5t-120 64.5
t-148.5 20.5q-158 0 -246 -66t-88 -161q0 -167 172 -203q64 -14 199.5 -32t200.5 -31q173 -34 273.5 -134.5t100.5 -269.5q0 -195 -151.5 -307.5t-425.5 -112.5q-141 0 -254.5 34t-198.5 103.5t-130.5 183t-43.5 263.5h197zM584 1556l114 244h263l-242 -244h-135z" />
    <glyph glyph-name="sacute" unicode="&#x15b;" horiz-adv-x="1050" 
d="M233 393q-3 -130 74 -195t236 -65q258 0 258 158q0 58 -32.5 92t-100.5 49q-49 11 -151 22.5t-130 16.5q-129 23 -207 100.5t-78 202.5q0 137 109.5 228.5t302.5 91.5q207 0 330.5 -111.5t126.5 -294.5h-183q-8 246 -276 246q-110 0 -170.5 -41t-60.5 -113
q0 -113 127 -135q48 -9 140 -20t130 -17q143 -26 227 -105.5t84 -207.5q0 -144 -117.5 -234t-332.5 -90q-78 0 -146.5 12.5t-133 43.5t-110 78t-72.5 121t-26 167h182zM442 1178l103 284h239l-219 -284h-123z" />
    <glyph glyph-name="Scircumflex" unicode="&#x15c;" horiz-adv-x="1308" 
d="M246 555q-3 -200 105.5 -304t330.5 -104q73 0 136.5 13t117 39.5t84.5 73.5t31 110q0 91 -56 145t-153 74q-68 14 -203 33t-195 31q-153 30 -242 129t-89 256q0 178 142.5 294.5t387.5 116.5q264 0 421 -142t157 -415h-197q-1 103 -31 178.5t-83.5 119.5t-120 64.5
t-148.5 20.5q-158 0 -246 -66t-88 -161q0 -167 172 -203q64 -14 199.5 -32t200.5 -31q173 -34 273.5 -134.5t100.5 -269.5q0 -195 -151.5 -307.5t-425.5 -112.5q-141 0 -254.5 34t-198.5 103.5t-130.5 183t-43.5 263.5h197zM313 1556l219 244h246l219 -244h-123l-219 103
l-219 -103h-123z" />
    <glyph glyph-name="scircumflex" unicode="&#x15d;" horiz-adv-x="1050" 
d="M233 393q-3 -130 74 -195t236 -65q258 0 258 158q0 58 -32.5 92t-100.5 49q-49 11 -151 22.5t-130 16.5q-129 23 -207 100.5t-78 202.5q0 137 109.5 228.5t302.5 91.5q207 0 330.5 -111.5t126.5 -294.5h-183q-8 246 -276 246q-110 0 -170.5 -41t-60.5 -113
q0 -113 127 -135q48 -9 140 -20t130 -17q143 -26 227 -105.5t84 -207.5q0 -144 -117.5 -234t-332.5 -90q-78 0 -146.5 12.5t-133 43.5t-110 78t-72.5 121t-26 167h182zM197 1178l206 284h218l206 -284h-110l-205 135l-205 -135h-110z" />
    <glyph glyph-name="Scedilla" unicode="&#x15e;" horiz-adv-x="1308" 
d="M246 555q-3 -200 105.5 -304t330.5 -104q73 0 136.5 13t117 39.5t84.5 73.5t31 110q0 91 -56 145t-153 74q-68 14 -203 33t-195 31q-153 30 -242 129t-89 256q0 178 142.5 294.5t387.5 116.5q264 0 421 -142t157 -415h-197q-1 103 -31 178.5t-83.5 119.5t-120 64.5
t-148.5 20.5q-158 0 -246 -66t-88 -161q0 -167 172 -203q64 -14 199.5 -32t200.5 -31q173 -34 273.5 -134.5t100.5 -269.5q0 -183 -132.5 -293t-375.5 -125l-51 -63q232 0 232 -143q0 -70 -55.5 -112t-155.5 -42h-236v108h242q65 0 65 46q0 45 -65 45h-148v88l50 73
q-268 13 -423 157.5t-151 424.5h197z" />
    <glyph glyph-name="scedilla" unicode="&#x15f;" horiz-adv-x="1050" 
d="M233 393q-3 -130 74 -195t236 -65q258 0 258 158q0 58 -32.5 92t-100.5 49q-49 11 -151 22.5t-130 16.5q-129 23 -207 100.5t-78 202.5q0 137 109.5 228.5t302.5 91.5q207 0 330.5 -111.5t126.5 -294.5h-183q-8 246 -276 246q-110 0 -170.5 -41t-60.5 -113
q0 -113 127 -135q48 -9 140 -20t130 -17q143 -26 227 -105.5t84 -207.5q0 -133 -99 -220t-282 -102l-49 -63q95 0 149 -37.5t54 -105.5q0 -69 -56 -111.5t-149 -42.5h-172v104h178q66 0 66 50q0 49 -66 49h-119v84l45 73q-72 4 -134.5 19.5t-119.5 47.5t-97.5 79t-64 117
t-22.5 157h182z" />
    <glyph glyph-name="Scaron" unicode="&#x160;" horiz-adv-x="1308" 
d="M246 555q-3 -200 105.5 -304t330.5 -104q73 0 136.5 13t117 39.5t84.5 73.5t31 110q0 91 -56 145t-153 74q-68 14 -203 33t-195 31q-153 30 -242 129t-89 256q0 178 142.5 294.5t387.5 116.5q264 0 421 -142t157 -415h-197q-1 103 -31 178.5t-83.5 119.5t-120 64.5
t-148.5 20.5q-158 0 -246 -66t-88 -161q0 -167 172 -203q64 -14 199.5 -32t200.5 -31q173 -34 273.5 -134.5t100.5 -269.5q0 -195 -151.5 -307.5t-425.5 -112.5q-141 0 -254.5 34t-198.5 103.5t-130.5 183t-43.5 263.5h197zM315 1800h123l219 -102l220 102h122l-219 -244
h-245z" />
    <glyph glyph-name="scaron" unicode="&#x161;" horiz-adv-x="1050" 
d="M233 393q-3 -130 74 -195t236 -65q258 0 258 158q0 58 -32.5 92t-100.5 49q-49 11 -151 22.5t-130 16.5q-129 23 -207 100.5t-78 202.5q0 137 109.5 228.5t302.5 91.5q207 0 330.5 -111.5t126.5 -294.5h-183q-8 246 -276 246q-110 0 -170.5 -41t-60.5 -113
q0 -113 127 -135q48 -9 140 -20t130 -17q143 -26 227 -105.5t84 -207.5q0 -144 -117.5 -234t-332.5 -90q-78 0 -146.5 12.5t-133 43.5t-110 78t-72.5 121t-26 167h182zM197 1462h110l205 -135l205 135h110l-206 -284h-218z" />
    <glyph glyph-name="uni0162" unicode="&#x162;" horiz-adv-x="1161" 
d="M1151 1262h-473v-1262h-31l-74 -90q232 0 232 -143q0 -70 -55.5 -112t-155.5 -42h-236v108h242q66 0 66 46q0 45 -66 45h-147v88l67 100h-37v1262h-473v172h1141v-172z" />
    <glyph glyph-name="uni0163" unicode="&#x163;" horiz-adv-x="653" 
d="M592 0q-38 0 -76 6l-74 -96q95 0 149 -37.5t54 -105.5q0 -69 -56 -111.5t-149 -42.5h-172v104h178q66 0 66 50q0 49 -66 49h-118v84l84 137q-108 46 -173 143.5t-65 231.5v493h-194v160h194v240l180 98v-338h275v-160h-275v-483q0 -117 70.5 -189.5t187.5 -72.5h31v-160
h-51z" />
    <glyph glyph-name="Tcaron" unicode="&#x164;" horiz-adv-x="1161" 
d="M1151 1262h-473v-1262h-195v1262h-473v172h1141v-172zM240 1800h122l220 -102l219 102h123l-219 -244h-246z" />
    <glyph glyph-name="tcaron" unicode="&#x165;" horiz-adv-x="653" 
d="M592 0q-82 0 -157 28t-133.5 79t-93 130.5t-34.5 174.5v493h-194v160h194v240l180 98v-338h275v-160h-275v-483q0 -117 70.5 -189.5t187.5 -72.5h31v-160h-51zM434 1149l45 346h185l-99 -346h-131z" />
    <glyph glyph-name="Utilde" unicode="&#x168;" horiz-adv-x="1306" 
d="M92 520v914h195v-902q0 -79 21 -144t56.5 -108.5t83 -73t99 -43t106.5 -13.5q70 0 133 22t116.5 66t85.5 120t32 174v902h194v-914q0 -152 -65 -275.5t-194 -198.5t-302 -75t-302 75t-194 198.5t-65 275.5zM289 1563q0 119 56 179t149 60q48 0 112 -25.5t119.5 -51
t83.5 -25.5q77 0 84 94h123q0 -124 -55 -182t-150 -58q-48 0 -112 26t-119.5 51.5t-83.5 25.5q-77 0 -84 -94h-123z" />
    <glyph glyph-name="utilde" unicode="&#x169;" horiz-adv-x="1089" 
d="M545 -29q-66 0 -130 15t-125 50t-106.5 86.5t-73.5 129t-28 172.5v641h180v-604q0 -170 75.5 -248t207.5 -78q282 0 282 326v604h181v-641q0 -95 -28 -172.5t-73.5 -129t-106.5 -86.5t-125 -50t-130 -15zM217 1206q0 115 53 175.5t142 60.5q43 0 95.5 -28t97.5 -55.5
t69 -27.5q68 0 74 103h122q0 -115 -52.5 -175.5t-141.5 -60.5q-43 0 -95.5 28t-97.5 55.5t-69 27.5q-68 0 -74 -103h-123z" />
    <glyph glyph-name="Umacron" unicode="&#x16a;" horiz-adv-x="1306" 
d="M92 520v914h195v-902q0 -79 21 -144t56.5 -108.5t83 -73t99 -43t106.5 -13.5q70 0 133 22t116.5 66t85.5 120t32 174v902h194v-914q0 -152 -65 -275.5t-194 -198.5t-302 -75t-302 75t-194 198.5t-65 275.5zM354 1612v133h598v-133h-598z" />
    <glyph glyph-name="umacron" unicode="&#x16b;" horiz-adv-x="1089" 
d="M545 -29q-66 0 -130 15t-125 50t-106.5 86.5t-73.5 129t-28 172.5v641h180v-604q0 -170 75.5 -248t207.5 -78q282 0 282 326v604h181v-641q0 -95 -28 -172.5t-73.5 -129t-106.5 -86.5t-125 -50t-130 -15zM252 1253v133h586v-133h-586z" />
    <glyph glyph-name="Ubreve" unicode="&#x16c;" horiz-adv-x="1306" 
d="M92 520v914h195v-902q0 -79 21 -144t56.5 -108.5t83 -73t99 -43t106.5 -13.5q70 0 133 22t116.5 66t85.5 120t32 174v902h194v-914q0 -152 -65 -275.5t-194 -198.5t-302 -75t-302 75t-194 198.5t-65 275.5zM352 1808h123q7 -67 59.5 -96t116.5 -29q41 0 76.5 9.5t66 39
t35.5 76.5h123q-5 -68 -34 -119t-73.5 -79t-93 -41t-100.5 -13q-53 0 -101.5 13t-92 41t-72 79t-33.5 119z" />
    <glyph glyph-name="ubreve" unicode="&#x16d;" horiz-adv-x="1089" 
d="M545 -29q-66 0 -130 15t-125 50t-106.5 86.5t-73.5 129t-28 172.5v641h180v-604q0 -170 75.5 -248t207.5 -78q282 0 282 326v604h181v-641q0 -95 -28 -172.5t-73.5 -129t-106.5 -86.5t-125 -50t-130 -15zM244 1454h123q7 -72 60.5 -105.5t115.5 -33.5q65 0 118 33.5
t60 105.5h123q-5 -71 -34 -124.5t-73 -83t-93 -44t-101 -14.5q-53 0 -101.5 14.5t-92 44t-72 83t-33.5 124.5z" />
    <glyph glyph-name="Uring" unicode="&#x16e;" horiz-adv-x="1306" 
d="M92 520v914h195v-902q0 -79 21 -144t56.5 -108.5t83 -73t99 -43t106.5 -13.5q70 0 133 22t116.5 66t85.5 120t32 174v902h194v-914q0 -152 -65 -275.5t-194 -198.5t-302 -75t-302 75t-194 198.5t-65 275.5zM412 1677q0 99 70 165.5t171 66.5q100 0 171 -67t71 -165
q0 -100 -71 -167.5t-171 -67.5q-101 0 -171 67.5t-70 167.5zM532 1679q0 -54 35 -88.5t86 -34.5t87 34.5t36 88.5t-35.5 85.5t-87.5 31.5q-51 0 -86 -31.5t-35 -85.5z" />
    <glyph glyph-name="uring" unicode="&#x16f;" horiz-adv-x="1089" 
d="M545 -29q-66 0 -130 15t-125 50t-106.5 86.5t-73.5 129t-28 172.5v641h180v-604q0 -170 75.5 -248t207.5 -78q282 0 282 326v604h181v-641q0 -95 -28 -172.5t-73.5 -129t-106.5 -86.5t-125 -50t-130 -15zM328 1384q0 90 62 149.5t155 59.5q92 0 154.5 -59.5t62.5 -149.5
q0 -92 -62.5 -152.5t-154.5 -60.5q-93 0 -155 60.5t-62 152.5zM436 1386q0 -48 32 -79t77 -31t77.5 31t32.5 79t-32 76.5t-78 28.5t-77.5 -28.5t-31.5 -76.5z" />
    <glyph glyph-name="Uhungarumlaut" unicode="&#x170;" horiz-adv-x="1306" 
d="M92 520v914h195v-902q0 -79 21 -144t56.5 -108.5t83 -73t99 -43t106.5 -13.5q70 0 133 22t116.5 66t85.5 120t32 174v902h194v-914q0 -152 -65 -275.5t-194 -198.5t-302 -75t-302 75t-194 198.5t-65 275.5zM393 1556l115 244h248l-238 -244h-125zM743 1556l115 244h248
l-238 -244h-125z" />
    <glyph glyph-name="uhungarumlaut" unicode="&#x171;" horiz-adv-x="1089" 
d="M545 -29q-66 0 -130 15t-125 50t-106.5 86.5t-73.5 129t-28 172.5v641h180v-604q0 -170 75.5 -248t207.5 -78q282 0 282 326v604h181v-641q0 -95 -28 -172.5t-73.5 -129t-106.5 -86.5t-125 -50t-130 -15zM305 1178l103 284h225l-215 -284h-113zM633 1178l102 284h226
l-216 -284h-112z" />
    <glyph glyph-name="Uogonek" unicode="&#x172;" horiz-adv-x="1306" 
d="M92 520v914h195v-902q0 -79 21 -144t56.5 -108.5t83 -73t99 -43t106.5 -13.5q70 0 133 22t116.5 66t85.5 120t32 174v902h194v-914q0 -183 -96 -324t-268 -196q-48 -27 -71 -41.5t-54 -38t-44 -46t-13 -46.5q0 -39 24.5 -58.5t63.5 -19.5h82v-117h-125q-85 0 -135 45
t-50 117q0 55 31 100.5t80 75.5q-169 3 -295 78.5t-189 198t-63 272.5z" />
    <glyph glyph-name="uogonek" unicode="&#x173;" horiz-adv-x="1089" 
d="M719 0q-164 -94 -164 -172q0 -39 24.5 -58.5t63.5 -19.5h59v-117h-96q-85 0 -135.5 45t-50.5 117q0 115 98 176q-81 4 -156 32t-139 80t-102.5 140.5t-38.5 200.5v641h180v-604q0 -170 75.5 -248t207.5 -78q282 0 282 326v604h181v-641q0 -169 -80.5 -274.5
t-208.5 -149.5z" />
    <glyph glyph-name="Wcircumflex" unicode="&#x174;" horiz-adv-x="1992" 
d="M453 0l-433 1434h209l351 -1174l315 1174h201l329 -1178l342 1178h205l-422 -1434h-243l-310 1092l-299 -1092h-245zM653 1556l219 244h246l219 -244h-123l-219 103l-219 -103h-123z" />
    <glyph glyph-name="wcircumflex" unicode="&#x175;" horiz-adv-x="1630" 
d="M383 0l-352 1065h196l252 -793l260 793h160l264 -799l246 799h190l-344 -1065h-178l-256 786l-256 -786h-182zM502 1178l207 284h217l207 -284h-111l-205 135l-205 -135h-110z" />
    <glyph glyph-name="Ycircumflex" unicode="&#x176;" horiz-adv-x="1234" 
d="M528 0v512l-548 922h213l432 -738l428 738h202l-532 -916v-518h-195zM289 1556l219 244h246l219 -244h-123l-219 103l-219 -103h-123z" />
    <glyph glyph-name="ycircumflex" unicode="&#x177;" horiz-adv-x="1054" 
d="M115 -328h-60v160h31q147 0 231 50.5t123 156.5l-440 1026h199l338 -801l333 801h195l-449 -1065q-69 -163 -187.5 -245.5t-313.5 -82.5zM221 1178l207 284h217l207 -284h-111l-204 135l-205 -135h-111z" />
    <glyph glyph-name="Ydieresis" unicode="&#x178;" horiz-adv-x="1234" 
d="M528 0v512l-548 922h213l432 -738l428 738h202l-532 -916v-518h-195zM328 1679q0 51 35.5 86t85.5 35q48 0 83 -35.5t35 -85.5q0 -52 -35 -87.5t-83 -35.5q-50 0 -85.5 35.5t-35.5 87.5zM696 1679q0 51 35.5 86t85.5 35q48 0 83.5 -35.5t35.5 -85.5q0 -52 -35.5 -87.5
t-83.5 -35.5q-50 0 -85.5 35.5t-35.5 87.5z" />
    <glyph glyph-name="Zacute" unicode="&#x179;" horiz-adv-x="1167" 
d="M1137 172v-172h-1096v150l825 1112h-786v172h1022v-164l-813 -1098h848zM530 1556l115 244h262l-241 -244h-136z" />
    <glyph glyph-name="zacute" unicode="&#x17a;" horiz-adv-x="976" 
d="M936 160v-160h-885v129l635 776h-600v160h823v-147l-622 -758h649zM430 1178l102 284h240l-219 -284h-123z" />
    <glyph glyph-name="Zdotaccent" unicode="&#x17b;" horiz-adv-x="1167" 
d="M1137 172v-172h-1096v150l825 1112h-786v172h1022v-164l-813 -1098h848zM483 1679q0 51 35.5 86t85.5 35q48 0 83.5 -35.5t35.5 -85.5q0 -52 -35.5 -87.5t-83.5 -35.5q-50 0 -85.5 35.5t-35.5 87.5z" />
    <glyph glyph-name="zdotaccent" unicode="&#x17c;" horiz-adv-x="976" 
d="M936 160v-160h-885v129l635 776h-600v160h823v-147l-622 -758h649zM379 1321q0 51 35.5 86t85.5 35q48 0 83 -35.5t35 -85.5q0 -52 -35 -87.5t-83 -35.5q-50 0 -85.5 35.5t-35.5 87.5z" />
    <glyph glyph-name="Zcaron" unicode="&#x17d;" horiz-adv-x="1167" 
d="M1137 172v-172h-1096v150l825 1112h-786v172h1022v-164l-813 -1098h848zM262 1800h123l219 -102l219 102h123l-219 -244h-246z" />
    <glyph glyph-name="zcaron" unicode="&#x17e;" horiz-adv-x="976" 
d="M936 160v-160h-885v129l635 776h-600v160h823v-147l-622 -758h649zM184 1462h111l205 -135l205 135h110l-207 -284h-217z" />
    <glyph glyph-name="uni018F" unicode="&#x18f;" horiz-adv-x="1472" 
d="M717 1462q147 0 273.5 -47.5t223.5 -138t152 -235t55 -326.5q0 -172 -53 -313.5t-146 -236.5t-221.5 -145.5t-279.5 -48.5q-135 2 -247 41t-189 105t-131 154t-78.5 185.5t-24.5 202.5q0 65 8 117h1160q-7 126 -49 224.5t-111.5 159.5t-157.5 92.5t-190 31.5
q-186 0 -306 -85.5t-153 -227.5h-197q36 219 213 355t449 136zM254 604q10 -116 51 -204.5t106 -142t144.5 -80.5t171.5 -27q203 0 334.5 113.5t155.5 340.5h-963z" />
    <glyph glyph-name="florin" unicode="&#x192;" horiz-adv-x="808" 
d="M139 1065h203q20 178 105 273.5t223 95.5h98v-160h-61q-99 0 -141 -46t-54 -163h238v-152h-254l-86 -790q-20 -178 -105 -273.5t-223 -95.5h-72v160h35q99 0 141 46t54 163l86 790h-187v152z" />
    <glyph glyph-name="Ohorn" unicode="&#x1a0;" horiz-adv-x="1589" 
d="M756 -29q-201 0 -362.5 96t-252 267t-90.5 385q0 160 53 298.5t146 236t224 153t282 55.5q171 0 314 -69t239 -195q133 12 133 131v166h147v-145q0 -235 -203 -281q74 -161 74 -350q0 -214 -90.5 -385t-251.5 -267t-362 -96zM252 717q0 -131 40 -239.5t109 -179.5
t160.5 -109.5t194.5 -38.5t194.5 38.5t160.5 109.5t109 179.5t40 239.5t-40 239.5t-109 179.5t-160.5 109.5t-194.5 38.5t-194.5 -38.5t-160.5 -109.5t-109 -179.5t-40 -239.5z" />
    <glyph glyph-name="ohorn" unicode="&#x1a1;" horiz-adv-x="1286" 
d="M1108 535q0 -130 -42.5 -238t-115.5 -178.5t-168 -109t-202 -38.5t-202.5 38.5t-168 108.5t-115.5 178t-43 239q0 130 43 237t115.5 176.5t168 107.5t202.5 38q127 0 237.5 -53t183.5 -152q138 10 138 131v115h147v-95q0 -42 -8.5 -80.5t-29.5 -81.5t-66.5 -75
t-110.5 -45q37 -98 37 -223zM238 532q0 -189 98 -292t244 -103t244 103t98 292q0 195 -97 295.5t-245 100.5t-245 -100.5t-97 -295.5z" />
    <glyph glyph-name="Uhorn" unicode="&#x1af;" horiz-adv-x="1497" 
d="M92 520v914h195v-902q0 -79 21 -144t56.5 -108.5t83 -73t99 -43t106.5 -13.5q70 0 133 22t116.5 66t85.5 120t32 174v902h194v-236q136 10 136 131v166h147v-145q0 -279 -283 -291v-539q0 -152 -65 -275.5t-194 -198.5t-302 -75t-302 75t-194 198.5t-65 275.5z" />
    <glyph glyph-name="uhorn" unicode="&#x1b0;" horiz-adv-x="1288" 
d="M545 -29q-66 0 -130 15t-125 50t-106.5 86.5t-73.5 129t-28 172.5v641h180v-604q0 -170 75.5 -248t207.5 -78q282 0 282 326v604h181v-176q133 12 133 131v115h147v-95q0 -36 -5.5 -70t-23.5 -74t-47.5 -69.5t-82 -51.5t-121.5 -25v-326q0 -95 -28 -172.5t-73.5 -129
t-106.5 -86.5t-125 -50t-130 -15z" />
    <glyph glyph-name="uni01E2" unicode="&#x1e2;" horiz-adv-x="2013" 
d="M819 1096l-323 -555h522v399q0 196 98 320h-2q-120 0 -179.5 -33.5t-115.5 -130.5zM-41 0l715 1206q80 133 175.5 180.5t240.5 47.5h718v-2h160v-172h-428q-160 0 -244 -84t-84 -244v-115h678v-172h-678v-147q0 -160 84 -244t244 -84h442v-172h-473q-190 0 -318 97
t-161 272h-637l-213 -367h-221zM995 1612v133h598v-133h-598z" />
    <glyph glyph-name="uni01E3" unicode="&#x1e3;" horiz-adv-x="1845" 
d="M1313 -29q-137 0 -247.5 55.5t-176.5 166.5q-66 -101 -182.5 -161.5t-270.5 -60.5q-165 0 -270 80t-105 232q0 122 87 211t233 104q54 6 124.5 12.5t108 10t79.5 9.5t66.5 14t39.5 20v32q0 106 -74.5 169t-189.5 63q-118 0 -194 -62t-79 -178h-182q2 117 64 210.5
t166 144.5t229 51q116 0 214 -50.5t156 -142.5q66 95 169 145t229 48q121 -1 216.5 -47t153 -121.5t87.5 -167.5t30 -193q0 -43 -6 -90h-821q7 -86 39 -152t81 -106t107 -60t123 -20q115 0 187.5 50.5t99.5 140.5h184q-28 -159 -155.5 -258t-319.5 -99zM248 289
q0 -74 51 -115t139 -41q157 0 259 82t102 203v84q-13 -10 -34 -16.5t-58 -11t-71 -8t-99 -9.5t-117 -11q-172 -17 -172 -157zM631 1253v133h586v-133h-586zM971 631h633q-16 151 -99 224t-202 73q-130 0 -220.5 -73.5t-111.5 -223.5z" />
    <glyph glyph-name="AEacute" unicode="&#x1fc;" horiz-adv-x="2013" 
d="M819 1096l-323 -555h522v399q0 196 98 320h-2q-120 0 -179.5 -33.5t-115.5 -130.5zM-41 0l715 1206q80 133 175.5 180.5t240.5 47.5h718v-2h160v-172h-428q-160 0 -244 -84t-84 -244v-115h678v-172h-678v-147q0 -160 84 -244t244 -84h442v-172h-473q-190 0 -318 97
t-161 272h-637l-213 -367h-221zM1221 1556l114 244h262l-241 -244h-135z" />
    <glyph glyph-name="aeacute" unicode="&#x1fd;" horiz-adv-x="1845" 
d="M1313 -29q-137 0 -247.5 55.5t-176.5 166.5q-66 -101 -182.5 -161.5t-270.5 -60.5q-165 0 -270 80t-105 232q0 122 87 211t233 104q54 6 124.5 12.5t108 10t79.5 9.5t66.5 14t39.5 20v32q0 106 -74.5 169t-189.5 63q-118 0 -194 -62t-79 -178h-182q2 117 64 210.5
t166 144.5t229 51q116 0 214 -50.5t156 -142.5q66 95 169 145t229 48q121 -1 216.5 -47t153 -121.5t87.5 -167.5t30 -193q0 -43 -6 -90h-821q7 -86 39 -152t81 -106t107 -60t123 -20q115 0 187.5 50.5t99.5 140.5h184q-28 -159 -155.5 -258t-319.5 -99zM248 289
q0 -74 51 -115t139 -41q157 0 259 82t102 203v84q-13 -10 -34 -16.5t-58 -11t-71 -8t-99 -9.5t-117 -11q-172 -17 -172 -157zM854 1178l102 284h240l-219 -284h-123zM971 631h633q-16 151 -99 224t-202 73q-130 0 -220.5 -73.5t-111.5 -223.5z" />
    <glyph glyph-name="Oslashacute" unicode="&#x1fe;" horiz-adv-x="1511" 
d="M1438 1376l-140 -166q162 -202 162 -491q0 -214 -90.5 -385t-251.5 -267t-362 -96q-229 0 -406 125l-129 -153l-123 108l131 154q-178 206 -178 514q0 160 53 298.5t146 236t224 153t282 55.5q245 0 424 -137l135 160zM252 717q0 -214 102 -363l705 830
q-130 100 -303 100q-103 0 -194.5 -38.5t-160.5 -109.5t-109 -179.5t-40 -239.5zM471 238q127 -88 285 -88q103 0 194.5 38.5t160.5 109.5t109 179.5t40 239.5q0 200 -91 344zM700 1556l115 244h262l-241 -244h-136z" />
    <glyph glyph-name="oslashacute" unicode="&#x1ff;" horiz-adv-x="1159" 
d="M1079 1022l-90 -117q119 -148 119 -370q0 -130 -42.5 -238t-115.5 -178.5t-168 -109t-202 -38.5q-147 0 -271 70l-76 -96l-122 98l77 98q-137 153 -137 394q0 130 43 237t115.5 176.5t168 107.5t202.5 38q160 0 290 -82l86 108zM238 532q0 -145 63 -247l465 592
q-80 51 -186 51q-148 0 -245 -100.5t-97 -295.5zM416 176q71 -39 164 -39q146 0 244 103t98 292q0 133 -50 228zM541 1178l102 284h240l-219 -284h-123z" />
    <glyph glyph-name="uni0218" unicode="&#x218;" horiz-adv-x="1308" 
d="M246 555q-3 -200 105.5 -304t330.5 -104q73 0 136.5 13t117 39.5t84.5 73.5t31 110q0 91 -56 145t-153 74q-68 14 -203 33t-195 31q-153 30 -242 129t-89 256q0 178 142.5 294.5t387.5 116.5q264 0 421 -142t157 -415h-197q-1 103 -31 178.5t-83.5 119.5t-120 64.5
t-148.5 20.5q-158 0 -246 -66t-88 -161q0 -167 172 -203q64 -14 199.5 -32t200.5 -31q173 -34 273.5 -134.5t100.5 -269.5q0 -195 -151.5 -307.5t-425.5 -112.5q-141 0 -254.5 34t-198.5 103.5t-130.5 183t-43.5 263.5h197zM451 -569v147h12q73 0 110 39.5t37 132.5v121h166
v-127q0 -157 -86.5 -235t-220.5 -78h-18z" />
    <glyph glyph-name="uni0219" unicode="&#x219;" horiz-adv-x="1050" 
d="M233 393q-3 -130 74 -195t236 -65q258 0 258 158q0 58 -32.5 92t-100.5 49q-49 11 -151 22.5t-130 16.5q-129 23 -207 100.5t-78 202.5q0 137 109.5 228.5t302.5 91.5q207 0 330.5 -111.5t126.5 -294.5h-183q-8 246 -276 246q-110 0 -170.5 -41t-60.5 -113
q0 -113 127 -135q48 -9 140 -20t130 -17q143 -26 227 -105.5t84 -207.5q0 -144 -117.5 -234t-332.5 -90q-78 0 -146.5 12.5t-133 43.5t-110 78t-72.5 121t-26 167h182zM303 -569v147h12q73 0 110.5 39.5t37.5 132.5v121h166v-127q0 -157 -86.5 -235t-220.5 -78h-19z" />
    <glyph glyph-name="uni021A" unicode="&#x21a;" horiz-adv-x="1161" 
d="M1151 1262h-473v-1262h-195v1262h-473v172h1141v-172zM338 -569v147h12q73 0 110.5 39.5t37.5 132.5v121h166v-127q0 -157 -87 -235t-221 -78h-18z" />
    <glyph glyph-name="uni021B" unicode="&#x21b;" horiz-adv-x="653" 
d="M592 0q-82 0 -157 28t-133.5 79t-93 130.5t-34.5 174.5v493h-194v160h194v240l180 98v-338h275v-160h-275v-483q0 -117 70.5 -189.5t187.5 -72.5h31v-160h-51zM186 -569v147h13q73 0 110 39.5t37 132.5v121h166v-127q0 -157 -86.5 -235t-220.5 -78h-19z" />
    <glyph glyph-name="uni0237" unicode="&#x237;" horiz-adv-x="382" 
d="M-123 -328h-41v160h14q137 0 204 62.5t67 211.5v959h180v-961q0 -210 -108.5 -321t-315.5 -111z" />
    <glyph glyph-name="uni0259" unicode="&#x259;" horiz-adv-x="1122" 
d="M545 1094q108 0 202.5 -36t167 -104t114.5 -177.5t42 -246.5q0 -258 -146.5 -410t-373.5 -149q-124 1 -222 47t-157 121.5t-90 167.5t-31 193q0 44 6 90h826q-11 168 -106 253t-236 85q-121 0 -196.5 -50.5t-102.5 -140.5h-185q28 159 159 258t329 99zM242 434
q16 -151 101.5 -224t211.5 -73q133 0 219 72.5t105 224.5h-637z" />
    <glyph glyph-name="circumflex" unicode="&#x2c6;" horiz-adv-x="835" 
d="M102 1178l207 284h217l207 -284h-110l-205 135l-205 -135h-111z" />
    <glyph glyph-name="caron" unicode="&#x2c7;" horiz-adv-x="835" 
d="M733 1462l-207 -284h-217l-207 284h111l205 -135l205 135h110z" />
    <glyph glyph-name="breve" unicode="&#x2d8;" horiz-adv-x="804" 
d="M702 1454q-5 -71 -34 -124.5t-73 -83t-93 -44t-101 -14.5q-53 0 -101.5 14.5t-92 44t-72 83t-33.5 124.5h123q7 -72 60.5 -105.5t115.5 -33.5q65 0 118.5 33.5t60.5 105.5h122z" />
    <glyph glyph-name="dotaccent" unicode="&#x2d9;" horiz-adv-x="444" 
d="M223 1198q-50 0 -85.5 35.5t-35.5 87.5q0 51 35.5 86t85.5 35q48 0 83.5 -35.5t35.5 -85.5q0 -52 -35.5 -87.5t-83.5 -35.5z" />
    <glyph glyph-name="ring" unicode="&#x2da;" horiz-adv-x="638" 
d="M319 1171q-93 0 -155 60.5t-62 152.5q0 90 62 149.5t155 59.5q92 0 155 -59.5t63 -149.5q0 -91 -63 -152t-155 -61zM211 1386q0 -48 31.5 -79t76.5 -31q46 0 78.5 31t32.5 79t-32.5 76.5t-78.5 28.5t-77 -28.5t-31 -76.5z" />
    <glyph glyph-name="ogonek" unicode="&#x2db;" horiz-adv-x="487" 
d="M385 0q-164 -94 -164 -172q0 -39 24.5 -58.5t63.5 -19.5h60v-117h-97q-85 0 -135.5 45t-50.5 117q0 82 51.5 138t134.5 77z" />
    <glyph glyph-name="tilde" unicode="&#x2dc;" horiz-adv-x="858" 
d="M102 1206q0 115 53 175.5t142 60.5q43 0 95.5 -28t97.5 -55.5t69 -27.5q68 0 74 103h123q0 -115 -53 -175.5t-142 -60.5q-43 0 -95.5 28t-97.5 55.5t-69 27.5q-68 0 -74 -103h-123z" />
    <glyph glyph-name="hungarumlaut" unicode="&#x2dd;" horiz-adv-x="860" 
d="M205 1462h225l-215 -284h-113zM430 1178l102 284h226l-215 -284h-113z" />
    <glyph glyph-name="gravecomb" unicode="&#x300;" 
d="M344 1462l102 -284h-122l-220 284h240z" />
    <glyph glyph-name="acutecomb" unicode="&#x301;" 
d="M197 1462h239l-219 -284h-123z" />
    <glyph glyph-name="uni0302" unicode="&#x302;" 
d="M129 1178l207 284h217l207 -284h-111l-205 135l-204 -135h-111z" />
    <glyph glyph-name="tildecomb" unicode="&#x303;" 
d="M102 1206q0 115 53 175.5t142 60.5q43 0 95.5 -28t97.5 -55.5t69 -27.5q68 0 74 103h123q0 -115 -53 -175.5t-142 -60.5q-43 0 -95.5 28t-97.5 55.5t-69 27.5q-68 0 -74 -103h-123z" />
    <glyph glyph-name="uni0304" unicode="&#x304;" 
d="M688 1386v-133h-586v133h586z" />
    <glyph glyph-name="uni0306" unicode="&#x306;" 
d="M702 1454q-5 -71 -34 -124.5t-73 -83t-93 -44t-101 -14.5q-53 0 -101.5 14.5t-92 44t-72 83t-33.5 124.5h123q7 -72 60.5 -105.5t115.5 -33.5q65 0 118.5 33.5t60.5 105.5h122z" />
    <glyph glyph-name="uni0307" unicode="&#x307;" 
d="M223 1198q-50 0 -85.5 35.5t-35.5 87.5q0 51 35.5 86t85.5 35q48 0 83.5 -35.5t35.5 -85.5q0 -52 -35.5 -87.5t-83.5 -35.5z" />
    <glyph glyph-name="uni0308" unicode="&#x308;" 
d="M223 1198q-50 0 -85.5 35.5t-35.5 87.5q0 51 35.5 86t85.5 35q48 0 83.5 -35.5t35.5 -85.5q0 -52 -35.5 -87.5t-83.5 -35.5zM471 1321q0 51 35.5 86t85.5 35q48 0 83.5 -35.5t35.5 -85.5q0 -52 -35.5 -87.5t-83.5 -35.5q-50 0 -85.5 35.5t-35.5 87.5z" />
    <glyph glyph-name="hookabovecomb" unicode="&#x309;" 
d="M156 1151q-1 33 14.5 60.5t38 45.5t45 32.5t38 29t15.5 27.5q0 45 -117 45h-88v116h121q221 0 221 -145q0 -32 -17 -59t-41 -45t-47.5 -34t-40.5 -34.5t-17 -38.5h-125z" />
    <glyph glyph-name="uni030A" unicode="&#x30a;" 
d="M319 1171q-93 0 -155 60.5t-62 152.5q0 90 62 149.5t155 59.5q92 0 155 -59.5t63 -149.5q0 -91 -63 -152t-155 -61zM211 1386q0 -48 31.5 -79t76.5 -31q46 0 78.5 31t32.5 79t-32.5 76.5t-78.5 28.5t-77 -28.5t-31 -76.5z" />
    <glyph glyph-name="uni030B" unicode="&#x30b;" 
d="M205 1462h225l-215 -284h-113zM430 1178l102 284h226l-215 -284h-113z" />
    <glyph glyph-name="uni030C" unicode="&#x30c;" 
d="M733 1462l-207 -284h-217l-207 284h111l205 -135l205 135h110z" />
    <glyph glyph-name="uni030F" unicode="&#x30f;" 
d="M655 1462l103 -284h-113l-215 284h225zM102 1462h226l102 -284h-113z" />
    <glyph glyph-name="uni0311" unicode="&#x311;" 
d="M580 1188q-7 72 -60.5 105.5t-118.5 33.5q-62 0 -115.5 -33.5t-60.5 -105.5h-123q5 71 33.5 124.5t72 83t92 44t101.5 14.5q52 0 101 -14.5t93 -44t73 -83t34 -124.5h-122z" />
    <glyph glyph-name="uni0312" unicode="&#x312;" 
d="M485 1470q-73 0 -110 -39.5t-37 -132.5v-120h-166v127q0 157 86.5 235t220.5 78h19v-148h-13z" />
    <glyph glyph-name="dotbelowcomb" unicode="&#x323;" 
d="M223 -391q-50 0 -85.5 35.5t-35.5 87.5q0 51 35.5 86t85.5 35q48 0 83.5 -35.5t35.5 -85.5q0 -52 -35.5 -87.5t-83.5 -35.5z" />
    <glyph glyph-name="uni0324" unicode="&#x324;" 
d="M223 -391q-50 0 -85.5 35.5t-35.5 87.5q0 51 35.5 86t85.5 35q48 0 83.5 -35.5t35.5 -85.5q0 -52 -35.5 -87.5t-83.5 -35.5zM471 -268q0 51 35.5 86t85.5 35q48 0 83.5 -35.5t35.5 -85.5q0 -52 -35.5 -87.5t-83.5 -35.5q-50 0 -85.5 35.5t-35.5 87.5z" />
    <glyph glyph-name="uni0325" unicode="&#x325;" 
d="M344 -666q-101 0 -171.5 68t-70.5 168q0 99 70.5 165t171.5 66q100 0 171 -66.5t71 -164.5q0 -100 -71 -168t-171 -68zM223 -428q0 -54 35 -88.5t86 -34.5t87 34.5t36 88.5t-35.5 85.5t-87.5 31.5q-51 0 -86 -31.5t-35 -85.5z" />
    <glyph glyph-name="uni0326" unicode="&#x326;" 
d="M14 -422q73 0 110.5 39.5t37.5 132.5v121h166v-127q0 -157 -87 -235t-221 -78h-18v147h12z" />
    <glyph glyph-name="uni0327" unicode="&#x327;" 
d="M324 -90q95 0 148.5 -37.5t53.5 -105.5q0 -69 -55.5 -111.5t-148.5 -42.5h-172v104h178q65 0 65 50q0 49 -65 49h-119v84l102 168l88 -58z" />
    <glyph glyph-name="uni0328" unicode="&#x328;" 
d="M385 0q-164 -94 -164 -172q0 -39 24.5 -58.5t63.5 -19.5h60v-117h-97q-85 0 -135.5 45t-50.5 117q0 82 51.5 138t134.5 77z" />
    <glyph glyph-name="uni032D" unicode="&#x32d;" 
d="M786 -399h-122l-220 102l-219 -102h-123l220 243h245z" />
    <glyph glyph-name="uni032E" unicode="&#x32e;" 
d="M702 -150q-5 -68 -34 -119t-73.5 -78.5t-93 -40.5t-100.5 -13q-53 0 -101.5 13t-92 40.5t-72 78.5t-33.5 119h123q7 -67 59.5 -95.5t116.5 -28.5q30 0 57.5 5.5t54.5 18.5t45 38.5t22 61.5h122z" />
    <glyph glyph-name="uni0330" unicode="&#x330;" 
d="M102 -383q0 119 56 179.5t149 60.5q48 0 112.5 -25.5t120 -51.5t83.5 -26q77 0 84 94h122q0 -124 -54.5 -181.5t-149.5 -57.5q-48 0 -112.5 25.5t-120 51t-83.5 25.5q-77 0 -84 -94h-123z" />
    <glyph glyph-name="uni0331" unicode="&#x331;" 
d="M700 -205v-133h-598v133h598z" />
    <glyph glyph-name="uni0378" unicode="&#x378;" horiz-adv-x="489" 
d="M102 889q138 10 138 131v115h147v-95q0 -36 -5.5 -70t-24 -74.5t-48.5 -70t-83.5 -51t-123.5 -24.5v139z" />
    <glyph glyph-name="uni03A9" unicode="&#x3a9;" horiz-adv-x="1544" 
d="M424 174q-170 91 -266.5 249t-96.5 335q0 195 90 355.5t253.5 254.5t367.5 94q152 0 285 -54.5t226 -148.5t146.5 -223.5t53.5 -275.5q0 -177 -98 -335t-269 -251h350v-174h-606v201q183 61 302.5 207t119.5 348q0 155 -71.5 277t-187 186.5t-251.5 64.5
q-137 0 -252.5 -64.5t-186.5 -186.5t-71 -277q0 -202 119.5 -348t302.5 -207v-201h-606v174h346z" />
    <glyph glyph-name="pi" unicode="&#x3c0;" horiz-adv-x="1222" 
d="M770 401v502h-387v-903h-180v903h-207v162h1198v-162h-244v-493q0 -114 66 -182t172 -68h24v-160h-57q-159 0 -272 112.5t-113 288.5z" />
    <glyph glyph-name="uni0E3F" unicode="&#xe3f;" horiz-adv-x="1224" 
d="M113 0v1405h405v213h152v-213h28q119 0 215.5 -42.5t156.5 -130.5t60 -208q0 -103 -54 -179t-138 -118q105 -40 170.5 -123.5t65.5 -208.5q0 -121 -67 -213t-172 -137t-228 -45h-37v-213h-152v213h-405zM307 172h211v457h-211v-457zM307 799h211v434h-211v-434zM670 172
h22q130 0 206.5 54.5t76.5 176.5q0 226 -283 226h-22v-457zM670 799q123 0 192.5 49t69.5 166q0 219 -262 219v-434z" />
    <glyph glyph-name="uni1E20" unicode="&#x1e20;" horiz-adv-x="1490" 
d="M1219 752q98 0 150 -52.5t52 -150.5v-549h-129l-32 193q-77 -99 -206.5 -160.5t-297.5 -61.5q-205 0 -366 96t-250 266.5t-89 385.5q0 161 54 299.5t149 236t228.5 152.5t287.5 55q140 0 259.5 -43t201.5 -117t133.5 -170t65.5 -204h-197q-17 73 -52.5 135t-91.5 113
t-140 79.5t-187 28.5q-105 0 -197.5 -38.5t-162 -109.5t-110 -179t-40.5 -240q0 -265 143.5 -416t378.5 -151q197 0 332 124.5t135 305.5h-547v172h525zM471 1612v133h598v-133h-598z" />
    <glyph glyph-name="uni1E21" unicode="&#x1e21;" horiz-adv-x="1150" 
d="M573 -356q-218 0 -349 91.5t-138 264.5h182q11 -190 305 -190q64 0 118 14t100 45t72 86.5t26 130.5v119q-60 -75 -152 -119.5t-194 -44.5q-92 0 -177.5 35t-154 99t-109.5 165.5t-41 224.5q0 126 42.5 228t114.5 167t163.5 99.5t191.5 34.5q222 0 359 -143.5t137 -370.5
v-504q0 -108 -41 -192.5t-111 -135.5t-157.5 -77.5t-186.5 -26.5zM254 563q0 -167 92.5 -261.5t218.5 -94.5q63 0 120 21.5t104.5 64t75.5 113.5t28 161q0 177 -90.5 269t-229.5 92q-140 0 -229.5 -93t-89.5 -272zM281 1253v133h585v-133h-585z" />
    <glyph glyph-name="Wgrave" unicode="&#x1e80;" horiz-adv-x="1992" 
d="M453 0l-433 1434h209l351 -1174l315 1174h201l329 -1178l342 1178h205l-422 -1434h-243l-310 1092l-299 -1092h-245zM688 1800h262l115 -244h-135z" />
    <glyph glyph-name="wgrave" unicode="&#x1e81;" horiz-adv-x="1630" 
d="M383 0l-352 1065h196l252 -793l260 793h160l264 -799l246 799h190l-344 -1065h-178l-256 786l-256 -786h-182zM539 1462h239l103 -284h-123z" />
    <glyph glyph-name="Wacute" unicode="&#x1e82;" horiz-adv-x="1992" 
d="M453 0l-433 1434h209l351 -1174l315 1174h201l329 -1178l342 1178h205l-422 -1434h-243l-310 1092l-299 -1092h-245zM924 1556l114 244h262l-241 -244h-135z" />
    <glyph glyph-name="wacute" unicode="&#x1e83;" horiz-adv-x="1630" 
d="M383 0l-352 1065h196l252 -793l260 793h160l264 -799l246 799h190l-344 -1065h-178l-256 786l-256 -786h-182zM748 1178l102 284h240l-220 -284h-122z" />
    <glyph glyph-name="Wdieresis" unicode="&#x1e84;" horiz-adv-x="1992" 
d="M453 0l-433 1434h209l351 -1174l315 1174h201l329 -1178l342 1178h205l-422 -1434h-243l-310 1092l-299 -1092h-245zM692 1679q0 51 35.5 86t85.5 35q48 0 83.5 -35.5t35.5 -85.5q0 -52 -35.5 -87.5t-83.5 -35.5q-50 0 -85.5 35.5t-35.5 87.5zM1061 1679q0 51 35.5 86
t85.5 35q48 0 83 -35.5t35 -85.5q0 -52 -35 -87.5t-83 -35.5q-50 0 -85.5 35.5t-35.5 87.5z" />
    <glyph glyph-name="wdieresis" unicode="&#x1e85;" horiz-adv-x="1630" 
d="M383 0l-352 1065h196l252 -793l260 793h160l264 -799l246 799h190l-344 -1065h-178l-256 786l-256 -786h-182zM512 1321q0 51 35.5 86t85.5 35q48 0 83.5 -35.5t35.5 -85.5q0 -52 -35.5 -87.5t-83.5 -35.5q-50 0 -85.5 35.5t-35.5 87.5zM881 1321q0 51 35 86t85 35
q48 0 83.5 -35.5t35.5 -85.5q0 -52 -35.5 -87.5t-83.5 -35.5q-50 0 -85 35.5t-35 87.5z" />
    <glyph glyph-name="uni1E9E" unicode="&#x1e9e;" horiz-adv-x="1409" 
d="M700 1284q-210 0 -311.5 -110t-101.5 -334v-840h-195v850q0 294 161 453t456 159q220 0 452 -35v-176q-49 0 -106 -15t-111 -43t-89.5 -76t-35.5 -105q0 -40 7.5 -67t30 -55.5t67 -53t116.5 -48.5q158 -54 248 -155t90 -254q0 -81 -29.5 -153.5t-85.5 -130t-147 -91
t-205 -33.5q-102 0 -189.5 29.5t-155 87t-105.5 150.5t-37 211h192q-1 -155 81 -229.5t218 -74.5q115 0 190 59t75 169q0 171 -183 233q-214 71 -295 155.5t-81 217.5q0 204 184 305h-105z" />
    <glyph glyph-name="uni1EA0" unicode="&#x1ea0;" horiz-adv-x="1361" 
d="M0 0l565 1434h199l598 -1434h-207l-147 367h-666l-139 -367h-203zM408 539h530l-272 678zM561 -268q0 51 35.5 86t85.5 35q48 0 83.5 -35.5t35.5 -85.5q0 -52 -35.5 -87.5t-83.5 -35.5q-50 0 -85.5 35.5t-35.5 87.5z" />
    <glyph glyph-name="uni1EA1" unicode="&#x1ea1;" horiz-adv-x="1165" 
d="M436 -29q-165 0 -270 80t-105 232q0 122 88 211t236 104q56 6 128 12.5t113 10t85 9.5t70.5 14t41.5 20v32q0 107 -77.5 169.5t-198.5 62.5q-126 0 -204 -62t-81 -178h-182q3 178 137 292t334 114q120 0 221 -46.5t165.5 -140.5t66.5 -219v-401q0 -127 126 -127h25v-160
h-55q-86 0 -152 38t-98 116q-56 -85 -165.5 -134t-248.5 -49zM248 289q0 -74 54.5 -115t148.5 -41q151 0 261.5 83t110.5 202v84q-13 -10 -35 -16.5t-64 -12t-74.5 -8.5t-106 -9t-119.5 -10q-176 -17 -176 -157zM461 -268q0 51 35.5 86t85.5 35q48 0 83 -35.5t35 -85.5
q0 -52 -35 -87.5t-83 -35.5q-50 0 -85.5 35.5t-35.5 87.5z" />
    <glyph glyph-name="uni1EA2" unicode="&#x1ea2;" horiz-adv-x="1361" 
d="M0 0l565 1434h199l598 -1434h-207l-147 367h-666l-139 -367h-203zM408 539h530l-272 678zM512 1749v117h174q91 0 143 -33t52 -98q0 -32 -17 -57.5t-41.5 -41.5t-49 -30t-41.5 -31t-17 -37h-117q-1 33 13.5 59t35 42t41 28.5t35 25t14.5 25.5q0 31 -67 31h-158z" />
    <glyph glyph-name="uni1EA3" unicode="&#x1ea3;" horiz-adv-x="1165" 
d="M436 -29q-165 0 -270 80t-105 232q0 122 88 211t236 104q56 6 128 12.5t113 10t85 9.5t70.5 14t41.5 20v32q0 107 -77.5 169.5t-198.5 62.5q-126 0 -204 -62t-81 -178h-182q3 178 137 292t334 114q120 0 221 -46.5t165.5 -140.5t66.5 -219v-401q0 -127 126 -127h25v-160
h-55q-86 0 -152 38t-98 116q-56 -85 -165.5 -134t-248.5 -49zM248 289q0 -74 54.5 -115t148.5 -41q151 0 261.5 83t110.5 202v84q-13 -10 -35 -16.5t-64 -12t-74.5 -8.5t-106 -9t-119.5 -10q-176 -17 -176 -157zM424 1391v116h121q221 0 221 -145q0 -32 -17 -59t-41 -45
t-48 -34t-41 -34.5t-17 -38.5h-125q-1 40 23 73t52.5 50.5t52.5 36.5t24 35q0 45 -117 45h-88z" />
    <glyph glyph-name="uni1EA4" unicode="&#x1ea4;" horiz-adv-x="1361" 
d="M0 0l565 1434h199l598 -1434h-207l-147 367h-666l-139 -367h-203zM322 1556l219 244h245l220 -244h-123l-219 103l-220 -103h-122zM408 539h530l-272 678zM592 1888l115 244h262l-242 -244h-135z" />
    <glyph glyph-name="uni1EA5" unicode="&#x1ea5;" horiz-adv-x="1165" 
d="M436 -29q-165 0 -270 80t-105 232q0 122 88 211t236 104q56 6 128 12.5t113 10t85 9.5t70.5 14t41.5 20v32q0 107 -77.5 169.5t-198.5 62.5q-126 0 -204 -62t-81 -178h-182q3 178 137 292t334 114q120 0 221 -46.5t165.5 -140.5t66.5 -219v-401q0 -127 126 -127h25v-160
h-55q-86 0 -152 38t-98 116q-56 -85 -165.5 -134t-248.5 -49zM240 1178l206 284h218l206 -284h-110l-205 135l-205 -135h-110zM248 289q0 -74 54.5 -115t148.5 -41q151 0 261.5 83t110.5 202v84q-13 -10 -35 -16.5t-64 -12t-74.5 -8.5t-106 -9t-119.5 -10
q-176 -17 -176 -157zM485 1534l103 285h239l-219 -285h-123z" />
    <glyph glyph-name="uni1EA6" unicode="&#x1ea6;" horiz-adv-x="1361" 
d="M0 0l565 1434h199l598 -1434h-207l-147 367h-666l-139 -367h-203zM322 1556l219 244h245l220 -244h-123l-219 103l-220 -103h-122zM356 2132h262l115 -244h-135zM408 539h530l-272 678z" />
    <glyph glyph-name="uni1EA7" unicode="&#x1ea7;" horiz-adv-x="1165" 
d="M436 -29q-165 0 -270 80t-105 232q0 122 88 211t236 104q56 6 128 12.5t113 10t85 9.5t70.5 14t41.5 20v32q0 107 -77.5 169.5t-198.5 62.5q-126 0 -204 -62t-81 -178h-182q3 178 137 292t334 114q120 0 221 -46.5t165.5 -140.5t66.5 -219v-401q0 -127 126 -127h25v-160
h-55q-86 0 -152 38t-98 116q-56 -85 -165.5 -134t-248.5 -49zM240 1178l206 284h218l206 -284h-110l-205 135l-205 -135h-110zM248 289q0 -74 54.5 -115t148.5 -41q151 0 261.5 83t110.5 202v84q-13 -10 -35 -16.5t-64 -12t-74.5 -8.5t-106 -9t-119.5 -10
q-176 -17 -176 -157zM276 1819h240l102 -285h-122z" />
    <glyph glyph-name="uni1EA8" unicode="&#x1ea8;" horiz-adv-x="1361" 
d="M0 0l565 1434h199l598 -1434h-207l-147 367h-666l-139 -367h-203zM322 1556l219 244h245l220 -244h-123l-219 103l-220 -103h-122zM408 539h530l-272 678zM512 2081v117h174q91 0 143 -33t52 -99q0 -39 -26 -69t-57 -45t-57 -36.5t-26 -45.5h-117q-1 33 13.5 59t35 42
t41 28.5t35 25t14.5 25.5q0 31 -67 31h-158z" />
    <glyph glyph-name="uni1EA9" unicode="&#x1ea9;" horiz-adv-x="1165" 
d="M436 -29q-165 0 -270 80t-105 232q0 122 88 211t236 104q56 6 128 12.5t113 10t85 9.5t70.5 14t41.5 20v32q0 107 -77.5 169.5t-198.5 62.5q-126 0 -204 -62t-81 -178h-182q3 178 137 292t334 114q120 0 221 -46.5t165.5 -140.5t66.5 -219v-401q0 -127 126 -127h25v-160
h-55q-86 0 -152 38t-98 116q-56 -85 -165.5 -134t-248.5 -49zM240 1178l206 284h218l206 -284h-110l-205 135l-205 -135h-110zM248 289q0 -74 54.5 -115t148.5 -41q151 0 261.5 83t110.5 202v84q-13 -10 -35 -16.5t-64 -12t-74.5 -8.5t-106 -9t-119.5 -10
q-176 -17 -176 -157zM424 1747v117h121q103 0 162 -35.5t59 -110.5q0 -32 -17 -59t-41 -45t-48 -34t-41 -34.5t-17 -38.5h-125q-1 40 23 73t52.5 50.5t52.5 36.5t24 35q0 45 -117 45h-88z" />
    <glyph glyph-name="uni1EAA" unicode="&#x1eaa;" horiz-adv-x="1361" 
d="M0 0l565 1434h199l598 -1434h-207l-147 367h-666l-139 -367h-203zM301 1894q0 119 56 179.5t149 60.5q48 0 112 -25.5t119.5 -51t83.5 -25.5q77 0 84 94h123q0 -124 -55 -182t-150 -58q-48 0 -112 26t-119.5 51.5t-83.5 25.5q-77 0 -84 -95h-123zM322 1556l219 244h245
l220 -244h-123l-219 103l-220 -103h-122zM408 539h530l-272 678z" />
    <glyph glyph-name="uni1EAB" unicode="&#x1eab;" horiz-adv-x="1165" 
d="M436 -29q-165 0 -270 80t-105 232q0 122 88 211t236 104q56 6 128 12.5t113 10t85 9.5t70.5 14t41.5 20v32q0 107 -77.5 169.5t-198.5 62.5q-126 0 -204 -62t-81 -178h-182q3 178 137 292t334 114q120 0 221 -46.5t165.5 -140.5t66.5 -219v-401q0 -127 126 -127h25v-160
h-55q-86 0 -152 38t-98 116q-56 -85 -165.5 -134t-248.5 -49zM227 1563q0 115 53 175t142 60q43 0 95.5 -27.5t97.5 -55t69 -27.5q68 0 74 102h123q0 -115 -53 -175.5t-142 -60.5q-43 0 -95.5 28t-97.5 55.5t-69 27.5q-68 0 -74 -102h-123zM240 1178l206 284h218l206 -284
h-110l-205 135l-205 -135h-110zM248 289q0 -74 54.5 -115t148.5 -41q151 0 261.5 83t110.5 202v84q-13 -10 -35 -16.5t-64 -12t-74.5 -8.5t-106 -9t-119.5 -10q-176 -17 -176 -157z" />
    <glyph glyph-name="uni1EAC" unicode="&#x1eac;" horiz-adv-x="1361" 
d="M0 0l565 1434h199l598 -1434h-207l-147 367h-666l-139 -367h-203zM322 1556l219 244h245l220 -244h-123l-219 103l-220 -103h-122zM408 539h530l-272 678zM561 -268q0 51 35.5 86t85.5 35q48 0 83.5 -35.5t35.5 -85.5q0 -52 -35.5 -87.5t-83.5 -35.5q-50 0 -85.5 35.5
t-35.5 87.5z" />
    <glyph glyph-name="uni1EAD" unicode="&#x1ead;" horiz-adv-x="1165" 
d="M436 -29q-165 0 -270 80t-105 232q0 122 88 211t236 104q56 6 128 12.5t113 10t85 9.5t70.5 14t41.5 20v32q0 107 -77.5 169.5t-198.5 62.5q-126 0 -204 -62t-81 -178h-182q3 178 137 292t334 114q120 0 221 -46.5t165.5 -140.5t66.5 -219v-401q0 -127 126 -127h25v-160
h-55q-86 0 -152 38t-98 116q-56 -85 -165.5 -134t-248.5 -49zM240 1178l206 284h218l206 -284h-110l-205 135l-205 -135h-110zM248 289q0 -74 54.5 -115t148.5 -41q151 0 261.5 83t110.5 202v84q-13 -10 -35 -16.5t-64 -12t-74.5 -8.5t-106 -9t-119.5 -10
q-176 -17 -176 -157zM461 -268q0 51 35.5 86t85.5 35q48 0 83 -35.5t35 -85.5q0 -52 -35 -87.5t-83 -35.5q-50 0 -85.5 35.5t-35.5 87.5z" />
    <glyph glyph-name="uni1EAE" unicode="&#x1eae;" horiz-adv-x="1361" 
d="M0 0l565 1434h199l598 -1434h-207l-147 367h-666l-139 -367h-203zM365 1808h122q7 -67 60 -96t117 -29q41 0 76.5 9.5t66 39t35.5 76.5h123q-5 -68 -34 -119t-73.5 -79t-93 -41t-100.5 -13q-53 0 -101.5 13t-92 41t-72 79t-33.5 119zM408 539h530l-272 678zM592 1882
l115 244h262l-242 -244h-135z" />
    <glyph glyph-name="uni1EAF" unicode="&#x1eaf;" horiz-adv-x="1165" 
d="M436 -29q-165 0 -270 80t-105 232q0 122 88 211t236 104q56 6 128 12.5t113 10t85 9.5t70.5 14t41.5 20v32q0 107 -77.5 169.5t-198.5 62.5q-126 0 -204 -62t-81 -178h-182q3 178 137 292t334 114q120 0 221 -46.5t165.5 -140.5t66.5 -219v-401q0 -127 126 -127h25v-160
h-55q-86 0 -152 38t-98 116q-56 -85 -165.5 -134t-248.5 -49zM248 289q0 -74 54.5 -115t148.5 -41q151 0 261.5 83t110.5 202v84q-13 -10 -35 -16.5t-64 -12t-74.5 -8.5t-106 -9t-119.5 -10q-176 -17 -176 -157zM254 1454h123q7 -72 60.5 -105.5t115.5 -33.5q65 0 118 33.5
t60 105.5h123q-5 -71 -34 -124.5t-73 -83t-93 -44t-101 -14.5q-53 0 -101.5 14.5t-92 44t-72 83t-33.5 124.5zM485 1516l103 284h239l-219 -284h-123z" />
    <glyph glyph-name="uni1EB0" unicode="&#x1eb0;" horiz-adv-x="1361" 
d="M0 0l565 1434h199l598 -1434h-207l-147 367h-666l-139 -367h-203zM356 2126h262l115 -244h-135zM365 1808h122q7 -67 60 -96t117 -29q41 0 76.5 9.5t66 39t35.5 76.5h123q-5 -68 -34 -119t-73.5 -79t-93 -41t-100.5 -13q-53 0 -101.5 13t-92 41t-72 79t-33.5 119z
M408 539h530l-272 678z" />
    <glyph glyph-name="uni1EB1" unicode="&#x1eb1;" horiz-adv-x="1165" 
d="M436 -29q-165 0 -270 80t-105 232q0 122 88 211t236 104q56 6 128 12.5t113 10t85 9.5t70.5 14t41.5 20v32q0 107 -77.5 169.5t-198.5 62.5q-126 0 -204 -62t-81 -178h-182q3 178 137 292t334 114q120 0 221 -46.5t165.5 -140.5t66.5 -219v-401q0 -127 126 -127h25v-160
h-55q-86 0 -152 38t-98 116q-56 -85 -165.5 -134t-248.5 -49zM248 289q0 -74 54.5 -115t148.5 -41q151 0 261.5 83t110.5 202v84q-13 -10 -35 -16.5t-64 -12t-74.5 -8.5t-106 -9t-119.5 -10q-176 -17 -176 -157zM254 1454h123q7 -72 60.5 -105.5t115.5 -33.5q65 0 118 33.5
t60 105.5h123q-5 -71 -34 -124.5t-73 -83t-93 -44t-101 -14.5q-53 0 -101.5 14.5t-92 44t-72 83t-33.5 124.5zM276 1800h240l102 -284h-122z" />
    <glyph glyph-name="uni1EB2" unicode="&#x1eb2;" horiz-adv-x="1361" 
d="M0 0l565 1434h199l598 -1434h-207l-147 367h-666l-139 -367h-203zM365 1808h122q7 -67 60 -96t117 -29q41 0 76.5 9.5t66 39t35.5 76.5h123q-5 -68 -34 -119t-73.5 -79t-93 -41t-100.5 -13q-53 0 -101.5 13t-92 41t-72 79t-33.5 119zM408 539h530l-272 678zM512 2075v116
h174q91 0 143 -33t52 -98q0 -39 -26 -69t-57 -45t-57 -36.5t-26 -45.5h-117q-1 33 13.5 59t35 42t41 28.5t35 25t14.5 25.5q0 31 -67 31h-158z" />
    <glyph glyph-name="uni1EB3" unicode="&#x1eb3;" horiz-adv-x="1165" 
d="M436 -29q-165 0 -270 80t-105 232q0 122 88 211t236 104q56 6 128 12.5t113 10t85 9.5t70.5 14t41.5 20v32q0 107 -77.5 169.5t-198.5 62.5q-126 0 -204 -62t-81 -178h-182q3 178 137 292t334 114q120 0 221 -46.5t165.5 -140.5t66.5 -219v-401q0 -127 126 -127h25v-160
h-55q-86 0 -152 38t-98 116q-56 -85 -165.5 -134t-248.5 -49zM248 289q0 -74 54.5 -115t148.5 -41q151 0 261.5 83t110.5 202v84q-13 -10 -35 -16.5t-64 -12t-74.5 -8.5t-106 -9t-119.5 -10q-176 -17 -176 -157zM254 1454h123q7 -72 60.5 -105.5t115.5 -33.5q65 0 118 33.5
t60 105.5h123q-5 -71 -34 -124.5t-73 -83t-93 -44t-101 -14.5q-53 0 -101.5 14.5t-92 44t-72 83t-33.5 124.5zM424 1729v116h121q221 0 221 -145q0 -32 -17 -59t-41 -45t-48 -34t-41 -34.5t-17 -38.5h-125q-1 40 23 72.5t52.5 50t52.5 36.5t24 35q0 46 -117 46h-88z" />
    <glyph glyph-name="uni1EB4" unicode="&#x1eb4;" horiz-adv-x="1361" 
d="M0 0l565 1434h199l598 -1434h-207l-147 367h-666l-139 -367h-203zM301 1888q0 119 56 179.5t149 60.5q48 0 112 -26t119.5 -51.5t83.5 -25.5q77 0 84 95h123q0 -124 -55 -182t-150 -58q-48 0 -112 25.5t-119.5 51t-83.5 25.5q-77 0 -84 -94h-123zM365 1808h122
q7 -67 60 -96t117 -29q41 0 76.5 9.5t66 39t35.5 76.5h123q-5 -68 -34 -119t-73.5 -79t-93 -41t-100.5 -13q-53 0 -101.5 13t-92 41t-72 79t-33.5 119zM408 539h530l-272 678z" />
    <glyph glyph-name="uni1EB5" unicode="&#x1eb5;" horiz-adv-x="1165" 
d="M436 -29q-165 0 -270 80t-105 232q0 122 88 211t236 104q56 6 128 12.5t113 10t85 9.5t70.5 14t41.5 20v32q0 107 -77.5 169.5t-198.5 62.5q-126 0 -204 -62t-81 -178h-182q3 178 137 292t334 114q120 0 221 -46.5t165.5 -140.5t66.5 -219v-401q0 -127 126 -127h25v-160
h-55q-86 0 -152 38t-98 116q-56 -85 -165.5 -134t-248.5 -49zM227 1544q0 115 53 175.5t142 60.5q43 0 95.5 -28t97.5 -55.5t69 -27.5q68 0 74 103h123q0 -115 -53 -175.5t-142 -60.5q-43 0 -95.5 28t-97.5 55.5t-69 27.5q-68 0 -74 -103h-123zM248 289q0 -74 54.5 -115
t148.5 -41q151 0 261.5 83t110.5 202v84q-13 -10 -35 -16.5t-64 -12t-74.5 -8.5t-106 -9t-119.5 -10q-176 -17 -176 -157zM254 1454h123q7 -72 60.5 -105.5t115.5 -33.5q65 0 118 33.5t60 105.5h123q-5 -71 -34 -124.5t-73 -83t-93 -44t-101 -14.5q-53 0 -101.5 14.5t-92 44
t-72 83t-33.5 124.5z" />
    <glyph glyph-name="uni1EB6" unicode="&#x1eb6;" horiz-adv-x="1361" 
d="M0 0l565 1434h199l598 -1434h-207l-147 367h-666l-139 -367h-203zM365 1808h122q7 -67 60 -96t117 -29q41 0 76.5 9.5t66 39t35.5 76.5h123q-5 -68 -34 -119t-73.5 -79t-93 -41t-100.5 -13q-53 0 -101.5 13t-92 41t-72 79t-33.5 119zM408 539h530l-272 678zM561 -268
q0 51 35.5 86t85.5 35q48 0 83.5 -35.5t35.5 -85.5q0 -52 -35.5 -87.5t-83.5 -35.5q-50 0 -85.5 35.5t-35.5 87.5z" />
    <glyph glyph-name="uni1EB7" unicode="&#x1eb7;" horiz-adv-x="1165" 
d="M436 -29q-165 0 -270 80t-105 232q0 122 88 211t236 104q56 6 128 12.5t113 10t85 9.5t70.5 14t41.5 20v32q0 107 -77.5 169.5t-198.5 62.5q-126 0 -204 -62t-81 -178h-182q3 178 137 292t334 114q120 0 221 -46.5t165.5 -140.5t66.5 -219v-401q0 -127 126 -127h25v-160
h-55q-86 0 -152 38t-98 116q-56 -85 -165.5 -134t-248.5 -49zM248 289q0 -74 54.5 -115t148.5 -41q151 0 261.5 83t110.5 202v84q-13 -10 -35 -16.5t-64 -12t-74.5 -8.5t-106 -9t-119.5 -10q-176 -17 -176 -157zM254 1454h123q7 -72 60.5 -105.5t115.5 -33.5q65 0 118 33.5
t60 105.5h123q-5 -71 -34 -124.5t-73 -83t-93 -44t-101 -14.5q-53 0 -101.5 14.5t-92 44t-72 83t-33.5 124.5zM461 -268q0 51 35.5 86t85.5 35q48 0 83 -35.5t35 -85.5q0 -52 -35 -87.5t-83 -35.5q-50 0 -85.5 35.5t-35.5 87.5z" />
    <glyph glyph-name="uni1EB8" unicode="&#x1eb8;" horiz-adv-x="1118" 
d="M1087 172v-172h-524q-222 0 -356.5 131t-134.5 361v450q0 230 134.5 361t356.5 131h510v-172h-479q-160 0 -244 -84t-84 -244v-115h729v-172h-729v-147q0 -160 84 -244t244 -84h493zM545 -268q0 51 35.5 86t85.5 35q48 0 83 -35.5t35 -85.5q0 -52 -35 -87.5t-83 -35.5
q-50 0 -85.5 35.5t-35.5 87.5z" />
    <glyph glyph-name="uni1EB9" unicode="&#x1eb9;" horiz-adv-x="1122" 
d="M578 -29q-108 0 -202.5 36t-167.5 104t-115 177.5t-42 246.5q0 258 146.5 410t373.5 149q124 -1 222 -47t157 -121.5t90 -167.5t31 -193q0 -43 -6 -90h-825q11 -168 106 -253t236 -85q121 0 196.5 50.5t102.5 140.5h184q-28 -159 -158.5 -258t-328.5 -99zM244 631h637
q-16 151 -102 224t-212 73q-133 0 -218.5 -72.5t-104.5 -224.5zM457 -268q0 51 35.5 86t85.5 35q48 0 83 -35.5t35 -85.5q0 -52 -35 -87.5t-83 -35.5q-50 0 -85.5 35.5t-35.5 87.5z" />
    <glyph glyph-name="uni1EBA" unicode="&#x1eba;" horiz-adv-x="1118" 
d="M1087 172v-172h-524q-222 0 -356.5 131t-134.5 361v450q0 230 134.5 361t356.5 131h510v-172h-479q-160 0 -244 -84t-84 -244v-115h729v-172h-729v-147q0 -160 84 -244t244 -84h493zM512 1749v117h174q91 0 143 -33t52 -98q0 -32 -17 -57.5t-41.5 -41.5t-49 -30
t-41.5 -31t-17 -37h-117q-1 33 13.5 59t35 42t41 28.5t35 25t14.5 25.5q0 31 -67 31h-158z" />
    <glyph glyph-name="uni1EBB" unicode="&#x1ebb;" horiz-adv-x="1122" 
d="M578 -29q-108 0 -202.5 36t-167.5 104t-115 177.5t-42 246.5q0 258 146.5 410t373.5 149q124 -1 222 -47t157 -121.5t90 -167.5t31 -193q0 -43 -6 -90h-825q11 -168 106 -253t236 -85q121 0 196.5 50.5t102.5 140.5h184q-28 -159 -158.5 -258t-328.5 -99zM244 631h637
q-16 151 -102 224t-212 73q-133 0 -218.5 -72.5t-104.5 -224.5zM436 1391v116h121q221 0 221 -145q0 -32 -17 -59t-41 -45t-48 -34t-41 -34.5t-17 -38.5h-125q-1 40 23 73t52.5 50.5t52.5 36.5t24 35q0 45 -117 45h-88z" />
    <glyph glyph-name="uni1EBC" unicode="&#x1ebc;" horiz-adv-x="1118" 
d="M1087 172v-172h-524q-222 0 -356.5 131t-134.5 361v450q0 230 134.5 361t356.5 131h510v-172h-479q-160 0 -244 -84t-84 -244v-115h729v-172h-729v-147q0 -160 84 -244t244 -84h493zM301 1563q0 119 56 179t149 60q48 0 112 -25.5t119.5 -51t83.5 -25.5q77 0 84 94h123
q0 -124 -55 -182t-150 -58q-48 0 -112 26t-119.5 51.5t-83.5 25.5q-77 0 -84 -94h-123z" />
    <glyph glyph-name="uni1EBD" unicode="&#x1ebd;" horiz-adv-x="1122" 
d="M578 -29q-108 0 -202.5 36t-167.5 104t-115 177.5t-42 246.5q0 258 146.5 410t373.5 149q124 -1 222 -47t157 -121.5t90 -167.5t31 -193q0 -43 -6 -90h-825q11 -168 106 -253t236 -85q121 0 196.5 50.5t102.5 140.5h184q-28 -159 -158.5 -258t-328.5 -99zM240 1206
q0 115 52.5 175.5t141.5 60.5q43 0 95.5 -28t97.5 -55.5t69 -27.5q68 0 74 103h123q0 -115 -53 -175.5t-142 -60.5q-43 0 -95.5 28t-97.5 55.5t-69 27.5q-68 0 -74 -103h-122zM244 631h637q-16 151 -102 224t-212 73q-133 0 -218.5 -72.5t-104.5 -224.5z" />
    <glyph glyph-name="uni1EBE" unicode="&#x1ebe;" horiz-adv-x="1118" 
d="M1087 172v-172h-524q-222 0 -356.5 131t-134.5 361v450q0 230 134.5 361t356.5 131h510v-172h-479q-160 0 -244 -84t-84 -244v-115h729v-172h-729v-147q0 -160 84 -244t244 -84h493zM322 1556l219 244h245l220 -244h-123l-219 103l-220 -103h-122zM592 1888l115 244h262
l-242 -244h-135z" />
    <glyph glyph-name="uni1EBF" unicode="&#x1ebf;" horiz-adv-x="1122" 
d="M578 -29q-108 0 -202.5 36t-167.5 104t-115 177.5t-42 246.5q0 258 146.5 410t373.5 149q124 -1 222 -47t157 -121.5t90 -167.5t31 -193q0 -43 -6 -90h-825q11 -168 106 -253t236 -85q121 0 196.5 50.5t102.5 140.5h184q-28 -159 -158.5 -258t-328.5 -99zM244 631h637
q-16 151 -102 224t-212 73q-133 0 -218.5 -72.5t-104.5 -224.5zM252 1178l207 284h217l207 -284h-111l-205 135l-205 -135h-110zM498 1534l102 285h240l-219 -285h-123z" />
    <glyph glyph-name="uni1EC0" unicode="&#x1ec0;" horiz-adv-x="1118" 
d="M1087 172v-172h-524q-222 0 -356.5 131t-134.5 361v450q0 230 134.5 361t356.5 131h510v-172h-479q-160 0 -244 -84t-84 -244v-115h729v-172h-729v-147q0 -160 84 -244t244 -84h493zM322 1556l219 244h245l220 -244h-123l-219 103l-220 -103h-122zM356 2132h262l115 -244
h-135z" />
    <glyph glyph-name="uni1EC1" unicode="&#x1ec1;" horiz-adv-x="1122" 
d="M578 -29q-108 0 -202.5 36t-167.5 104t-115 177.5t-42 246.5q0 258 146.5 410t373.5 149q124 -1 222 -47t157 -121.5t90 -167.5t31 -193q0 -43 -6 -90h-825q11 -168 106 -253t236 -85q121 0 196.5 50.5t102.5 140.5h184q-28 -159 -158.5 -258t-328.5 -99zM244 631h637
q-16 151 -102 224t-212 73q-133 0 -218.5 -72.5t-104.5 -224.5zM252 1178l207 284h217l207 -284h-111l-205 135l-205 -135h-110zM289 1819h239l103 -285h-123z" />
    <glyph glyph-name="uni1EC2" unicode="&#x1ec2;" horiz-adv-x="1118" 
d="M1087 172v-172h-524q-222 0 -356.5 131t-134.5 361v450q0 230 134.5 361t356.5 131h510v-172h-479q-160 0 -244 -84t-84 -244v-115h729v-172h-729v-147q0 -160 84 -244t244 -84h493zM322 1556l219 244h245l220 -244h-123l-219 103l-220 -103h-122zM512 2081v117h174
q91 0 143 -33t52 -99q0 -39 -26 -69t-57 -45t-57 -36.5t-26 -45.5h-117q-1 33 13.5 59t35 42t41 28.5t35 25t14.5 25.5q0 31 -67 31h-158z" />
    <glyph glyph-name="uni1EC3" unicode="&#x1ec3;" horiz-adv-x="1122" 
d="M578 -29q-108 0 -202.5 36t-167.5 104t-115 177.5t-42 246.5q0 258 146.5 410t373.5 149q124 -1 222 -47t157 -121.5t90 -167.5t31 -193q0 -43 -6 -90h-825q11 -168 106 -253t236 -85q121 0 196.5 50.5t102.5 140.5h184q-28 -159 -158.5 -258t-328.5 -99zM244 631h637
q-16 151 -102 224t-212 73q-133 0 -218.5 -72.5t-104.5 -224.5zM252 1178l207 284h217l207 -284h-111l-205 135l-205 -135h-110zM436 1747v117h121q103 0 162 -35.5t59 -110.5q0 -32 -17 -59t-41 -45t-48 -34t-41 -34.5t-17 -38.5h-125q-1 40 23 73t52.5 50.5t52.5 36.5
t24 35q0 45 -117 45h-88z" />
    <glyph glyph-name="uni1EC4" unicode="&#x1ec4;" horiz-adv-x="1118" 
d="M1087 172v-172h-524q-222 0 -356.5 131t-134.5 361v450q0 230 134.5 361t356.5 131h510v-172h-479q-160 0 -244 -84t-84 -244v-115h729v-172h-729v-147q0 -160 84 -244t244 -84h493zM301 1894q0 119 56 179.5t149 60.5q48 0 112 -25.5t119.5 -51t83.5 -25.5q77 0 84 94
h123q0 -124 -55 -182t-150 -58q-48 0 -112 26t-119.5 51.5t-83.5 25.5q-77 0 -84 -95h-123zM322 1556l219 244h245l220 -244h-123l-219 103l-220 -103h-122z" />
    <glyph glyph-name="uni1EC5" unicode="&#x1ec5;" horiz-adv-x="1122" 
d="M578 -29q-108 0 -202.5 36t-167.5 104t-115 177.5t-42 246.5q0 258 146.5 410t373.5 149q124 -1 222 -47t157 -121.5t90 -167.5t31 -193q0 -43 -6 -90h-825q11 -168 106 -253t236 -85q121 0 196.5 50.5t102.5 140.5h184q-28 -159 -158.5 -258t-328.5 -99zM240 1563
q0 115 52.5 175t141.5 60q43 0 95.5 -27.5t97.5 -55t69 -27.5q68 0 74 102h123q0 -115 -53 -175.5t-142 -60.5q-43 0 -95.5 28t-97.5 55.5t-69 27.5q-68 0 -74 -102h-122zM244 631h637q-16 151 -102 224t-212 73q-133 0 -218.5 -72.5t-104.5 -224.5zM252 1178l207 284h217
l207 -284h-111l-205 135l-205 -135h-110z" />
    <glyph glyph-name="uni1EC6" unicode="&#x1ec6;" horiz-adv-x="1118" 
d="M1087 172v-172h-524q-222 0 -356.5 131t-134.5 361v450q0 230 134.5 361t356.5 131h510v-172h-479q-160 0 -244 -84t-84 -244v-115h729v-172h-729v-147q0 -160 84 -244t244 -84h493zM322 1556l219 244h245l220 -244h-123l-219 103l-220 -103h-122zM545 -268q0 51 35.5 86
t85.5 35q48 0 83 -35.5t35 -85.5q0 -52 -35 -87.5t-83 -35.5q-50 0 -85.5 35.5t-35.5 87.5z" />
    <glyph glyph-name="uni1EC7" unicode="&#x1ec7;" horiz-adv-x="1122" 
d="M578 -29q-108 0 -202.5 36t-167.5 104t-115 177.5t-42 246.5q0 258 146.5 410t373.5 149q124 -1 222 -47t157 -121.5t90 -167.5t31 -193q0 -43 -6 -90h-825q11 -168 106 -253t236 -85q121 0 196.5 50.5t102.5 140.5h184q-28 -159 -158.5 -258t-328.5 -99zM244 631h637
q-16 151 -102 224t-212 73q-133 0 -218.5 -72.5t-104.5 -224.5zM252 1178l207 284h217l207 -284h-111l-205 135l-205 -135h-110zM457 -268q0 51 35.5 86t85.5 35q48 0 83 -35.5t35 -85.5q0 -52 -35 -87.5t-83 -35.5q-50 0 -85.5 35.5t-35.5 87.5z" />
    <glyph glyph-name="uni1EC8" unicode="&#x1ec8;" horiz-adv-x="419" 
d="M307 1434v-1434h-194v1434h194zM57 1749v117h174q91 0 143 -33t52 -98q0 -32 -17 -57.5t-41.5 -41.5t-49 -30t-41.5 -31t-17 -37h-117q-1 40 21 71t48.5 45.5t48.5 31.5t22 32q0 31 -68 31h-158z" />
    <glyph glyph-name="uni1EC9" unicode="&#x1ec9;" horiz-adv-x="364" 
d="M92 0v1065h180v-1065h-180zM51 1391v116h121q221 0 221 -145q0 -32 -17 -59t-41 -45t-48 -34t-41 -34.5t-17 -38.5h-125q-1 40 23 73t52.5 50.5t52.5 36.5t24 35q0 45 -117 45h-88z" />
    <glyph glyph-name="uni1ECA" unicode="&#x1eca;" horiz-adv-x="419" 
d="M307 1434v-1434h-194v1434h194zM90 -268q0 51 35.5 86t85.5 35q48 0 83.5 -35.5t35.5 -85.5q0 -52 -35.5 -87.5t-83.5 -35.5q-50 0 -85.5 35.5t-35.5 87.5z" />
    <glyph glyph-name="uni1ECB" unicode="&#x1ecb;" horiz-adv-x="387" 
d="M285 1065v-1065h-181v1065h181zM72 1321q0 51 36.5 87t86.5 36q48 0 84 -36.5t36 -86.5q0 -52 -36 -88.5t-84 -36.5q-50 0 -86.5 36.5t-36.5 88.5zM74 -268q0 51 35.5 86t85.5 35q48 0 83 -35.5t35 -85.5q0 -52 -35 -87.5t-83 -35.5q-50 0 -85.5 35.5t-35.5 87.5z" />
    <glyph glyph-name="uni1ECC" unicode="&#x1ecc;" horiz-adv-x="1511" 
d="M756 -29q-201 0 -362.5 96t-252 267t-90.5 385q0 160 53 298.5t146 236t224 153t282 55.5q202 0 362.5 -94.5t251 -264.5t90.5 -384t-90.5 -385t-251.5 -267t-362 -96zM252 717q0 -131 40 -239.5t109 -179.5t160.5 -109.5t194.5 -38.5t194.5 38.5t160.5 109.5t109 179.5
t40 239.5t-40 239.5t-109 179.5t-160.5 109.5t-194.5 38.5t-194.5 -38.5t-160.5 -109.5t-109 -179.5t-40 -239.5zM635 -268q0 51 35.5 86t85.5 35q48 0 83 -35.5t35 -85.5q0 -52 -35 -87.5t-83 -35.5q-50 0 -85.5 35.5t-35.5 87.5z" />
    <glyph glyph-name="uni1ECD" unicode="&#x1ecd;" horiz-adv-x="1159" 
d="M1108 535q0 -130 -42.5 -238t-115.5 -178.5t-168 -109t-202 -38.5t-202.5 38.5t-168 108.5t-115.5 178t-43 239q0 130 43 237t115.5 176.5t168 107.5t202.5 38t202 -37.5t168 -107t115.5 -176.5t42.5 -238zM238 532q0 -189 98 -292t244 -103t244 103t98 292
q0 195 -97 295.5t-245 100.5t-245 -100.5t-97 -295.5zM459 -268q0 51 35.5 86t85.5 35q48 0 83 -35.5t35 -85.5q0 -52 -35 -87.5t-83 -35.5q-50 0 -85.5 35.5t-35.5 87.5z" />
    <glyph glyph-name="uni1ECE" unicode="&#x1ece;" horiz-adv-x="1511" 
d="M756 -29q-201 0 -362.5 96t-252 267t-90.5 385q0 160 53 298.5t146 236t224 153t282 55.5q202 0 362.5 -94.5t251 -264.5t90.5 -384t-90.5 -385t-251.5 -267t-362 -96zM252 717q0 -131 40 -239.5t109 -179.5t160.5 -109.5t194.5 -38.5t194.5 38.5t160.5 109.5t109 179.5
t40 239.5t-40 239.5t-109 179.5t-160.5 109.5t-194.5 38.5t-194.5 -38.5t-160.5 -109.5t-109 -179.5t-40 -239.5zM602 1749v117h174q91 0 143 -33t52 -98q0 -32 -17 -57.5t-41.5 -41.5t-49 -30t-41.5 -31t-17 -37h-117q-1 33 13.5 59t35 42t41 28.5t35 25t14.5 25.5
q0 31 -67 31h-158z" />
    <glyph glyph-name="uni1ECF" unicode="&#x1ecf;" horiz-adv-x="1159" 
d="M1108 535q0 -130 -42.5 -238t-115.5 -178.5t-168 -109t-202 -38.5t-202.5 38.5t-168 108.5t-115.5 178t-43 239q0 130 43 237t115.5 176.5t168 107.5t202.5 38t202 -37.5t168 -107t115.5 -176.5t42.5 -238zM238 532q0 -189 98 -292t244 -103t244 103t98 292
q0 195 -97 295.5t-245 100.5t-245 -100.5t-97 -295.5zM449 1391v116h120q222 0 222 -145q0 -32 -17 -59t-41 -45t-48 -34t-41 -34.5t-17 -38.5h-125q-1 33 14.5 60.5t38 45.5t45 32.5t38 29t15.5 27.5q0 45 -116 45h-88z" />
    <glyph glyph-name="uni1ED0" unicode="&#x1ed0;" horiz-adv-x="1511" 
d="M756 -29q-201 0 -362.5 96t-252 267t-90.5 385q0 160 53 298.5t146 236t224 153t282 55.5q202 0 362.5 -94.5t251 -264.5t90.5 -384t-90.5 -385t-251.5 -267t-362 -96zM252 717q0 -131 40 -239.5t109 -179.5t160.5 -109.5t194.5 -38.5t194.5 38.5t160.5 109.5t109 179.5
t40 239.5t-40 239.5t-109 179.5t-160.5 109.5t-194.5 38.5t-194.5 -38.5t-160.5 -109.5t-109 -179.5t-40 -239.5zM412 1556l219 244h246l219 -244h-123l-219 103l-219 -103h-123zM682 1888l115 244h262l-242 -244h-135z" />
    <glyph glyph-name="uni1ED1" unicode="&#x1ed1;" horiz-adv-x="1159" 
d="M1108 535q0 -130 -42.5 -238t-115.5 -178.5t-168 -109t-202 -38.5t-202.5 38.5t-168 108.5t-115.5 178t-43 239q0 130 43 237t115.5 176.5t168 107.5t202.5 38t202 -37.5t168 -107t115.5 -176.5t42.5 -238zM238 532q0 -189 98 -292t244 -103t244 103t98 292
q0 195 -97 295.5t-245 100.5t-245 -100.5t-97 -295.5zM264 1178l207 284h217l207 -284h-111l-204 135l-205 -135h-111zM510 1534l102 285h240l-219 -285h-123z" />
    <glyph glyph-name="uni1ED2" unicode="&#x1ed2;" horiz-adv-x="1511" 
d="M756 -29q-201 0 -362.5 96t-252 267t-90.5 385q0 160 53 298.5t146 236t224 153t282 55.5q202 0 362.5 -94.5t251 -264.5t90.5 -384t-90.5 -385t-251.5 -267t-362 -96zM252 717q0 -131 40 -239.5t109 -179.5t160.5 -109.5t194.5 -38.5t194.5 38.5t160.5 109.5t109 179.5
t40 239.5t-40 239.5t-109 179.5t-160.5 109.5t-194.5 38.5t-194.5 -38.5t-160.5 -109.5t-109 -179.5t-40 -239.5zM412 1556l219 244h246l219 -244h-123l-219 103l-219 -103h-123zM446 2132h263l114 -244h-135z" />
    <glyph glyph-name="uni1ED3" unicode="&#x1ed3;" horiz-adv-x="1159" 
d="M1108 535q0 -130 -42.5 -238t-115.5 -178.5t-168 -109t-202 -38.5t-202.5 38.5t-168 108.5t-115.5 178t-43 239q0 130 43 237t115.5 176.5t168 107.5t202.5 38t202 -37.5t168 -107t115.5 -176.5t42.5 -238zM238 532q0 -189 98 -292t244 -103t244 103t98 292
q0 195 -97 295.5t-245 100.5t-245 -100.5t-97 -295.5zM264 1178l207 284h217l207 -284h-111l-204 135l-205 -135h-111zM301 1819h240l102 -285h-123z" />
    <glyph glyph-name="uni1ED4" unicode="&#x1ed4;" horiz-adv-x="1511" 
d="M756 -29q-201 0 -362.5 96t-252 267t-90.5 385q0 160 53 298.5t146 236t224 153t282 55.5q202 0 362.5 -94.5t251 -264.5t90.5 -384t-90.5 -385t-251.5 -267t-362 -96zM252 717q0 -131 40 -239.5t109 -179.5t160.5 -109.5t194.5 -38.5t194.5 38.5t160.5 109.5t109 179.5
t40 239.5t-40 239.5t-109 179.5t-160.5 109.5t-194.5 38.5t-194.5 -38.5t-160.5 -109.5t-109 -179.5t-40 -239.5zM412 1556l219 244h246l219 -244h-123l-219 103l-219 -103h-123zM602 2081v117h174q91 0 143 -33t52 -99q0 -39 -26 -69t-57 -45t-57 -36.5t-26 -45.5h-117
q-1 33 13.5 59t35 42t41 28.5t35 25t14.5 25.5q0 31 -67 31h-158z" />
    <glyph glyph-name="uni1ED5" unicode="&#x1ed5;" horiz-adv-x="1159" 
d="M1108 535q0 -130 -42.5 -238t-115.5 -178.5t-168 -109t-202 -38.5t-202.5 38.5t-168 108.5t-115.5 178t-43 239q0 130 43 237t115.5 176.5t168 107.5t202.5 38t202 -37.5t168 -107t115.5 -176.5t42.5 -238zM238 532q0 -189 98 -292t244 -103t244 103t98 292
q0 195 -97 295.5t-245 100.5t-245 -100.5t-97 -295.5zM264 1178l207 284h217l207 -284h-111l-204 135l-205 -135h-111zM449 1747v117h120q104 0 163 -35.5t59 -110.5q0 -32 -17 -59t-41 -45t-48 -34t-41 -34.5t-17 -38.5h-125q-1 33 14.5 60.5t38 45.5t45 32.5t38 29
t15.5 27.5q0 45 -116 45h-88z" />
    <glyph glyph-name="uni1ED6" unicode="&#x1ed6;" horiz-adv-x="1511" 
d="M756 -29q-201 0 -362.5 96t-252 267t-90.5 385q0 160 53 298.5t146 236t224 153t282 55.5q202 0 362.5 -94.5t251 -264.5t90.5 -384t-90.5 -385t-251.5 -267t-362 -96zM252 717q0 -131 40 -239.5t109 -179.5t160.5 -109.5t194.5 -38.5t194.5 38.5t160.5 109.5t109 179.5
t40 239.5t-40 239.5t-109 179.5t-160.5 109.5t-194.5 38.5t-194.5 -38.5t-160.5 -109.5t-109 -179.5t-40 -239.5zM391 1894q0 119 56 179.5t149 60.5q48 0 112 -25.5t119.5 -51t83.5 -25.5q77 0 84 94h123q0 -124 -55 -182t-150 -58q-48 0 -112 26t-119.5 51.5t-83.5 25.5
q-77 0 -84 -95h-123zM412 1556l219 244h246l219 -244h-123l-219 103l-219 -103h-123z" />
    <glyph glyph-name="uni1ED7" unicode="&#x1ed7;" horiz-adv-x="1159" 
d="M1108 535q0 -130 -42.5 -238t-115.5 -178.5t-168 -109t-202 -38.5t-202.5 38.5t-168 108.5t-115.5 178t-43 239q0 130 43 237t115.5 176.5t168 107.5t202.5 38t202 -37.5t168 -107t115.5 -176.5t42.5 -238zM238 532q0 -189 98 -292t244 -103t244 103t98 292
q0 195 -97 295.5t-245 100.5t-245 -100.5t-97 -295.5zM252 1563q0 115 52.5 175t141.5 60q43 0 95.5 -27.5t98 -55t69.5 -27.5q67 0 73 102h123q0 -115 -52.5 -175.5t-141.5 -60.5q-43 0 -95.5 28t-97.5 55.5t-69 27.5q-68 0 -74 -102h-123zM264 1178l207 284h217l207 -284
h-111l-204 135l-205 -135h-111z" />
    <glyph glyph-name="uni1ED8" unicode="&#x1ed8;" horiz-adv-x="1511" 
d="M756 -29q-201 0 -362.5 96t-252 267t-90.5 385q0 160 53 298.5t146 236t224 153t282 55.5q202 0 362.5 -94.5t251 -264.5t90.5 -384t-90.5 -385t-251.5 -267t-362 -96zM252 717q0 -131 40 -239.5t109 -179.5t160.5 -109.5t194.5 -38.5t194.5 38.5t160.5 109.5t109 179.5
t40 239.5t-40 239.5t-109 179.5t-160.5 109.5t-194.5 38.5t-194.5 -38.5t-160.5 -109.5t-109 -179.5t-40 -239.5zM412 1556l219 244h246l219 -244h-123l-219 103l-219 -103h-123zM635 -268q0 51 35.5 86t85.5 35q48 0 83 -35.5t35 -85.5q0 -52 -35 -87.5t-83 -35.5
q-50 0 -85.5 35.5t-35.5 87.5z" />
    <glyph glyph-name="uni1ED9" unicode="&#x1ed9;" horiz-adv-x="1159" 
d="M1108 535q0 -130 -42.5 -238t-115.5 -178.5t-168 -109t-202 -38.5t-202.5 38.5t-168 108.5t-115.5 178t-43 239q0 130 43 237t115.5 176.5t168 107.5t202.5 38t202 -37.5t168 -107t115.5 -176.5t42.5 -238zM238 532q0 -189 98 -292t244 -103t244 103t98 292
q0 195 -97 295.5t-245 100.5t-245 -100.5t-97 -295.5zM264 1178l207 284h217l207 -284h-111l-204 135l-205 -135h-111zM459 -268q0 51 35.5 86t85.5 35q48 0 83 -35.5t35 -85.5q0 -52 -35 -87.5t-83 -35.5q-50 0 -85.5 35.5t-35.5 87.5z" />
    <glyph glyph-name="uni1EDA" unicode="&#x1eda;" horiz-adv-x="1589" 
d="M756 -29q-201 0 -362.5 96t-252 267t-90.5 385q0 160 53 298.5t146 236t224 153t282 55.5q171 0 314 -69t239 -195q133 12 133 131v166h147v-145q0 -235 -203 -281q74 -161 74 -350q0 -214 -90.5 -385t-251.5 -267t-362 -96zM252 717q0 -131 40 -239.5t109 -179.5
t160.5 -109.5t194.5 -38.5t194.5 38.5t160.5 109.5t109 179.5t40 239.5t-40 239.5t-109 179.5t-160.5 109.5t-194.5 38.5t-194.5 -38.5t-160.5 -109.5t-109 -179.5t-40 -239.5zM682 1556l115 244h262l-242 -244h-135z" />
    <glyph glyph-name="uni1EDB" unicode="&#x1edb;" horiz-adv-x="1286" 
d="M1108 535q0 -130 -42.5 -238t-115.5 -178.5t-168 -109t-202 -38.5t-202.5 38.5t-168 108.5t-115.5 178t-43 239q0 130 43 237t115.5 176.5t168 107.5t202.5 38q127 0 237.5 -53t183.5 -152q138 10 138 131v115h147v-95q0 -42 -8.5 -80.5t-29.5 -81.5t-66.5 -75
t-110.5 -45q37 -98 37 -223zM238 532q0 -189 98 -292t244 -103t244 103t98 292q0 195 -97 295.5t-245 100.5t-245 -100.5t-97 -295.5zM510 1178l102 284h240l-219 -284h-123z" />
    <glyph glyph-name="uni1EDC" unicode="&#x1edc;" horiz-adv-x="1589" 
d="M756 -29q-201 0 -362.5 96t-252 267t-90.5 385q0 160 53 298.5t146 236t224 153t282 55.5q171 0 314 -69t239 -195q133 12 133 131v166h147v-145q0 -235 -203 -281q74 -161 74 -350q0 -214 -90.5 -385t-251.5 -267t-362 -96zM252 717q0 -131 40 -239.5t109 -179.5
t160.5 -109.5t194.5 -38.5t194.5 38.5t160.5 109.5t109 179.5t40 239.5t-40 239.5t-109 179.5t-160.5 109.5t-194.5 38.5t-194.5 -38.5t-160.5 -109.5t-109 -179.5t-40 -239.5zM446 1800h263l114 -244h-135z" />
    <glyph glyph-name="uni1EDD" unicode="&#x1edd;" horiz-adv-x="1286" 
d="M1108 535q0 -130 -42.5 -238t-115.5 -178.5t-168 -109t-202 -38.5t-202.5 38.5t-168 108.5t-115.5 178t-43 239q0 130 43 237t115.5 176.5t168 107.5t202.5 38q127 0 237.5 -53t183.5 -152q138 10 138 131v115h147v-95q0 -42 -8.5 -80.5t-29.5 -81.5t-66.5 -75
t-110.5 -45q37 -98 37 -223zM238 532q0 -189 98 -292t244 -103t244 103t98 292q0 195 -97 295.5t-245 100.5t-245 -100.5t-97 -295.5zM301 1462h240l102 -284h-123z" />
    <glyph glyph-name="uni1EDE" unicode="&#x1ede;" horiz-adv-x="1589" 
d="M756 -29q-201 0 -362.5 96t-252 267t-90.5 385q0 160 53 298.5t146 236t224 153t282 55.5q171 0 314 -69t239 -195q133 12 133 131v166h147v-145q0 -235 -203 -281q74 -161 74 -350q0 -214 -90.5 -385t-251.5 -267t-362 -96zM252 717q0 -131 40 -239.5t109 -179.5
t160.5 -109.5t194.5 -38.5t194.5 38.5t160.5 109.5t109 179.5t40 239.5t-40 239.5t-109 179.5t-160.5 109.5t-194.5 38.5t-194.5 -38.5t-160.5 -109.5t-109 -179.5t-40 -239.5zM602 1749v117h174q91 0 143 -33t52 -98q0 -32 -17 -57.5t-41.5 -41.5t-49 -30t-41.5 -31
t-17 -37h-117q-1 33 13.5 59t35 42t41 28.5t35 25t14.5 25.5q0 31 -67 31h-158z" />
    <glyph glyph-name="uni1EDF" unicode="&#x1edf;" horiz-adv-x="1286" 
d="M1108 535q0 -130 -42.5 -238t-115.5 -178.5t-168 -109t-202 -38.5t-202.5 38.5t-168 108.5t-115.5 178t-43 239q0 130 43 237t115.5 176.5t168 107.5t202.5 38q127 0 237.5 -53t183.5 -152q138 10 138 131v115h147v-95q0 -42 -8.5 -80.5t-29.5 -81.5t-66.5 -75
t-110.5 -45q37 -98 37 -223zM238 532q0 -189 98 -292t244 -103t244 103t98 292q0 195 -97 295.5t-245 100.5t-245 -100.5t-97 -295.5zM449 1391v116h120q222 0 222 -145q0 -32 -17 -59t-41 -45t-48 -34t-41 -34.5t-17 -38.5h-125q-1 33 14.5 60.5t38 45.5t45 32.5t38 29
t15.5 27.5q0 45 -116 45h-88z" />
    <glyph glyph-name="uni1EE0" unicode="&#x1ee0;" horiz-adv-x="1589" 
d="M756 -29q-201 0 -362.5 96t-252 267t-90.5 385q0 160 53 298.5t146 236t224 153t282 55.5q171 0 314 -69t239 -195q133 12 133 131v166h147v-145q0 -235 -203 -281q74 -161 74 -350q0 -214 -90.5 -385t-251.5 -267t-362 -96zM252 717q0 -131 40 -239.5t109 -179.5
t160.5 -109.5t194.5 -38.5t194.5 38.5t160.5 109.5t109 179.5t40 239.5t-40 239.5t-109 179.5t-160.5 109.5t-194.5 38.5t-194.5 -38.5t-160.5 -109.5t-109 -179.5t-40 -239.5zM391 1563q0 119 56 179t149 60q48 0 112 -25.5t119.5 -51t83.5 -25.5q77 0 84 94h123
q0 -124 -55 -182t-150 -58q-48 0 -112 26t-119.5 51.5t-83.5 25.5q-77 0 -84 -94h-123z" />
    <glyph glyph-name="uni1EE1" unicode="&#x1ee1;" horiz-adv-x="1286" 
d="M1108 535q0 -130 -42.5 -238t-115.5 -178.5t-168 -109t-202 -38.5t-202.5 38.5t-168 108.5t-115.5 178t-43 239q0 130 43 237t115.5 176.5t168 107.5t202.5 38q127 0 237.5 -53t183.5 -152q138 10 138 131v115h147v-95q0 -42 -8.5 -80.5t-29.5 -81.5t-66.5 -75
t-110.5 -45q37 -98 37 -223zM238 532q0 -189 98 -292t244 -103t244 103t98 292q0 195 -97 295.5t-245 100.5t-245 -100.5t-97 -295.5zM252 1206q0 115 52.5 175.5t141.5 60.5q43 0 95.5 -28t98 -55.5t69.5 -27.5q67 0 73 103h123q0 -115 -52.5 -175.5t-141.5 -60.5
q-43 0 -95.5 28t-97.5 55.5t-69 27.5q-68 0 -74 -103h-123z" />
    <glyph glyph-name="uni1EE2" unicode="&#x1ee2;" horiz-adv-x="1589" 
d="M756 -29q-201 0 -362.5 96t-252 267t-90.5 385q0 160 53 298.5t146 236t224 153t282 55.5q171 0 314 -69t239 -195q133 12 133 131v166h147v-145q0 -235 -203 -281q74 -161 74 -350q0 -214 -90.5 -385t-251.5 -267t-362 -96zM252 717q0 -131 40 -239.5t109 -179.5
t160.5 -109.5t194.5 -38.5t194.5 38.5t160.5 109.5t109 179.5t40 239.5t-40 239.5t-109 179.5t-160.5 109.5t-194.5 38.5t-194.5 -38.5t-160.5 -109.5t-109 -179.5t-40 -239.5zM635 -268q0 51 35.5 86t85.5 35q48 0 83 -35.5t35 -85.5q0 -52 -35 -87.5t-83 -35.5
q-50 0 -85.5 35.5t-35.5 87.5z" />
    <glyph glyph-name="uni1EE3" unicode="&#x1ee3;" horiz-adv-x="1286" 
d="M1108 535q0 -130 -42.5 -238t-115.5 -178.5t-168 -109t-202 -38.5t-202.5 38.5t-168 108.5t-115.5 178t-43 239q0 130 43 237t115.5 176.5t168 107.5t202.5 38q127 0 237.5 -53t183.5 -152q138 10 138 131v115h147v-95q0 -42 -8.5 -80.5t-29.5 -81.5t-66.5 -75
t-110.5 -45q37 -98 37 -223zM238 532q0 -189 98 -292t244 -103t244 103t98 292q0 195 -97 295.5t-245 100.5t-245 -100.5t-97 -295.5zM459 -268q0 51 35.5 86t85.5 35q48 0 83 -35.5t35 -85.5q0 -52 -35 -87.5t-83 -35.5q-50 0 -85.5 35.5t-35.5 87.5z" />
    <glyph glyph-name="uni1EE4" unicode="&#x1ee4;" horiz-adv-x="1306" 
d="M92 520v914h195v-902q0 -79 21 -144t56.5 -108.5t83 -73t99 -43t106.5 -13.5q70 0 133 22t116.5 66t85.5 120t32 174v902h194v-914q0 -152 -65 -275.5t-194 -198.5t-302 -75t-302 75t-194 198.5t-65 275.5zM532 -268q0 51 35.5 86t85.5 35q48 0 83.5 -35.5t35.5 -85.5
q0 -52 -35.5 -87.5t-83.5 -35.5q-50 0 -85.5 35.5t-35.5 87.5z" />
    <glyph glyph-name="uni1EE5" unicode="&#x1ee5;" horiz-adv-x="1089" 
d="M545 -29q-66 0 -130 15t-125 50t-106.5 86.5t-73.5 129t-28 172.5v641h180v-604q0 -170 75.5 -248t207.5 -78q282 0 282 326v604h181v-641q0 -95 -28 -172.5t-73.5 -129t-106.5 -86.5t-125 -50t-130 -15zM424 -268q0 51 35.5 86t85.5 35q48 0 83.5 -35.5t35.5 -85.5
q0 -52 -35.5 -87.5t-83.5 -35.5q-50 0 -85.5 35.5t-35.5 87.5z" />
    <glyph glyph-name="uni1EE6" unicode="&#x1ee6;" horiz-adv-x="1306" 
d="M92 520v914h195v-902q0 -79 21 -144t56.5 -108.5t83 -73t99 -43t106.5 -13.5q70 0 133 22t116.5 66t85.5 120t32 174v902h194v-914q0 -152 -65 -275.5t-194 -198.5t-302 -75t-302 75t-194 198.5t-65 275.5zM500 1749v117h174q91 0 142.5 -32.5t51.5 -98.5
q0 -32 -17 -57.5t-41.5 -41.5t-49 -30t-41.5 -31t-17 -37h-116q-1 33 13.5 59t35 42t41 28.5t35 25t14.5 25.5q0 31 -68 31h-157z" />
    <glyph glyph-name="uni1EE7" unicode="&#x1ee7;" horiz-adv-x="1089" 
d="M545 -29q-66 0 -130 15t-125 50t-106.5 86.5t-73.5 129t-28 172.5v641h180v-604q0 -170 75.5 -248t207.5 -78q282 0 282 326v604h181v-641q0 -95 -28 -172.5t-73.5 -129t-106.5 -86.5t-125 -50t-130 -15zM414 1391v116h121q221 0 221 -145q0 -32 -17 -59t-41 -45t-48 -34
t-41 -34.5t-17 -38.5h-125q-1 33 14.5 60.5t38 45.5t45 32.5t38 29t15.5 27.5q0 45 -116 45h-88z" />
    <glyph glyph-name="uni1EE8" unicode="&#x1ee8;" horiz-adv-x="1497" 
d="M92 520v914h195v-902q0 -79 21 -144t56.5 -108.5t83 -73t99 -43t106.5 -13.5q70 0 133 22t116.5 66t85.5 120t32 174v902h194v-236q136 10 136 131v166h147v-145q0 -279 -283 -291v-539q0 -152 -65 -275.5t-194 -198.5t-302 -75t-302 75t-194 198.5t-65 275.5zM580 1556
l114 244h262l-241 -244h-135z" />
    <glyph glyph-name="uni1EE9" unicode="&#x1ee9;" horiz-adv-x="1288" 
d="M545 -29q-66 0 -130 15t-125 50t-106.5 86.5t-73.5 129t-28 172.5v641h180v-604q0 -170 75.5 -248t207.5 -78q282 0 282 326v604h181v-176q133 12 133 131v115h147v-95q0 -36 -5.5 -70t-23.5 -74t-47.5 -69.5t-82 -51.5t-121.5 -25v-326q0 -95 -28 -172.5t-73.5 -129
t-106.5 -86.5t-125 -50t-130 -15zM475 1178l103 284h239l-219 -284h-123z" />
    <glyph glyph-name="uni1EEA" unicode="&#x1eea;" horiz-adv-x="1497" 
d="M92 520v914h195v-902q0 -79 21 -144t56.5 -108.5t83 -73t99 -43t106.5 -13.5q70 0 133 22t116.5 66t85.5 120t32 174v902h194v-236q136 10 136 131v166h147v-145q0 -279 -283 -291v-539q0 -152 -65 -275.5t-194 -198.5t-302 -75t-302 75t-194 198.5t-65 275.5zM344 1800
h262l115 -244h-135z" />
    <glyph glyph-name="uni1EEB" unicode="&#x1eeb;" horiz-adv-x="1288" 
d="M545 -29q-66 0 -130 15t-125 50t-106.5 86.5t-73.5 129t-28 172.5v641h180v-604q0 -170 75.5 -248t207.5 -78q282 0 282 326v604h181v-176q133 12 133 131v115h147v-95q0 -36 -5.5 -70t-23.5 -74t-47.5 -69.5t-82 -51.5t-121.5 -25v-326q0 -95 -28 -172.5t-73.5 -129
t-106.5 -86.5t-125 -50t-130 -15zM266 1462h240l102 -284h-123z" />
    <glyph glyph-name="uni1EEC" unicode="&#x1eec;" horiz-adv-x="1497" 
d="M92 520v914h195v-902q0 -79 21 -144t56.5 -108.5t83 -73t99 -43t106.5 -13.5q70 0 133 22t116.5 66t85.5 120t32 174v902h194v-236q136 10 136 131v166h147v-145q0 -279 -283 -291v-539q0 -152 -65 -275.5t-194 -198.5t-302 -75t-302 75t-194 198.5t-65 275.5zM500 1749
v117h174q91 0 142.5 -32.5t51.5 -98.5q0 -32 -17 -57.5t-41.5 -41.5t-49 -30t-41.5 -31t-17 -37h-116q-1 33 13.5 59t35 42t41 28.5t35 25t14.5 25.5q0 31 -68 31h-157z" />
    <glyph glyph-name="uni1EED" unicode="&#x1eed;" horiz-adv-x="1288" 
d="M545 -29q-66 0 -130 15t-125 50t-106.5 86.5t-73.5 129t-28 172.5v641h180v-604q0 -170 75.5 -248t207.5 -78q282 0 282 326v604h181v-176q133 12 133 131v115h147v-95q0 -36 -5.5 -70t-23.5 -74t-47.5 -69.5t-82 -51.5t-121.5 -25v-326q0 -95 -28 -172.5t-73.5 -129
t-106.5 -86.5t-125 -50t-130 -15zM414 1391v116h121q221 0 221 -145q0 -32 -17 -59t-41 -45t-48 -34t-41 -34.5t-17 -38.5h-125q-1 33 14.5 60.5t38 45.5t45 32.5t38 29t15.5 27.5q0 45 -116 45h-88z" />
    <glyph glyph-name="uni1EEE" unicode="&#x1eee;" horiz-adv-x="1497" 
d="M92 520v914h195v-902q0 -79 21 -144t56.5 -108.5t83 -73t99 -43t106.5 -13.5q70 0 133 22t116.5 66t85.5 120t32 174v902h194v-236q136 10 136 131v166h147v-145q0 -279 -283 -291v-539q0 -152 -65 -275.5t-194 -198.5t-302 -75t-302 75t-194 198.5t-65 275.5zM289 1563
q0 119 56 179t149 60q48 0 112 -25.5t119.5 -51t83.5 -25.5q77 0 84 94h123q0 -124 -55 -182t-150 -58q-48 0 -112 26t-119.5 51.5t-83.5 25.5q-77 0 -84 -94h-123z" />
    <glyph glyph-name="uni1EEF" unicode="&#x1eef;" horiz-adv-x="1288" 
d="M545 -29q-66 0 -130 15t-125 50t-106.5 86.5t-73.5 129t-28 172.5v641h180v-604q0 -170 75.5 -248t207.5 -78q282 0 282 326v604h181v-176q133 12 133 131v115h147v-95q0 -36 -5.5 -70t-23.5 -74t-47.5 -69.5t-82 -51.5t-121.5 -25v-326q0 -95 -28 -172.5t-73.5 -129
t-106.5 -86.5t-125 -50t-130 -15zM217 1206q0 115 53 175.5t142 60.5q43 0 95.5 -28t97.5 -55.5t69 -27.5q68 0 74 103h122q0 -115 -52.5 -175.5t-141.5 -60.5q-43 0 -95.5 28t-97.5 55.5t-69 27.5q-68 0 -74 -103h-123z" />
    <glyph glyph-name="uni1EF0" unicode="&#x1ef0;" horiz-adv-x="1497" 
d="M92 520v914h195v-902q0 -79 21 -144t56.5 -108.5t83 -73t99 -43t106.5 -13.5q70 0 133 22t116.5 66t85.5 120t32 174v902h194v-236q136 10 136 131v166h147v-145q0 -279 -283 -291v-539q0 -152 -65 -275.5t-194 -198.5t-302 -75t-302 75t-194 198.5t-65 275.5zM532 -268
q0 51 35.5 86t85.5 35q48 0 83.5 -35.5t35.5 -85.5q0 -52 -35.5 -87.5t-83.5 -35.5q-50 0 -85.5 35.5t-35.5 87.5z" />
    <glyph glyph-name="uni1EF1" unicode="&#x1ef1;" horiz-adv-x="1288" 
d="M545 -29q-66 0 -130 15t-125 50t-106.5 86.5t-73.5 129t-28 172.5v641h180v-604q0 -170 75.5 -248t207.5 -78q282 0 282 326v604h181v-176q133 12 133 131v115h147v-95q0 -36 -5.5 -70t-23.5 -74t-47.5 -69.5t-82 -51.5t-121.5 -25v-326q0 -95 -28 -172.5t-73.5 -129
t-106.5 -86.5t-125 -50t-130 -15zM424 -268q0 51 35.5 86t85.5 35q48 0 83.5 -35.5t35.5 -85.5q0 -52 -35.5 -87.5t-83.5 -35.5q-50 0 -85.5 35.5t-35.5 87.5z" />
    <glyph glyph-name="Ygrave" unicode="&#x1ef2;" horiz-adv-x="1234" 
d="M528 0v512l-548 922h213l432 -738l428 738h202l-532 -916v-518h-195zM324 1800h262l114 -244h-135z" />
    <glyph glyph-name="ygrave" unicode="&#x1ef3;" horiz-adv-x="1054" 
d="M115 -328h-60v160h31q147 0 231 50.5t123 156.5l-440 1026h199l338 -801l333 801h195l-449 -1065q-69 -163 -187.5 -245.5t-313.5 -82.5zM258 1462h240l102 -284h-123z" />
    <glyph glyph-name="uni1EF4" unicode="&#x1ef4;" horiz-adv-x="1234" 
d="M528 0v512l-548 922h213l432 -738l428 738h202l-532 -916v-518h-195zM510 -268q0 51 35.5 86t85.5 35q48 0 83.5 -35.5t35.5 -85.5q0 -52 -35.5 -87.5t-83.5 -35.5q-50 0 -85.5 35.5t-35.5 87.5z" />
    <glyph glyph-name="uni1EF5" unicode="&#x1ef5;" horiz-adv-x="1054" 
d="M115 -328h-60v160h31q147 0 231 50.5t123 156.5l-440 1026h199l338 -801l333 801h195l-449 -1065q-69 -163 -187.5 -245.5t-313.5 -82.5zM606 -221q0 51 35.5 86t85.5 35q48 0 83.5 -35.5t35.5 -85.5q0 -52 -35.5 -87.5t-83.5 -35.5q-50 0 -85.5 35.5t-35.5 87.5z" />
    <glyph glyph-name="uni1EF6" unicode="&#x1ef6;" horiz-adv-x="1234" 
d="M528 0v512l-548 922h213l432 -738l428 738h202l-532 -916v-518h-195zM479 1749v117h174q91 0 143 -33t52 -98q0 -32 -17 -57.5t-41.5 -41.5t-49 -30t-41.5 -31t-17 -37h-117q-1 40 21 71t48.5 45.5t48.5 31.5t22 32q0 31 -68 31h-158z" />
    <glyph glyph-name="uni1EF7" unicode="&#x1ef7;" horiz-adv-x="1054" 
d="M115 -328h-60v160h31q147 0 231 50.5t123 156.5l-440 1026h199l338 -801l333 801h195l-449 -1065q-69 -163 -187.5 -245.5t-313.5 -82.5zM406 1391v116h120q222 0 222 -145q0 -32 -17 -59t-41 -45t-48 -34t-41 -34.5t-17 -38.5h-125q-1 33 14.5 60.5t38 45.5t45 32.5
t38 29t15.5 27.5q0 45 -116 45h-88z" />
    <glyph glyph-name="uni1EF8" unicode="&#x1ef8;" horiz-adv-x="1234" 
d="M528 0v512l-548 922h213l432 -738l428 738h202l-532 -916v-518h-195zM268 1563q0 119 56 179t149 60q48 0 112 -25.5t119.5 -51t83.5 -25.5q77 0 84 94h123q0 -124 -54.5 -182t-149.5 -58q-48 0 -112.5 26t-120 51.5t-83.5 25.5q-77 0 -84 -94h-123z" />
    <glyph glyph-name="uni1EF9" unicode="&#x1ef9;" horiz-adv-x="1054" 
d="M115 -328h-60v160h31q147 0 231 50.5t123 156.5l-440 1026h199l338 -801l333 801h195l-449 -1065q-69 -163 -187.5 -245.5t-313.5 -82.5zM209 1206q0 115 52.5 175.5t141.5 60.5q43 0 95.5 -28t98 -55.5t69.5 -27.5q67 0 73 103h123q0 -115 -52.5 -175.5t-141.5 -60.5
q-43 0 -95.5 28t-97.5 55.5t-69 27.5q-68 0 -74 -103h-123z" />
    <glyph glyph-name="uni2002" unicode="&#x2002;" horiz-adv-x="1095" 
 />
    <glyph glyph-name="uni2003" unicode="&#x2003;" horiz-adv-x="1812" 
 />
    <glyph glyph-name="uni2009" unicode="&#x2009;" horiz-adv-x="337" 
 />
    <glyph glyph-name="uni200A" unicode="&#x200a;" horiz-adv-x="221" 
 />
    <glyph glyph-name="endash" unicode="&#x2013;" horiz-adv-x="1118" 
d="M1077 666v-170h-1036v170h1036z" />
    <glyph glyph-name="emdash" unicode="&#x2014;" horiz-adv-x="1935" 
d="M1905 666v-170h-1874v170h1874z" />
    <glyph glyph-name="quoteleft" unicode="&#x2018;" horiz-adv-x="417" 
d="M385 1296q-73 0 -110 -39.5t-37 -132.5v-196h-156v202q0 80 23.5 140t65.5 95t95 52t117 17h25v-138h-23z" />
    <glyph glyph-name="quoteright" unicode="&#x2019;" horiz-adv-x="417" 
d="M33 1065q73 0 110 39.5t37 132.5v197h156v-203q0 -156 -83 -229.5t-218 -73.5h-25v137h23z" />
    <glyph glyph-name="quotesinglbase" unicode="&#x201a;" horiz-adv-x="417" 
d="M33 -137q73 0 110 39.5t37 132.5v196h156v-202q0 -156 -83 -229.5t-218 -73.5h-25v137h23z" />
    <glyph glyph-name="quotereversed" unicode="&#x201b;" horiz-adv-x="417" 
d="M33 1065q73 0 110 39.5t37 132.5v197h156v-203q0 -156 -83 -229.5t-218 -73.5h-25v137h23z" />
    <glyph glyph-name="quotedblleft" unicode="&#x201c;" horiz-adv-x="780" 
d="M748 1296q-73 0 -110.5 -39.5t-37.5 -132.5v-196h-156v202q0 80 23.5 140t65.5 95t95 52t117 17h25v-138h-22zM82 928v202q0 80 23.5 140t65.5 95t95 52t117 17h25v-138h-23q-73 0 -110 -39.5t-37 -132.5v-196h-156z" />
    <glyph glyph-name="quotedblright" unicode="&#x201d;" horiz-adv-x="780" 
d="M33 1065q73 0 110 39.5t37 132.5v197h156v-203q0 -156 -83 -229.5t-218 -73.5h-25v137h23zM373 928v137h22q73 0 110.5 39.5t37.5 132.5v197h155v-203q0 -156 -83 -229.5t-218 -73.5h-24z" />
    <glyph glyph-name="quotedblbase" unicode="&#x201e;" horiz-adv-x="780" 
d="M33 -137q73 0 110 39.5t37 132.5v196h156v-202q0 -156 -83 -229.5t-218 -73.5h-25v137h23zM373 -274v137h22q73 0 110.5 39.5t37.5 132.5v196h155v-202q0 -156 -83 -229.5t-218 -73.5h-24z" />
    <glyph glyph-name="dagger" unicode="&#x2020;" horiz-adv-x="798" 
d="M317 1434h164v-349h267v-163h-267v-574h-164v574h-266v163h266v349z" />
    <glyph glyph-name="daggerdbl" unicode="&#x2021;" horiz-adv-x="901" 
d="M369 1434h163v-349h287v-163h-287v-410h287v-164h-287v-348h-163v348h-287v164h287v410h-287v163h287v349z" />
    <glyph glyph-name="bullet" unicode="&#x2022;" horiz-adv-x="645" 
d="M324 332q-116 0 -189.5 76.5t-73.5 177.5q0 100 74 176t189 76q114 0 187 -76t73 -176q0 -101 -73 -177.5t-187 -76.5z" />
    <glyph glyph-name="ellipsis" unicode="&#x2026;" horiz-adv-x="1196" 
d="M188 -29q-62 0 -99.5 40.5t-37.5 94.5t37.5 95t99.5 41t100 -41t38 -95t-38 -94.5t-100 -40.5zM461 106q0 54 37.5 95t99.5 41t99.5 -41t37.5 -95t-37.5 -94.5t-99.5 -40.5t-99.5 40.5t-37.5 94.5zM870 106q0 54 38 95t100 41t99.5 -41t37.5 -95t-37.5 -94.5t-99.5 -40.5
t-100 40.5t-38 94.5z" />
    <glyph glyph-name="perthousand" unicode="&#x2030;" horiz-adv-x="2226" 
d="M756 1081q0 -141 -100.5 -245.5t-249.5 -104.5q-153 0 -254 104t-101 246v35q0 148 98.5 254.5t256.5 106.5q150 0 250 -107.5t100 -253.5v-35zM162 -29l1112 1491h190l-1112 -1491h-190zM186 1083q0 -29 12 -64t36 -71t69 -59.5t103 -22.5q46 0 83.5 16t61.5 40.5
t40.5 55t23 57t6.5 48.5v31q0 21 -5.5 47.5t-21 59t-38.5 58.5t-62 44t-88 18q-51 0 -91.5 -18t-64 -44t-38.5 -59t-20.5 -59t-5.5 -47v-31zM901 307v35q0 148 98 254t256 106q88 0 161 -39t120 -106q47 68 121.5 106.5t167.5 38.5q150 0 250 -107t100 -253v-35
q0 -141 -101 -245.5t-249 -104.5q-90 0 -165 38.5t-122 104.5q-49 -66 -122.5 -104.5t-160.5 -38.5q-153 0 -253.5 104t-100.5 246zM1036 309q0 -29 12 -64t35.5 -71t68.5 -59.5t103 -22.5q46 0 83.5 16t61.5 40.5t40.5 55t23 57t6.5 48.5v31q0 21 -5.5 47.5t-21 59
t-38.5 58.5t-62 44t-88 18q-51 0 -91.5 -18t-63.5 -44t-38.5 -59t-20.5 -59t-5 -47v-31zM1606 309q0 -29 12 -64t35.5 -71t68.5 -59.5t103 -22.5q46 0 83.5 16t61.5 40.5t40.5 55t23 57t6.5 48.5v31q0 21 -5.5 47.5t-21 59t-38.5 58.5t-62 44t-88 18q-51 0 -91.5 -18
t-63.5 -44t-38.5 -59t-20.5 -59t-5 -47v-31z" />
    <glyph glyph-name="uni2031" unicode="&#x2031;" horiz-adv-x="2795" 
d="M756 1081q0 -141 -101 -245.5t-249 -104.5q-153 0 -254 104t-101 246v35q0 148 98.5 254.5t256.5 106.5q150 0 250 -107.5t100 -253.5v-35zM162 -29l1112 1491h190l-1112 -1491h-190zM186 1083q0 -29 12 -64t36 -71t69 -59.5t103 -22.5q46 0 83.5 16t61.5 40.5t40.5 55
t23 57t6.5 48.5v31q0 21 -5.5 47.5t-21 59t-38.5 58.5t-62 44t-88 18q-51 0 -91.5 -18t-64 -44t-38.5 -59t-20.5 -59t-5.5 -47v-31zM901 307v35q0 148 98 254t256 106q88 0 161 -39t120 -106q47 68 121.5 106.5t167.5 38.5q89 0 161 -38.5t119 -106.5q47 68 121.5 106.5
t167.5 38.5q150 0 250 -107t100 -253v-35q0 -141 -101 -245.5t-249 -104.5q-90 0 -165 38.5t-122 104.5q-49 -66 -122 -104.5t-160 -38.5q-90 0 -165 38.5t-122 104.5q-49 -66 -122.5 -104.5t-160.5 -38.5q-153 0 -253.5 104t-100.5 246zM1036 309q0 -29 12 -64t35.5 -71
t68.5 -59.5t103 -22.5q46 0 83.5 16t61.5 40.5t40.5 55t23 57t6.5 48.5v31q0 21 -5.5 47.5t-21 59t-38.5 58.5t-62 44t-88 18q-51 0 -91.5 -18t-63.5 -44t-38.5 -59t-20.5 -59t-5 -47v-31zM1606 309q0 -29 12 -64t35.5 -71t68.5 -59.5t103 -22.5q46 0 83.5 16t61.5 40.5
t40.5 55t23 57t6.5 48.5v31q0 21 -5.5 47.5t-21 59t-38.5 58.5t-62 44t-88 18q-51 0 -91.5 -18t-63.5 -44t-38.5 -59t-20.5 -59t-5 -47v-31zM2175 309q0 -29 12 -64t35.5 -71t68.5 -59.5t103 -22.5q46 0 83.5 16t61.5 40.5t40.5 55t23 57t6.5 48.5v31q0 21 -5.5 47.5t-21 59
t-38.5 58.5t-62 44t-88 18q-51 0 -91.5 -18t-63.5 -44t-38.5 -59t-20.5 -59t-5 -47v-31z" />
    <glyph glyph-name="guilsinglleft" unicode="&#x2039;" horiz-adv-x="557" 
d="M217 559l309 -444h-184l-311 444l311 445h184z" />
    <glyph glyph-name="guilsinglright" unicode="&#x203a;" horiz-adv-x="557" 
d="M340 559l-309 445h184l311 -445l-311 -444h-184z" />
    <glyph glyph-name="uni203D" unicode="&#x203d;" horiz-adv-x="1067" 
d="M629 1204l-8 -203l57 13q72 16 99.5 50t27.5 89q0 62 -63.5 108t-186.5 46q-151 0 -224.5 -65.5t-78.5 -178.5h-180q1 125 66.5 217t172 137t238.5 45q199 0 317.5 -87.5t118.5 -225.5q0 -125 -72.5 -193t-205.5 -98q-58 -13 -95 -18l-12 -297q162 28 168 192h180
q0 -69 -25.5 -131t-75.5 -112.5t-133.5 -80.5t-189.5 -30q-177 0 -282 82t-107 213q-1 115 73 187.5t193 99.5l58 12l-10 229h180zM317 676q0 -57 39.5 -93.5t120.5 -43.5l-12 276l-25 -6q-61 -13 -92 -48.5t-31 -84.5zM401 106q0 54 38 95t100 41t99.5 -41t37.5 -95
t-37.5 -94.5t-99.5 -40.5t-100 40.5t-38 94.5z" />
    <glyph glyph-name="uni203E" unicode="&#x203e;" horiz-adv-x="1280" 
d="M1239 1788v-160h-1198v160h1198z" />
    <glyph glyph-name="uni2042" unicode="&#x2042;" horiz-adv-x="1642" 
d="M934 1057l143 -180l-110 -86l-146 188l-145 -188l-111 86l144 180l-209 73l45 134l205 -80v250h143v-250l205 80l45 -134zM51 322l45 133l205 -80v250h143v-250l205 80l45 -133l-209 -74l144 -180l-111 -86l-145 188l-146 -188l-110 86l143 180zM948 322l45 133l205 -80
v250h143v-250l205 80l45 -133l-209 -74l144 -180l-111 -86l-145 188l-146 -188l-110 86l143 180z" />
    <glyph glyph-name="fraction" unicode="&#x2044;" horiz-adv-x="350" 
d="M645 1434h170l-1046 -1434h-170z" />
    <glyph glyph-name="uni204E" unicode="&#x204e;" horiz-adv-x="806" 
d="M528 272l156 -196l-123 -94l-158 206l-157 -206l-123 94l156 196l-228 80l51 146l224 -86v274h155v-274l224 86l51 -146z" />
    <glyph glyph-name="uni2051" unicode="&#x2051;" horiz-adv-x="745" 
d="M485 1057l144 -180l-111 -86l-145 188l-146 -188l-110 86l143 180l-209 73l45 134l205 -80v250h143v-250l205 80l45 -134zM51 322l45 133l205 -80v250h143v-250l205 80l45 -133l-209 -74l144 -180l-111 -86l-145 188l-146 -188l-110 86l143 180z" />
    <glyph glyph-name="uni2055" unicode="&#x2055;" horiz-adv-x="1585" 
d="M51 772h606l-530 531l80 79l530 -530v606h111v-606l530 530l80 -79l-530 -531h606v-110h-606l530 -531l-80 -80l-530 531v-607h-111v607l-530 -531l-80 80l530 531h-606v110z" />
    <glyph glyph-name="uni2070" unicode="&#x2070;" horiz-adv-x="802" 
d="M745 967q0 -193 -91 -306.5t-253 -113.5q-163 0 -253.5 113.5t-90.5 306.5v65q0 191 90.5 305.5t253.5 114.5q162 0 253 -114.5t91 -305.5v-65zM197 977q0 -149 53 -225t151 -76q97 0 151 76.5t54 224.5v45q0 148 -54 224.5t-151 76.5q-98 0 -151 -76t-53 -225v-45z" />
    <glyph glyph-name="uni2074" unicode="&#x2074;" horiz-adv-x="722" 
d="M723 772h-156v-207h-135v207h-405v139l391 523h149v-539h156v-123zM168 895h264v348z" />
    <glyph glyph-name="uni2075" unicode="&#x2075;" horiz-adv-x="722" 
d="M367 547q-134 0 -222 85t-84 226h136q-3 -84 46.5 -133t123.5 -49q73 0 121.5 48t48.5 126t-47 127t-121 49q-99 0 -160 -88l-121 41l84 455h490v-123h-390l-36 -215q56 59 157 59q115 0 200.5 -85t84.5 -218q-1 -138 -90 -221.5t-221 -83.5z" />
    <glyph glyph-name="uni2076" unicode="&#x2076;" horiz-adv-x="741" 
d="M561 1188q0 50 -41.5 92.5t-113.5 42.5q-65 0 -111.5 -38.5t-69 -98t-26.5 -135.5q34 50 86.5 76t109.5 26q121 0 208 -86t87 -217q0 -135 -89.5 -219t-219.5 -84q-145 0 -234.5 102t-89.5 307q0 107 18.5 191.5t50.5 141t77.5 94t97 53.5t111.5 16q117 0 201 -78
t83 -186h-135zM213 850q0 -77 49 -125.5t119 -48.5q68 0 118 48t50 126q0 77 -50.5 125.5t-117.5 48.5q-70 0 -119 -48.5t-49 -125.5z" />
    <glyph glyph-name="uni2077" unicode="&#x2077;" horiz-adv-x="622" 
d="M127 565q67 236 142 409.5t186 336.5h-428v123h591v-105q-116 -150 -190.5 -325t-144.5 -439h-156z" />
    <glyph glyph-name="uni2078" unicode="&#x2078;" horiz-adv-x="751" 
d="M375 547q-142 0 -230 76.5t-88 189.5q0 71 35 125.5t96 85.5q-108 59 -108 180q0 105 83.5 176.5t211.5 71.5t211.5 -71.5t83.5 -176.5q0 -122 -109 -180q62 -32 97.5 -86.5t35.5 -124.5q0 -113 -88.5 -189.5t-230.5 -76.5zM199 815q0 -59 48 -99t128 -40t129 40t49 99
q0 60 -49 99.5t-129 39.5t-128 -39.5t-48 -99.5zM221 1202q0 -51 42 -86t112 -35q71 0 112 34.5t41 86.5q0 51 -41.5 86t-111.5 35q-69 0 -111.5 -35t-42.5 -86z" />
    <glyph glyph-name="uni2079" unicode="&#x2079;" horiz-adv-x="741" 
d="M180 811q0 -50 42 -92.5t114 -42.5q65 0 111.5 38.5t69 98t26.5 135.5q-34 -50 -87 -76t-110 -26q-121 0 -208 86t-87 217q0 135 89.5 219t219.5 84q145 0 234.5 -102.5t89.5 -307.5q0 -133 -27.5 -231t-77.5 -154.5t-112 -83t-137 -26.5q-117 0 -201.5 78t-83.5 186h135
zM193 1149q0 -77 50 -125.5t117 -48.5q70 0 119 48.5t49 125.5t-49 125.5t-119 48.5q-68 0 -117.5 -48t-49.5 -126z" />
    <glyph glyph-name="uni2080" unicode="&#x2080;" horiz-adv-x="802" 
d="M745 274q0 -193 -91 -306t-253 -113q-164 0 -254 113t-90 306v66q0 191 90.5 305.5t253.5 114.5q162 0 253 -114.5t91 -305.5v-66zM197 285q0 -149 53 -225t151 -76q97 0 151 76.5t54 224.5v45q0 148 -54 224.5t-151 76.5q-98 0 -151 -76t-53 -225v-45z" />
    <glyph glyph-name="uni2081" unicode="&#x2081;" horiz-adv-x="495" 
d="M393 739v-868h-135v674q-64 -77 -227 -88v127q176 15 248 155h114z" />
    <glyph glyph-name="uni2082" unicode="&#x2082;" horiz-adv-x="704" 
d="M57 -61q0 87 42.5 149.5t119.5 120.5q30 23 115.5 77.5t116.5 80.5q34 31 47.5 62t13.5 73q0 56 -41 93.5t-106 37.5q-67 0 -114.5 -40.5t-47.5 -117.5q0 -7 1 -19t1 -18h-135q-4 20 -4 39q0 121 85.5 202t217.5 81q131 0 207.5 -77t76.5 -183q0 -132 -106 -221
q-33 -28 -125 -87t-119 -81q-85 -72 -94 -115h450v-123h-602v66z" />
    <glyph glyph-name="uni2083" unicode="&#x2083;" horiz-adv-x="731" 
d="M68 459q-2 76 24 136t70 95t96.5 52.5t108.5 17.5q116 0 200 -70t84 -178q0 -63 -32.5 -110.5t-86.5 -73.5q57 -20 99.5 -74.5t42.5 -136.5q0 -109 -85 -185.5t-227 -76.5q-146 0 -233.5 83.5t-83.5 223.5h137q-1 -93 50.5 -135.5t132.5 -42.5q78 0 122.5 40.5t44.5 94.5
q0 61 -42.5 101t-116.5 40h-84v123h84q67 0 102 35.5t35 91.5q0 50 -41.5 86.5t-103.5 36.5q-67 0 -115 -42.5t-47 -131.5h-135z" />
    <glyph glyph-name="uni2084" unicode="&#x2084;" horiz-adv-x="722" 
d="M723 80h-156v-207h-135v207h-405v139l391 522h149v-538h156v-123zM168 203h264v348z" />
    <glyph glyph-name="uni2085" unicode="&#x2085;" horiz-adv-x="722" 
d="M367 -145q-134 0 -222 85t-84 226h136q-3 -84 46.5 -133t123.5 -49q73 0 121.5 48t48.5 126t-47 127t-121 49q-99 0 -160 -88l-121 41l84 454h490v-123h-390l-36 -215q57 60 157 60q115 0 200.5 -85t84.5 -218q-1 -138 -90 -221.5t-221 -83.5z" />
    <glyph glyph-name="uni2086" unicode="&#x2086;" horiz-adv-x="741" 
d="M561 496q0 50 -41.5 92.5t-113.5 42.5q-96 0 -148 -77.5t-59 -195.5q34 50 86.5 76.5t109.5 26.5q121 0 208 -86t87 -217q0 -135 -89.5 -219t-219.5 -84q-145 0 -234.5 102t-89.5 307q0 107 18.5 191.5t50.5 141t77.5 94t97 53.5t111.5 16q117 0 201 -78t83 -186h-135z
M213 158q0 -77 49 -125.5t119 -48.5q68 0 118 48t50 126q0 77 -50.5 125.5t-117.5 48.5q-70 0 -119 -48.5t-49 -125.5z" />
    <glyph glyph-name="uni2087" unicode="&#x2087;" horiz-adv-x="622" 
d="M127 -127q66 236 141.5 409t186.5 336h-428v123h591v-104q-116 -150 -190.5 -325t-144.5 -439h-156z" />
    <glyph glyph-name="uni2088" unicode="&#x2088;" horiz-adv-x="751" 
d="M375 -145q-142 0 -230 76.5t-88 189.5q0 71 35 125.5t96 85.5q-108 59 -108 180q0 105 83.5 176.5t211.5 71.5t211.5 -71.5t83.5 -176.5q0 -122 -109 -180q62 -32 97.5 -86.5t35.5 -124.5q0 -113 -88.5 -189.5t-230.5 -76.5zM199 123q0 -59 48 -99t128 -40t129 40t49 99
q0 60 -49 99.5t-129 39.5t-128 -39.5t-48 -99.5zM221 510q0 -51 42 -86t112 -35q71 0 112 34.5t41 86.5q0 51 -41.5 86t-111.5 35q-69 0 -111.5 -35t-42.5 -86z" />
    <glyph glyph-name="uni2089" unicode="&#x2089;" horiz-adv-x="741" 
d="M180 119q0 -50 42 -92.5t114 -42.5q65 0 111.5 38.5t69 98t26.5 135.5q-34 -50 -87 -76t-110 -26q-121 0 -208 86t-87 217q0 135 89.5 219t219.5 84q145 0 234.5 -102.5t89.5 -307.5q0 -133 -27.5 -231t-77.5 -154.5t-112 -83t-137 -26.5q-117 0 -201.5 78t-83.5 186h135
zM193 457q0 -77 50 -125.5t117 -48.5q70 0 119 48.5t49 125.5t-49 125.5t-119 48.5q-68 0 -117.5 -48t-49.5 -126z" />
    <glyph glyph-name="uni20A8" unicode="&#x20a8;" horiz-adv-x="2177" 
d="M1022 0q-29 198 -135 363.5t-250 246.5h-330v-610h-194v1405h626q193 0 319 -103.5t126 -281.5q0 -82 -28 -149t-76 -111t-97 -71.5t-106 -45.5q101 -71 180.5 -198t128.5 -283h497q130 0 187 24.5t57 96.5q0 57 -31 88t-96 47q-48 11 -139 23t-125 18q-126 23 -202.5 98
t-76.5 199q0 134 104.5 222.5t293.5 88.5q203 0 321 -106.5t121 -286.5h-182q-4 123 -71 178t-191 55q-105 0 -161 -38t-56 -107q0 -90 120 -129q51 -17 140 -25.5t114 -13.5q141 -26 223.5 -103t82.5 -204q0 -138 -111 -212.5t-326 -74.5h-657zM307 782h406q272 0 272 226
q0 225 -272 225h-406v-451z" />
    <glyph glyph-name="uni20AA" unicode="&#x20aa;" horiz-adv-x="1587" 
d="M932 0q-210 0 -320 107.5t-110 289.5v656h194v-656q0 -96 60 -160.5t174 -64.5h350v1233h195v-1405h-543zM113 0v1405h542q207 0 318.5 -107.5t111.5 -289.5v-660h-194v660q0 95 -61 160t-173 65h-350v-1233h-194z" />
    <glyph glyph-name="dong" unicode="&#x20ab;" horiz-adv-x="1062" 
d="M899 1434v-86h133v-152h-133v-946h-162v92q-48 -54 -119 -85.5t-151 -31.5q-164 0 -279.5 120t-115.5 327t116.5 327.5t280.5 120.5q159 0 264 -114v190h-303v152h303v86h166zM72 0v152h960v-152h-960zM246 670q0 -133 69.5 -211t169.5 -78q107 0 179.5 77t72.5 216
q0 143 -74.5 218t-177.5 75q-110 0 -174.5 -76.5t-64.5 -220.5z" />
    <glyph glyph-name="Euro" unicode="&#x20ac;" horiz-adv-x="1523" 
d="M1276 862q-22 182 -139 287.5t-310 105.5q-155 0 -272 -88t-166 -249h660l-37 -152h-650q-2 -20 -2 -64q0 -35 2 -51h625l-37 -151h-563q45 -167 163 -258.5t275 -91.5q199 0 314 106t137 297h197q-21 -263 -192.5 -422.5t-453.5 -159.5q-243 0 -416 144t-229 385h-172
v151h152q-2 18 -2 54q0 41 2 61h-152v152h174q58 235 231.5 375.5t415.5 140.5q271 0 446 -159.5t196 -412.5h-197z" />
    <glyph glyph-name="uni20B4" unicode="&#x20b4;" horiz-adv-x="1275" 
d="M1266 918v-152h-1256v152h901q37 46 37 122q0 91 -77 155.5t-220 64.5q-57 0 -106.5 -11t-92 -34.5t-68 -66t-26.5 -99.5h-196q0 122 65 210t174 131.5t248 43.5q113 0 208 -31.5t156.5 -84t95.5 -120t34 -141.5q0 -70 -27 -139h150zM10 500v151h1256v-151h-887
q-43 -53 -43 -125q0 -60 27 -105.5t72.5 -71.5t98.5 -38.5t111 -12.5q164 0 245.5 64.5t78.5 185.5h196q2 -111 -36.5 -194.5t-110 -133.5t-163.5 -74t-204 -24q-242 0 -380 107t-138 278q0 79 33 144h-156z" />
    <glyph glyph-name="uni20B9" unicode="&#x20b9;" horiz-adv-x="1171" 
d="M1161 1405v-152h-264q60 -76 74 -170h190v-151h-190q-26 -151 -146 -234.5t-293 -85.5h-65q170 -93 289 -245.5t211 -366.5h-205q-77 205 -262 369.5t-439 240.5v172h445q218 0 262 150h-707v151h707q-44 150 -262 150h-445v172h1100z" />
    <glyph glyph-name="uni20BD" unicode="&#x20bd;" horiz-adv-x="1265" 
d="M205 0v352h-185v152h185v114h-185v173h185v614h614q184 0 310 -109t126 -284t-126 -284.5t-310 -109.5h-420v-114h486v-152h-486v-352h-194zM399 791h396q117 0 189.5 55t72.5 164t-73 166t-189 57h-396v-442z" />
    <glyph glyph-name="uni20BF" unicode="&#x20bf;" horiz-adv-x="1224" 
d="M113 0v1405h264v213h151v-213h115v213h152v-221q148 -24 241.5 -121.5t93.5 -251.5q0 -103 -54 -179t-138 -118q105 -40 170.5 -123.5t65.5 -208.5q0 -107 -52.5 -191.5t-137 -133t-189.5 -64.5v-219h-152v213h-115v-213h-151v213h-264zM307 172h385q130 0 206.5 54.5
t76.5 176.5q0 226 -283 226h-385v-457zM307 799h361q264 0 264 215q0 219 -264 219h-361v-434z" />
    <glyph glyph-name="uni2113" unicode="&#x2113;" horiz-adv-x="823" 
d="M154 1004q0 199 84.5 314.5t236.5 115.5q149 0 238.5 -110.5t89.5 -272.5q0 -99 -37 -191.5t-103 -168.5t-148 -138t-181 -111q1 -132 75.5 -207t198.5 -75h56v-160h-89q-162 0 -278 101t-139 268q-88 -29 -148 -41v178q95 24 144 43v455zM334 631q282 165 282 420
q0 98 -35.5 157.5t-105.5 59.5t-105.5 -70.5t-35.5 -202.5v-364z" />
    <glyph glyph-name="uni2116" unicode="&#x2116;" horiz-adv-x="2103" 
d="M2030 1116q0 -154 -88.5 -243t-221.5 -89q-132 0 -219.5 88t-87.5 244q0 154 87.5 241t219.5 87q133 0 221.5 -87t88.5 -241zM113 0v1434h258l712 -1084v1084h195v-1434h-191l-780 1188v-1188h-194zM1413 514l2 166h617l-2 -166h-617zM1548 1114q0 -93 51.5 -147
t120.5 -54q71 0 122.5 54t51.5 147q0 98 -51 149.5t-123 51.5q-71 0 -121.5 -51.5t-50.5 -149.5z" />
    <glyph glyph-name="uni2117" unicode="&#x2117;" horiz-adv-x="1622" 
d="M557 311v811h354q107 0 182.5 -73.5t75.5 -184.5t-75 -183.5t-183 -72.5h-215v-297h-139zM92 520v393q0 226 147 373.5t373 147.5h398q226 0 373 -147.5t147 -373.5v-393q0 -226 -147 -373t-373 -147h-398q-226 0 -373 147t-147 373zM231 528q0 -177 106.5 -283
t283.5 -106h380q177 0 283.5 106t106.5 283v377q0 177 -106.5 283t-283.5 106h-380q-177 0 -283.5 -106t-106.5 -283v-377zM696 735h197q56 0 95.5 34t39.5 95q0 60 -39.5 94.5t-95.5 34.5h-197v-258z" />
    <glyph glyph-name="trademark" unicode="&#x2122;" horiz-adv-x="1675" 
d="M643 1317h-229v-621h-123v621h-230v117h582v-117zM741 696v738h189l203 -611l202 611h187v-738h-123v584l-191 -584h-151l-193 578v-578h-123z" />
    <glyph glyph-name="uni2126" unicode="&#x2126;" horiz-adv-x="1544" 
d="M424 174q-170 91 -266.5 249t-96.5 335q0 195 90 355.5t253.5 254.5t367.5 94q152 0 285 -54.5t226 -148.5t146.5 -223.5t53.5 -275.5q0 -177 -98 -335t-269 -251h350v-174h-606v201q183 61 302.5 207t119.5 348q0 155 -71.5 277t-187 186.5t-251.5 64.5
q-137 0 -252.5 -64.5t-186.5 -186.5t-71 -277q0 -202 119.5 -348t302.5 -207v-201h-606v174h346z" />
    <glyph glyph-name="estimated" unicode="&#x212e;" horiz-adv-x="1556" 
d="M334 303q83 -93 198.5 -142.5t245.5 -49.5q185 0 335 97t214 271l131 -47q-78 -218 -264 -339.5t-416 -121.5q-145 0 -276 50.5t-231.5 143.5t-160 236t-59.5 316t59.5 316t160 235.5t231.5 143t276 50.5t276 -50.5t231.5 -143t160 -235.5t59.5 -316h-1171v-414zM334 856
h889v274q-83 93 -199 143t-246 50t-245.5 -50t-198.5 -143v-274z" />
    <glyph glyph-name="oneeighth" unicode="&#x215b;" horiz-adv-x="1513" 
d="M354 1405v-782h-125v604q-56 -67 -200 -78v117q158 15 223 139h102zM86 0l1047 1434h170l-1047 -1434h-170zM889 223q0 63 32 113t87 78q-99 54 -99 161q0 95 75.5 159.5t191.5 64.5q114 0 189 -64.5t75 -159.5q0 -109 -97 -161q55 -28 87 -78t32 -113
q0 -102 -79.5 -170.5t-206.5 -68.5q-128 0 -207.5 68.5t-79.5 170.5zM1020 227q0 -54 42 -89.5t114 -35.5q70 0 112.5 35.5t42.5 89.5t-42.5 89.5t-112.5 35.5q-72 0 -114 -35.5t-42 -89.5zM1040 573q0 -46 36 -76t100 -30t98.5 30t34.5 76t-35.5 76.5t-97.5 30.5
q-63 0 -99.5 -30.5t-36.5 -76.5z" />
    <glyph glyph-name="threeeighths" unicode="&#x215c;" horiz-adv-x="1683" 
d="M61 1151q-2 68 21 121.5t63 85t87.5 47.5t97.5 16q104 0 180 -63t76 -160q0 -57 -29.5 -100t-77.5 -66q51 -17 89 -67t38 -123q0 -98 -76 -167t-204 -69q-131 0 -210 75.5t-75 201.5h127q-1 -84 43.5 -121t116.5 -37q70 0 108.5 35.5t38.5 83.5q0 55 -36 90t-103 35h-76
v114h76q60 0 89.5 31.5t29.5 81.5q0 45 -35.5 76t-91.5 31q-60 0 -101.5 -36.5t-40.5 -115.5h-125zM256 0l1047 1434h170l-1047 -1434h-170zM1059 223q0 63 32 113t87 78q-99 54 -99 161q0 95 75.5 159.5t191.5 64.5q114 0 189 -64.5t75 -159.5q0 -109 -97 -161
q55 -28 87 -78t32 -113q0 -102 -79.5 -170.5t-206.5 -68.5q-128 0 -207.5 68.5t-79.5 170.5zM1190 227q0 -54 42 -89.5t114 -35.5q70 0 112.5 35.5t42.5 89.5t-42.5 89.5t-112.5 35.5q-72 0 -114 -35.5t-42 -89.5zM1210 573q0 -46 36 -76t100 -30t98.5 30t34.5 76
t-35.5 76.5t-97.5 30.5q-63 0 -99.5 -30.5t-36.5 -76.5z" />
    <glyph glyph-name="fiveeighths" unicode="&#x215d;" horiz-adv-x="1677" 
d="M330 606q-121 0 -200 76.5t-75 202.5h125q-3 -75 40.5 -117.5t109.5 -42.5t107.5 41.5t41.5 112.5q0 70 -40.5 112.5t-106.5 42.5q-89 0 -139 -76l-113 37l76 410h440v-115h-346l-33 -186q52 49 137 49q104 0 180.5 -76t75.5 -196q-1 -125 -80.5 -200t-199.5 -75zM250 0
l1046 1434h170l-1046 -1434h-170zM1053 223q0 63 31.5 113t86.5 78q-98 53 -98 161q0 95 75 159.5t191 64.5q114 0 189.5 -64.5t75.5 -159.5q0 -109 -97 -161q55 -28 87 -78t32 -113q0 -102 -80 -170.5t-207 -68.5q-128 0 -207 68.5t-79 170.5zM1184 227q0 -54 41.5 -89.5
t113.5 -35.5q71 0 113.5 35.5t42.5 89.5t-42.5 89.5t-113.5 35.5q-72 0 -113.5 -35.5t-41.5 -89.5zM1204 573q0 -46 35.5 -76t99.5 -30t99 30t35 76t-36 76.5t-98 30.5q-63 0 -99 -30.5t-36 -76.5z" />
    <glyph glyph-name="seveneighths" unicode="&#x215e;" horiz-adv-x="1495" 
d="M111 623q59 210 126 366t166 301h-378v115h532v-94q-104 -135 -172 -293t-131 -395h-143zM68 0l1046 1434h170l-1046 -1434h-170zM870 223q0 63 32 113t87 78q-98 53 -98 161q0 95 75 159.5t191 64.5q114 0 189 -64.5t75 -159.5q0 -109 -96 -161q55 -28 87 -78t32 -113
q0 -102 -80 -170.5t-207 -68.5q-128 0 -207.5 68.5t-79.5 170.5zM1001 227q0 -54 42 -89.5t114 -35.5q71 0 113.5 35.5t42.5 89.5t-42.5 89.5t-113.5 35.5q-72 0 -114 -35.5t-42 -89.5zM1022 573q0 -46 35.5 -76t99.5 -30t98.5 30t34.5 76t-35.5 76.5t-97.5 30.5
q-63 0 -99 -30.5t-36 -76.5z" />
    <glyph glyph-name="arrowleft" unicode="&#x2190;" horiz-adv-x="1632" 
d="M1540 504h-1190l400 -400l-109 -106l-428 428q-69 69 -69 156.5t69 156.5l428 428l109 -106l-400 -399h1190v-158z" />
    <glyph glyph-name="arrowup" unicode="&#x2191;" horiz-adv-x="1292" 
d="M725 0h-158v1272l-399 -400l-107 109l428 428q69 69 157 69t157 -69l428 -428l-107 -109l-399 400v-1272z" />
    <glyph glyph-name="arrowright" unicode="&#x2192;" horiz-adv-x="1632" 
d="M92 504v158h1190l-399 399l108 106l428 -428q69 -69 69 -156.5t-69 -156.5l-428 -428l-108 106l399 400h-1190z" />
    <glyph glyph-name="arrowdown" unicode="&#x2193;" horiz-adv-x="1374" 
d="M725 1434v-1272l399 399l107 -108l-428 -428q-69 -69 -157 -69t-157 69l-428 428l107 108l399 -399v1272h158z" />
    <glyph glyph-name="arrowboth" unicode="&#x2194;" horiz-adv-x="1929" 
d="M350 504l400 -400l-109 -106l-428 428q-69 69 -69 156.5t69 156.5l428 428l109 -106l-400 -399h1229l-399 399l108 106l428 -428q69 -69 69 -156.5t-69 -156.5l-428 -428l-108 106l399 400h-1229z" />
    <glyph glyph-name="arrowupdn" unicode="&#x2195;" horiz-adv-x="1374" 
d="M209 872l-107 109l428 428q69 69 157 69t157 -69l428 -428l-107 -109l-399 400v-1094l399 400l107 -109l-428 -428q-69 -69 -157 -69t-157 69l-428 428l107 109l399 -400v1094z" />
    <glyph glyph-name="uni2196" unicode="&#x2196;" horiz-adv-x="1417" 
d="M1212 283l-884 886v-567h-154v608q0 97 62.5 160.5t158.5 63.5h609v-154h-566l887 -885z" />
    <glyph glyph-name="uni2197" unicode="&#x2197;" horiz-adv-x="1417" 
d="M205 283l-113 112l887 885h-565v154h608q96 0 158.5 -63.5t62.5 -160.5v-608h-153v567z" />
    <glyph glyph-name="uni2198" unicode="&#x2198;" horiz-adv-x="1417" 
d="M205 1151l885 -887v567h153v-608q0 -97 -62 -160t-159 -63h-608v154h565l-887 884z" />
    <glyph glyph-name="uni2199" unicode="&#x2199;" horiz-adv-x="1417" 
d="M1130 1151l113 -113l-887 -884h566v-154h-609q-97 0 -159 63t-62 160v608h154v-567z" />
    <glyph glyph-name="uni21A4" unicode="&#x21a4;" horiz-adv-x="1714" 
d="M1581 37h-158v467h-1032l400 -400l-109 -106l-428 428q-69 69 -69 156.5t69 156.5l428 428l109 -106l-400 -399h1032v468h158v-1093z" />
    <glyph glyph-name="uni21A5" unicode="&#x21a5;" horiz-adv-x="1333" 
d="M119 0v158h469v1114l-400 -400l-106 109l428 428q69 69 156.5 69t156.5 -69l428 -428l-106 -109l-400 400v-1114h467v-158h-1093z" />
    <glyph glyph-name="uni21A6" unicode="&#x21a6;" horiz-adv-x="1714" 
d="M174 1130h158v-468h1032l-399 399l108 106l428 -428q69 -69 69 -156.5t-69 -156.5l-428 -428l-108 106l399 400h-1032v-467h-158v1093z" />
    <glyph glyph-name="uni21A7" unicode="&#x21a7;" horiz-adv-x="1333" 
d="M119 1434h1093v-158h-467v-1114l400 399l106 -108l-428 -428q-69 -69 -156.5 -69t-156.5 69l-428 428l106 108l400 -399v1114h-469v158z" />
    <glyph glyph-name="uni21B0" unicode="&#x21b0;" horiz-adv-x="1468" 
d="M922 956q158 0 265 -107t107 -265v-830h-157v819q0 97 -64.5 161.5t-161.5 64.5h-561l400 -400l-109 -106l-428 428q-69 69 -69 156.5t69 156.5l428 428l109 -106l-400 -400h572z" />
    <glyph glyph-name="uni21B1" unicode="&#x21b1;" horiz-adv-x="1468" 
d="M547 956h571l-399 400l108 106l428 -428q69 -69 69 -156.5t-69 -156.5l-428 -428l-108 106l399 400h-561q-97 0 -161 -64.5t-64 -161.5v-819h-158v830q0 158 107.5 265t265.5 107z" />
    <glyph glyph-name="uni21B2" unicode="&#x21b2;" horiz-adv-x="1468" 
d="M922 477h-572l400 -399l-109 -107l-428 428q-69 69 -69 157t69 157l428 428l109 -107l-400 -399h561q97 0 161.5 64t64.5 161v819h157v-829q0 -158 -107 -265.5t-265 -107.5z" />
    <glyph glyph-name="uni21B3" unicode="&#x21b3;" horiz-adv-x="1468" 
d="M547 477q-158 0 -265.5 107.5t-107.5 265.5v829h158v-819q0 -97 64 -161t161 -64h561l-399 399l108 107l428 -428q69 -69 69 -157t-69 -157l-428 -428l-108 107l399 399h-571z" />
    <glyph glyph-name="uni21BA" unicode="&#x21ba;" horiz-adv-x="1802" 
d="M1010 1305q285 0 451.5 -167t166.5 -452v-225q0 -285 -166.5 -452t-451.5 -167h-217q-285 0 -452 167t-167 452v348h158v-338q0 -223 123.5 -347t347.5 -124h196q224 0 347.5 124t123.5 347v205q0 223 -123.5 347t-347.5 124h-331l307 -307l-109 -107l-336 336
q-69 69 -69 156.5t69 156.5l336 336l109 -106l-307 -307h342z" />
    <glyph glyph-name="uni21BB" unicode="&#x21bb;" horiz-adv-x="1802" 
d="M793 1305h342l-308 307l109 106l336 -336q69 -69 69 -156.5t-69 -156.5l-336 -336l-109 107l308 307h-332q-224 0 -347.5 -124t-123.5 -347v-205q0 -223 123.5 -347t347.5 -124h196q224 0 347.5 124t123.5 347v338h158v-348q0 -285 -166.5 -452t-451.5 -167h-217
q-285 0 -452 167t-167 452v225q0 285 167 452t452 167z" />
    <glyph glyph-name="partialdiff" unicode="&#x2202;" horiz-adv-x="1155" 
d="M541 1032q209 0 327 -112q-57 171 -185 255.5t-351 114.5l26 172q197 -17 343.5 -91t233 -193t128 -267t41.5 -327q0 -155 -40 -274t-112 -192t-167 -110t-210 -37q-143 0 -261.5 63.5t-190.5 186.5t-72 283q0 119 41 220t109 167.5t156 103.5t184 37zM238 502
q0 -171 96 -268t241 -97q71 0 131 22.5t108.5 68.5t76 126.5t27.5 188.5q0 23 -5 116q-136 207 -346 207q-144 0 -236.5 -93.5t-92.5 -270.5z" />
    </font>
</defs>
</svg>
